QalamBadi-Bent.ufo
<glyph name="seven" format="2">
  <advance width="1228"/>
  <unicode hex="0037"/>
  <outline>
    <contour>
      <point x="320.1202733221088" y="1187.0" type="line" smooth="yes"/>
      <point x="281.7344151461456" y="1187.0"/>
      <point x="266.38007187576034" y="1167.0"/>
      <point x="266.38007187576034" y="1115.0" type="curve" smooth="yes"/>
      <point x="266.38007187576034" y="1063.0"/>
      <point x="281.7344151461456" y="1043.0"/>
      <point x="320.1202733221088" y="1043.0" type="curve" smooth="yes"/>
      <point x="797.1573479951143" y="1043.0" type="line" smooth="yes"/>
      <point x="822.5973479951143" y="1043.0"/>
      <point x="837.2743837004845" y="1021.8620607927454"/>
      <point x="828.3850835384551" y="998.0256612611604" type="curve" smooth="yes"/>
      <point x="477.0757823082695" y="56.0" type="line" smooth="yes"/>
      <point x="463.4274771790381" y="15.0"/>
      <point x="483.8999348728851" y="-12.0"/>
      <point x="522.2857930488483" y="-20.0" type="curve" smooth="yes"/>
      <point x="561.5246702953884" y="-28.0"/>
      <point x="593.0863759067361" y="-13.0"/>
      <point x="605.8816619653904" y="24.0" type="curve" smooth="yes"/>
      <point x="992.9619574522986" y="1079.0" type="line" smooth="yes"/>
      <point x="995.5210146640295" y="1087.0"/>
      <point x="998.0800718757604" y="1102.0"/>
      <point x="998.0800718757604" y="1119.0" type="curve" smooth="yes"/>
      <point x="998.0800718757604" y="1169.0"/>
      <point x="982.7257286053751" y="1187.0"/>
      <point x="944.3398704294119" y="1187.0" type="curve" smooth="yes"/>
    </contour>
  </outline>
</glyph>
<glyph name="less" format="2">
  <advance width="1228"/>
  <unicode hex="003C"/>
  <outline>
    <contour>
      <point x="383.2871693787823" y="562.2582313393334" type="line" smooth="yes"/>
      <point x="360.34496960802767" y="573.2513687294867"/>
      <point x="360.34496960802767" y="592.7486312705133"/>
      <point x="383.2871693787823" y="603.7417686606666" type="curve" smooth="yes"/>
      <point x="1012.0" y="905.0" type="line" smooth="yes"/>
      <point x="1054.0" y="925.0"/>
      <point x="1064.0" y="954.0"/>
      <point x="1041.0" y="1000.0" type="curve" smooth="yes"/>
      <point x="1019.0" y="1044.0"/>
      <point x="990.0" y="1058.0"/>
      <point x="949.0" y="1038.0" type="curve" smooth="yes"/>
      <point x="172.0" y="657.0" type="line" smooth="yes"/>
      <point x="140.0" y="641.0"/>
      <point x="125.0" y="623.0"/>
      <point x="125.0" y="583.0" type="curve" smooth="yes"/>
      <point x="125.0" y="543.0"/>
      <point x="140.0" y="525.0"/>
      <point x="172.0" y="509.0" type="curve" smooth="yes"/>
      <point x="949.0" y="128.0" type="line" smooth="yes"/>
      <point x="990.0" y="108.0"/>
      <point x="1019.0" y="122.0"/>
      <point x="1041.0" y="166.0" type="curve" smooth="yes"/>
      <point x="1064.0" y="212.0"/>
      <point x="1054.0" y="241.0"/>
      <point x="1012.0" y="261.0" type="curve" smooth="yes"/>
    </contour>
  </outline>
</glyph>
<glyph name="J" format="2">
  <advance width="1228"/>
  <unicode hex="004A"/>
  <outline>
    <contour>
      <point x="591.6958436526215" y="1187.0" type="line" smooth="yes"/>
      <point x="565.2313366287101" y="1187.0"/>
      <point x="554.6455338191455" y="1167.0"/>
      <point x="554.6455338191455" y="1115.0" type="curve" smooth="yes"/>
      <point x="554.6455338191455" y="1063.0"/>
      <point x="565.2313366287101" y="1043.0"/>
      <point x="591.6958436526215" y="1043.0" type="curve" smooth="yes"/>
      <point x="756.0" y="1043.0" type="line" smooth="yes"/>
      <point x="781.44" y="1043.0"/>
      <point x="804.0" y="1020.44"/>
      <point x="804.0" y="995.0" type="curve" smooth="yes"/>
      <point x="804.0" y="363.0" type="line" smooth="yes"/>
      <point x="804.0" y="210.0"/>
      <point x="762.8329890739155" y="126.0"/>
      <point x="673.4417653487035" y="126.0" type="curve" smooth="yes"/>
      <point x="612.2793491156638" y="126.0"/>
      <point x="552.8812333508847" y="160.0"/>
      <point x="504.06892039567026" y="222.0" type="curve" smooth="yes"/>
      <point x="488.77831633741033" y="242.0"/>
      <point x="468.782911030455" y="246.0"/>
      <point x="449.96370603567357" y="197.0" type="curve" smooth="yes"/>
      <point x="432.90880150915285" y="151.0"/>
      <point x="436.43740244567437" y="118.0"/>
      <point x="457.0209079087166" y="92.0" type="curve" smooth="yes"/>
      <point x="516.4190236734956" y="17.0"/>
      <point x="595.2244445891431" y="-22.0"/>
      <point x="672.8536651926166" y="-22.0" type="curve" smooth="yes"/>
      <point x="817.0" y="-22.0"/>
      <point x="954.0" y="104.0"/>
      <point x="954.0" y="333.0" type="curve" smooth="yes"/>
      <point x="954.0" y="1119.0" type="line" smooth="yes"/>
      <point x="954.0" y="1169.0"/>
      <point x="933.0" y="1187.0"/>
      <point x="891.0" y="1187.0" type="curve" smooth="yes"/>
    </contour>
  </outline>
</glyph>
<glyph name="z" format="2">
  <advance width="1228"/>
  <unicode hex="007A"/>
  <outline>
    <contour>
      <point x="261.0" y="924.0" type="line" smooth="yes"/>
      <point x="216.0" y="924.0"/>
      <point x="198.0" y="904.0"/>
      <point x="198.0" y="852.0" type="curve" smooth="yes"/>
      <point x="198.0" y="800.0"/>
      <point x="216.0" y="780.0"/>
      <point x="261.0" y="780.0" type="curve" smooth="yes"/>
      <point x="747.758544921875" y="780.0" type="line" smooth="yes"/>
      <point x="773.198544921875" y="780.0"/>
      <point x="780.6188474888486" y="763.2744757440488"/>
      <point x="763.5464227239464" y="744.4137781788272" type="curve" smooth="yes"/>
      <point x="192.0" y="113.0" type="line" smooth="yes"/>
      <point x="182.0" y="102.0"/>
      <point x="178.0" y="87.0"/>
      <point x="178.0" y="68.0" type="curve" smooth="yes"/>
      <point x="178.0" y="18.0"/>
      <point x="196.0" y="0.0"/>
      <point x="241.0" y="0.0" type="curve" smooth="yes"/>
      <point x="987.0" y="0.0" type="line" smooth="yes"/>
      <point x="1032.0" y="0.0"/>
      <point x="1050.0" y="20.0"/>
      <point x="1050.0" y="72.0" type="curve" smooth="yes"/>
      <point x="1050.0" y="124.0"/>
      <point x="1032.0" y="144.0"/>
      <point x="987.0" y="144.0" type="curve" smooth="yes"/>
      <point x="470.2403564453125" y="144.0" type="line" smooth="yes"/>
      <point x="444.8003564453125" y="144.0"/>
      <point x="437.3787601389221" y="160.72669523872867"/>
      <point x="454.44972600618394" y="179.58871327389076" type="curve" smooth="yes"/>
      <point x="1025.0" y="810.0" type="line" smooth="yes"/>
      <point x="1034.0" y="820.0"/>
      <point x="1040.0" y="835.0"/>
      <point x="1040.0" y="856.0" type="curve" smooth="yes"/>
      <point x="1040.0" y="906.0"/>
      <point x="1022.0" y="924.0"/>
      <point x="977.0" y="924.0" type="curve" smooth="yes"/>
    </contour>
  </outline>
</glyph>
<glyph name="yen" format="2">
  <advance width="1228"/>
  <unicode hex="00A5"/>
  <outline>
    <contour>
      <point x="233.0" y="434.0" type="line" smooth="yes"/>
      <point x="188.0" y="434.0"/>
      <point x="170.0" y="414.0"/>
      <point x="170.0" y="362.0" type="curve" smooth="yes"/>
      <point x="170.0" y="310.0"/>
      <point x="188.0" y="290.0"/>
      <point x="233.0" y="290.0" type="curve" smooth="yes"/>
      <point x="491.0" y="290.0" type="line" smooth="yes"/>
      <point x="516.44" y="290.0"/>
      <point x="539.0" y="267.44"/>
      <point x="539.0" y="242.0" type="curve" smooth="yes"/>
      <point x="539.0" y="55.0" type="line" smooth="yes"/>
      <point x="539.0" y="9.0"/>
      <point x="557.0" y="-10.0"/>
      <point x="613.0" y="-10.0" type="curve" smooth="yes"/>
      <point x="615.0" y="-10.0" type="line" smooth="yes"/>
      <point x="671.0" y="-10.0"/>
      <point x="689.0" y="9.0"/>
      <point x="689.0" y="55.0" type="curve" smooth="yes"/>
      <point x="689.0" y="242.0" type="line" smooth="yes"/>
      <point x="689.0" y="267.44"/>
      <point x="711.56" y="290.0"/>
      <point x="737.0" y="290.0" type="curve" smooth="yes"/>
      <point x="995.0" y="290.0" type="line" smooth="yes"/>
      <point x="1040.0" y="290.0"/>
      <point x="1058.0" y="310.0"/>
      <point x="1058.0" y="362.0" type="curve" smooth="yes"/>
      <point x="1058.0" y="414.0"/>
      <point x="1040.0" y="434.0"/>
      <point x="995.0" y="434.0" type="curve" smooth="yes"/>
      <point x="711.4503637695312" y="434.0" type="line" smooth="yes"/>
      <point x="699.5516709716796" y="434.0"/>
      <point x="689.0" y="444.5516709716797"/>
      <point x="689.0" y="456.45036376953124" type="curve" smooth="yes"/>
      <point x="689.0" y="465.00288330078126" type="line" smooth="yes"/>
      <point x="689.0" y="476.9015760986328"/>
      <point x="694.7856069275164" y="496.27733414914746"/>
      <point x="701.3098019734391" y="506.2279004295358" type="curve" smooth="yes"/>
      <point x="736.4735085005992" y="559.8588526006082" type="line" smooth="yes"/>
      <point x="750.4225636437192" y="581.1336607222859"/>
      <point x="785.35248046875" y="600.0"/>
      <point x="810.79248046875" y="600.0" type="curve" smooth="yes"/>
      <point x="1015.0" y="600.0" type="line" smooth="yes"/>
      <point x="1060.0" y="600.0"/>
      <point x="1078.0" y="620.0"/>
      <point x="1078.0" y="672.0" type="curve" smooth="yes"/>
      <point x="1078.0" y="724.0"/>
      <point x="1060.0" y="744.0"/>
      <point x="1015.0" y="744.0" type="curve" smooth="yes"/>
      <point x="905.20751953125" y="744.0" type="line" smooth="yes"/>
      <point x="879.76751953125" y="744.0"/>
      <point x="869.5774334095715" y="762.8663412097552"/>
      <point x="883.5264852298066" y="784.1411515101174" type="curve" smooth="yes"/>
      <point x="1088.0" y="1096.0" type="line" smooth="yes"/>
      <point x="1114.0" y="1136.0"/>
      <point x="1107.0" y="1163.0"/>
      <point x="1055.0" y="1187.0" type="curve" smooth="yes"/>
      <point x="1005.0" y="1210.0"/>
      <point x="977.0" y="1205.0"/>
      <point x="955.0" y="1172.0" type="curve" smooth="yes"/>
      <point x="640.3004888048869" y="686.3030575127276" type="line" smooth="yes"/>
      <point x="626.4670097675937" y="664.9529179880133"/>
      <point x="601.9220454616109" y="664.9463604984164"/>
      <point x="588.0771604942851" y="686.2891054072026" type="curve" smooth="yes"/>
      <point x="273.0" y="1172.0" type="line" smooth="yes"/>
      <point x="252.0" y="1205.0"/>
      <point x="223.0" y="1210.0"/>
      <point x="173.0" y="1187.0" type="curve" smooth="yes"/>
      <point x="121.0" y="1163.0"/>
      <point x="114.0" y="1136.0"/>
      <point x="140.0" y="1096.0" type="curve" smooth="yes"/>
      <point x="344.2257995290653" y="784.1552270884947" type="line" smooth="yes"/>
      <point x="358.1634667820787" y="762.8729567315925"/>
      <point x="347.9632849121094" y="744.0"/>
      <point x="322.5232849121094" y="744.0" type="curve" smooth="yes"/>
      <point x="213.0" y="744.0" type="line" smooth="yes"/>
      <point x="168.0" y="744.0"/>
      <point x="150.0" y="724.0"/>
      <point x="150.0" y="672.0" type="curve" smooth="yes"/>
      <point x="150.0" y="620.0"/>
      <point x="168.0" y="600.0"/>
      <point x="213.0" y="600.0" type="curve" smooth="yes"/>
      <point x="416.8282470703125" y="600.0" type="line" smooth="yes"/>
      <point x="442.2682470703125" y="600.0"/>
      <point x="477.18806506019166" y="581.1270431766228"/>
      <point x="491.12573215516176" y="559.8447727162187" type="curve" smooth="yes"/>
      <point x="526.8637593873771" y="505.27420820963954" type="line" smooth="yes"/>
      <point x="533.2959669120672" y="495.45247984827665"/>
      <point x="539.0" y="476.33124708862306"/>
      <point x="539.0" y="464.5907342529297" type="curve" smooth="yes"/>
      <point x="539.0" y="456.1519110107422" type="line" smooth="yes"/>
      <point x="539.0" y="444.4113981750488"/>
      <point x="528.5886018249512" y="434.0"/>
      <point x="516.8480889892578" y="434.0" type="curve" smooth="yes"/>
    </contour>
  </outline>
</glyph>
<glyph name="ordfeminine" format="2">
  <advance width="1228"/>
  <unicode hex="00AA"/>
  <outline>
    <contour>
      <point x="345.0" y="1128.0" type="curve" smooth="yes"/>
      <point x="320.0" y="1112.0"/>
      <point x="313.0" y="1085.0"/>
      <point x="338.0" y="1042.0" type="curve" smooth="yes"/>
      <point x="359.0" y="1005.0"/>
      <point x="387.0" y="1000.0"/>
      <point x="412.0" y="1015.0" type="curve" smooth="yes"/>
      <point x="486.0" y="1058.0"/>
      <point x="563.0" y="1080.0"/>
      <point x="644.0" y="1080.0" type="curve" smooth="yes"/>
      <point x="750.0" y="1080.0"/>
      <point x="792.0" y="1029.0"/>
      <point x="792.0" y="950.0" type="curve" smooth="yes"/>
      <point x="792.0" y="920.42" type="line" smooth="yes"/>
      <point x="792.0" y="909.0674"/>
      <point x="782.2904126430983" y="901.6601609196991"/>
      <point x="771.3413034959538" y="904.6599168504237" type="curve" smooth="yes"/>
      <point x="719.0" y="919.0"/>
      <point x="641.0" y="927.0"/>
      <point x="558.0" y="927.0" type="curve" smooth="yes"/>
      <point x="390.0" y="927.0"/>
      <point x="252.0" y="859.0"/>
      <point x="252.0" y="687.0" type="curve" smooth="yes"/>
      <point x="252.0" y="541.0"/>
      <point x="368.0" y="465.0"/>
      <point x="522.0" y="465.0" type="curve" smooth="yes"/>
      <point x="632.0" y="465.0"/>
      <point x="728.0" y="511.0"/>
      <point x="789.7030201085739" y="563.3304094591703" type="curve" smooth="yes"/>
      <point x="798.8704194510298" y="571.10529244581"/>
      <point x="807.0" y="567.3404"/>
      <point x="807.0" y="555.32" type="curve" smooth="yes"/>
      <point x="807.0" y="524.0" type="line" smooth="yes"/>
      <point x="807.0" y="489.0"/>
      <point x="824.0" y="474.0"/>
      <point x="866.0" y="474.0" type="curve" smooth="yes"/>
      <point x="868.0" y="474.0" type="line" smooth="yes"/>
      <point x="909.0" y="474.0"/>
      <point x="927.0" y="489.0"/>
      <point x="927.0" y="524.0" type="curve" smooth="yes"/>
      <point x="927.0" y="954.0" type="line" smooth="yes"/>
      <point x="927.0" y="1115.0"/>
      <point x="831.0" y="1209.0"/>
      <point x="644.0" y="1209.0" type="curve" smooth="yes"/>
      <point x="540.0" y="1209.0"/>
      <point x="427.0" y="1180.0"/>
    </contour>
    <contour>
      <point x="763.7486004795472" y="782.4574627475321" type="curve" smooth="yes"/>
      <point x="778.7218422253871" y="779.03500749134"/>
      <point x="792.0" y="762.3794"/>
      <point x="792.0" y="747.02" type="curve" smooth="yes"/>
      <point x="792.0" y="735.98" type="line" smooth="yes"/>
      <point x="792.0" y="720.6206"/>
      <point x="782.3052110647421" y="697.4327740770482"/>
      <point x="771.3727894994513" y="686.6442001639323" type="curve" smooth="yes"/>
      <point x="716.0" y="632.0"/>
      <point x="630.0" y="590.0"/>
      <point x="526.0" y="590.0" type="curve" smooth="yes"/>
      <point x="445.0" y="590.0"/>
      <point x="393.0" y="625.0"/>
      <point x="393.0" y="690.0" type="curve" smooth="yes"/>
      <point x="393.0" y="772.0"/>
      <point x="466.0" y="801.0"/>
      <point x="569.0" y="801.0" type="curve" smooth="yes"/>
      <point x="648.0" y="801.0"/>
      <point x="722.0" y="792.0"/>
    </contour>
  </outline>
</glyph>
<glyph name="plusminus" format="2">
  <advance width="1228"/>
  <unicode hex="00B1"/>
  <outline>
    <contour>
      <point x="233.0" y="814.0" type="line" smooth="yes"/>
      <point x="188.0" y="814.0"/>
      <point x="170.0" y="794.0"/>
      <point x="170.0" y="742.0" type="curve" smooth="yes"/>
      <point x="170.0" y="690.0"/>
      <point x="188.0" y="670.0"/>
      <point x="233.0" y="670.0" type="curve" smooth="yes"/>
      <point x="494.0" y="670.0" type="line" smooth="yes"/>
      <point x="519.44" y="670.0"/>
      <point x="542.0" y="647.44"/>
      <point x="542.0" y="622.0" type="curve" smooth="yes"/>
      <point x="542.0" y="421.0" type="line" smooth="yes"/>
      <point x="542.0" y="376.0"/>
      <point x="562.0" y="358.0"/>
      <point x="614.0" y="358.0" type="curve" smooth="yes"/>
      <point x="666.0" y="358.0"/>
      <point x="686.0" y="376.0"/>
      <point x="686.0" y="421.0" type="curve" smooth="yes"/>
      <point x="686.0" y="622.0" type="line" smooth="yes"/>
      <point x="686.0" y="647.44"/>
      <point x="708.56" y="670.0"/>
      <point x="734.0" y="670.0" type="curve" smooth="yes"/>
      <point x="995.0" y="670.0" type="line" smooth="yes"/>
      <point x="1040.0" y="670.0"/>
      <point x="1058.0" y="690.0"/>
      <point x="1058.0" y="742.0" type="curve" smooth="yes"/>
      <point x="1058.0" y="794.0"/>
      <point x="1040.0" y="814.0"/>
      <point x="995.0" y="814.0" type="curve" smooth="yes"/>
      <point x="734.0" y="814.0" type="line" smooth="yes"/>
      <point x="708.56" y="814.0"/>
      <point x="686.0" y="836.56"/>
      <point x="686.0" y="862.0" type="curve" smooth="yes"/>
      <point x="686.0" y="1063.0" type="line" smooth="yes"/>
      <point x="686.0" y="1108.0"/>
      <point x="666.0" y="1126.0"/>
      <point x="614.0" y="1126.0" type="curve" smooth="yes"/>
      <point x="562.0" y="1126.0"/>
      <point x="542.0" y="1108.0"/>
      <point x="542.0" y="1063.0" type="curve" smooth="yes"/>
      <point x="542.0" y="862.0" type="line" smooth="yes"/>
      <point x="542.0" y="836.56"/>
      <point x="519.44" y="814.0"/>
      <point x="494.0" y="814.0" type="curve" smooth="yes"/>
    </contour>
    <contour>
      <point x="233.0" y="254.0" type="line" smooth="yes"/>
      <point x="188.0" y="254.0"/>
      <point x="170.0" y="234.0"/>
      <point x="170.0" y="182.0" type="curve" smooth="yes"/>
      <point x="170.0" y="130.0"/>
      <point x="188.0" y="110.0"/>
      <point x="233.0" y="110.0" type="curve" smooth="yes"/>
      <point x="995.0" y="110.0" type="line" smooth="yes"/>
      <point x="1040.0" y="110.0"/>
      <point x="1058.0" y="130.0"/>
      <point x="1058.0" y="182.0" type="curve" smooth="yes"/>
      <point x="1058.0" y="234.0"/>
      <point x="1040.0" y="254.0"/>
      <point x="995.0" y="254.0" type="curve" smooth="yes"/>
    </contour>
  </outline>
</glyph>
<glyph name="thorn" format="2">
  <advance width="1228"/>
  <unicode hex="00FE"/>
  <outline>
    <contour>
      <point x="266.0" y="1322.0" type="line" smooth="yes"/>
      <point x="210.0" y="1322.0"/>
      <point x="192.0" y="1303.0"/>
      <point x="192.0" y="1257.0" type="curve" smooth="yes"/>
      <point x="192.0" y="-333.0" type="line" smooth="yes"/>
      <point x="192.0" y="-379.0"/>
      <point x="210.0" y="-398.0"/>
      <point x="266.0" y="-398.0" type="curve" smooth="yes"/>
      <point x="268.0" y="-398.0" type="line" smooth="yes"/>
      <point x="324.0" y="-398.0"/>
      <point x="342.0" y="-379.0"/>
      <point x="342.0" y="-333.0" type="curve" smooth="yes"/>
      <point x="342.0" y="95.0" type="line" smooth="yes"/>
      <point x="342.0" y="120.44"/>
      <point x="355.92267693768565" y="125.24858690445079"/>
      <point x="371.6227168886929" y="105.23103596691658" type="curve" smooth="yes"/>
      <point x="422.0" y="41.0"/>
      <point x="526.0" y="-22.0"/>
      <point x="659.0" y="-22.0" type="curve" smooth="yes"/>
      <point x="906.0" y="-22.0"/>
      <point x="1089.0" y="160.0"/>
      <point x="1089.0" y="462.0" type="curve" smooth="yes"/>
      <point x="1089.0" y="764.0"/>
      <point x="906.0" y="946.0"/>
      <point x="659.0" y="946.0" type="curve" smooth="yes"/>
      <point x="531.0" y="946.0"/>
      <point x="423.0" y="886.0"/>
      <point x="372.3954139323486" y="824.1499503617595" type="curve" smooth="yes"/>
      <point x="356.28584454820384" y="804.460476670027"/>
      <point x="342.0" y="809.56"/>
      <point x="342.0" y="835.0" type="curve" smooth="yes"/>
      <point x="342.0" y="1257.0" type="line" smooth="yes"/>
      <point x="342.0" y="1303.0"/>
      <point x="324.0" y="1322.0"/>
      <point x="268.0" y="1322.0" type="curve" smooth="yes"/>
    </contour>
    <contour>
      <point x="935.0" y="462.0" type="curve" smooth="yes"/>
      <point x="935.0" y="266.0"/>
      <point x="830.0" y="126.0"/>
      <point x="649.0" y="126.0" type="curve" smooth="yes"/>
      <point x="472.0" y="126.0"/>
      <point x="342.0" y="250.0"/>
      <point x="342.0" y="462.0" type="curve" smooth="yes"/>
      <point x="342.0" y="674.0"/>
      <point x="472.0" y="798.0"/>
      <point x="649.0" y="798.0" type="curve" smooth="yes"/>
      <point x="830.0" y="798.0"/>
      <point x="935.0" y="658.0"/>
    </contour>
  </outline>
</glyph>
<glyph name="eogonek" format="2">
  <advance width="1228"/>
  <unicode hex="0119"/>
  <outline>
    <contour>
      <point x="148.0" y="462.0" type="curve" smooth="yes"/>
      <point x="148.0" y="161.0"/>
      <point x="311.0" y="-22.0"/>
      <point x="603.0" y="-22.0" type="curve" smooth="yes"/>
      <point x="658.0" y="-22.0"/>
      <point x="713.0" y="-17.0"/>
      <point x="743.16" y="-12.36" type="curve" smooth="yes"/>
      <point x="754.7352" y="-10.5792"/>
      <point x="757.296789710978" y="-15.965668878370954"/>
      <point x="748.6101908744213" y="-23.82057208164033" type="curve" smooth="yes"/>
      <point x="671.0" y="-94.0"/>
      <point x="611.0" y="-182.0"/>
      <point x="611.0" y="-281.0" type="curve" smooth="yes"/>
      <point x="611.0" y="-397.0"/>
      <point x="687.0" y="-472.0"/>
      <point x="811.0" y="-472.0" type="curve" smooth="yes"/>
      <point x="873.0" y="-472.0"/>
      <point x="929.0" y="-462.0"/>
      <point x="975.0" y="-446.0" type="curve" smooth="yes"/>
      <point x="1004.0" y="-436.0"/>
      <point x="1013.0" y="-415.0"/>
      <point x="1007.0" y="-374.0" type="curve" smooth="yes"/>
      <point x="1002.0" y="-337.0"/>
      <point x="983.0" y="-322.0"/>
      <point x="957.0" y="-326.0" type="curve" smooth="yes"/>
      <point x="922.0" y="-332.0"/>
      <point x="883.0" y="-336.0"/>
      <point x="844.0" y="-336.0" type="curve" smooth="yes"/>
      <point x="799.0" y="-336.0"/>
      <point x="767.0" y="-310.0"/>
      <point x="767.0" y="-261.0" type="curve" smooth="yes"/>
      <point x="767.0" y="-193.0"/>
      <point x="809.0" y="-116.0"/>
      <point x="928.0" y="-5.0" type="curve" smooth="yes"/>
      <point x="981.0" y="44.0"/>
      <point x="1004.0" y="59.0"/>
      <point x="1016.0" y="65.0" type="curve" smooth="yes"/>
      <point x="1060.0" y="87.0"/>
      <point x="1069.0" y="122.0"/>
      <point x="1051.0" y="165.0" type="curve" smooth="yes"/>
      <point x="1034.0" y="207.0"/>
      <point x="1005.0" y="233.0"/>
      <point x="963.0" y="209.0" type="curve" smooth="yes"/>
      <point x="872.0" y="156.0"/>
      <point x="737.0" y="123.0"/>
      <point x="603.0" y="123.0" type="curve" smooth="yes"/>
      <point x="418.0" y="123.0"/>
      <point x="312.0" y="225.0"/>
      <point x="304.3970056133068" y="377.05988773386343" type="curve" smooth="yes"/>
      <point x="303.1265926382542" y="402.4681472349158"/>
      <point x="324.56" y="425.0"/>
      <point x="350.0" y="425.0" type="curve" smooth="yes"/>
      <point x="1026.0" y="425.0" type="line" smooth="yes"/>
      <point x="1071.0" y="425.0"/>
      <point x="1092.0" y="442.0"/>
      <point x="1089.0" y="487.0" type="curve" smooth="yes"/>
      <point x="1074.0" y="753.0"/>
      <point x="920.0" y="946.0"/>
      <point x="623.0" y="946.0" type="curve" smooth="yes"/>
      <point x="344.0" y="946.0"/>
      <point x="148.0" y="753.0"/>
    </contour>
    <contour>
      <point x="918.1921385710615" y="612.1849719407421" type="curve" smooth="yes"/>
      <point x="922.8603051283989" y="587.1769368121488"/>
      <point x="904.44" y="565.0"/>
      <point x="879.0" y="565.0" type="curve" smooth="yes"/>
      <point x="360.0" y="565.0" type="line" smooth="yes"/>
      <point x="334.56" y="565.0"/>
      <point x="316.9415050024396" y="587.012158647231"/>
      <point x="322.51384043072255" y="611.8343801004914" type="curve" smooth="yes"/>
      <point x="345.0" y="712.0"/>
      <point x="457.0" y="801.0"/>
      <point x="623.0" y="801.0" type="curve" smooth="yes"/>
      <point x="799.0" y="801.0"/>
      <point x="899.0" y="715.0"/>
    </contour>
  </outline>
</glyph>
<glyph name="uni0394" format="2">
  <advance width="1228"/>
  <unicode hex="0394"/>
  <outline>
    <contour>
      <point x="514.0" y="1144.0" type="curve" smooth="yes"/>
      <point x="153.0" y="106.0" type="line" smooth="yes"/>
      <point x="150.0" y="97.0"/>
      <point x="147.0" y="83.0"/>
      <point x="147.0" y="68.0" type="curve" smooth="yes"/>
      <point x="147.0" y="18.0"/>
      <point x="165.0" y="0.0"/>
      <point x="210.0" y="0.0" type="curve" smooth="yes"/>
      <point x="1017.0" y="0.0" type="line" smooth="yes"/>
      <point x="1062.0" y="0.0"/>
      <point x="1080.0" y="18.0"/>
      <point x="1080.0" y="68.0" type="curve" smooth="yes"/>
      <point x="1080.0" y="83.0"/>
      <point x="1078.0" y="97.0"/>
      <point x="1075.0" y="106.0" type="curve" smooth="yes"/>
      <point x="718.0" y="1144.0" type="line" smooth="yes"/>
      <point x="702.0" y="1190.0"/>
      <point x="670.0" y="1209.0"/>
      <point x="617.0" y="1209.0" type="curve" smooth="yes"/>
      <point x="564.0" y="1209.0"/>
      <point x="530.0" y="1191.0"/>
    </contour>
    <contour>
      <point x="892.0684339495724" y="181.61850869199606" type="line" smooth="yes"/>
      <point x="899.982163956299" y="157.44069908523815"/>
      <point x="884.44" y="136.0"/>
      <point x="859.0" y="136.0" type="curve" smooth="yes"/>
      <point x="369.0" y="136.0" type="line" smooth="yes"/>
      <point x="343.56" y="136.0"/>
      <point x="328.10509147864417" y="157.41194234720658"/>
      <point x="336.1172159120089" y="181.5573241429927" type="curve" smooth="yes"/>
      <point x="615.0" y="1022.0" type="line"/>
      <point x="617.0" y="1022.0" type="line"/>
    </contour>
  </outline>
</glyph>
<glyph name="uni041C" format="2">
  <advance width="1228"/>
  <unicode hex="041C"/>
  <outline>
    <contour>
      <point x="151.42000000000002" y="1051.0" type="line" smooth="yes"/>
      <point x="162.3274" y="1051.0"/>
      <point x="171.73581990012195" y="1041.331008344464"/>
      <point x="171.43791468111056" y="1030.4276773286465" type="curve" smooth="yes"/>
      <point x="147.61944096367407" y="158.6715392704713" type="line" smooth="yes"/>
      <point x="147.2911372529268" y="146.65562345712152"/>
      <point x="136.3404" y="136.0"/>
      <point x="124.32" y="136.0" type="curve" smooth="yes"/>
      <point x="93.0" y="136.0" type="line" smooth="yes"/>
      <point x="70.33329772949219" y="136.0"/>
      <point x="54.16669845581055" y="131.0"/>
      <point x="44.5" y="121.0" type="curve" smooth="yes"/>
      <point x="34.83330154418945" y="111.0"/>
      <point x="30.0" y="93.33329772949219"/>
      <point x="30.0" y="68.0" type="curve" smooth="yes"/>
      <point x="30.0" y="42.66669845581055"/>
      <point x="34.83330154418945" y="25.0"/>
      <point x="44.5" y="15.0" type="curve" smooth="yes"/>
      <point x="54.16669845581055" y="5.0"/>
      <point x="70.33329772949219" y="0.0"/>
      <point x="93.0" y="0.0" type="curve" smooth="yes"/>
      <point x="407.0" y="0.0" type="line" smooth="yes"/>
      <point x="429.6669921875" y="0.0"/>
      <point x="445.8330078125" y="5.0"/>
      <point x="455.5" y="15.0" type="curve" smooth="yes"/>
      <point x="465.1669921875" y="25.0"/>
      <point x="470.0" y="42.66669845581055"/>
      <point x="470.0" y="68.0" type="curve" smooth="yes"/>
      <point x="470.0" y="93.33329772949219"/>
      <point x="465.1669921875" y="111.0"/>
      <point x="455.5" y="121.0" type="curve" smooth="yes"/>
      <point x="445.8330078125" y="131.0"/>
      <point x="429.6669921875" y="136.0"/>
      <point x="407.0" y="136.0" type="curve" smooth="yes"/>
      <point x="342.62" y="136.0" type="line" smooth="yes"/>
      <point x="317.9114" y="136.0"/>
      <point x="296.5616461690059" y="157.90420059123"/>
      <point x="297.19499184894875" y="182.604682109" type="curve" smooth="yes"/>
      <point x="317.0" y="955.0" type="line"/>
      <point x="522.0" y="385.0" type="line" smooth="yes"/>
      <point x="530.6669921875" y="361.6669921875"/>
      <point x="542.3330078125" y="345.0"/>
      <point x="557.0" y="335.0" type="curve" smooth="yes"/>
      <point x="571.6669921875" y="325.0"/>
      <point x="590.6669921875" y="320.0"/>
      <point x="614.0" y="320.0" type="curve" smooth="yes"/>
      <point x="637.3330078125" y="320.0"/>
      <point x="656.3330078125" y="325.0"/>
      <point x="671.0" y="335.0" type="curve" smooth="yes"/>
      <point x="685.6669921875" y="345.0"/>
      <point x="697.3330078125" y="361.6669921875"/>
      <point x="706.0" y="385.0" type="curve" smooth="yes"/>
      <point x="910.0" y="955.0" type="line"/>
      <point x="930.7481438762122" y="182.6031893355523" type="line" smooth="yes"/>
      <point x="931.4116276218198" y="157.90349898770958"/>
      <point x="910.0886" y="136.0"/>
      <point x="885.38" y="136.0" type="curve" smooth="yes"/>
      <point x="821.0" y="136.0" type="line" smooth="yes"/>
      <point x="798.3330078125" y="136.0"/>
      <point x="782.1669921875" y="131.0"/>
      <point x="772.5" y="121.0" type="curve" smooth="yes"/>
      <point x="762.8330078125" y="111.0"/>
      <point x="758.0" y="93.33329772949219"/>
      <point x="758.0" y="68.0" type="curve" smooth="yes"/>
      <point x="758.0" y="42.66669845581055"/>
      <point x="762.8330078125" y="25.0"/>
      <point x="772.5" y="15.0" type="curve" smooth="yes"/>
      <point x="782.1669921875" y="5.0"/>
      <point x="798.3330078125" y="0.0"/>
      <point x="821.0" y="0.0" type="curve" smooth="yes"/>
      <point x="1135.0" y="0.0" type="line" smooth="yes"/>
      <point x="1157.6700439453125" y="0.0"/>
      <point x="1173.8299560546875" y="5.0"/>
      <point x="1183.5" y="15.0" type="curve" smooth="yes"/>
      <point x="1193.1700439453125" y="25.0"/>
      <point x="1198.0" y="42.66669845581055"/>
      <point x="1198.0" y="68.0" type="curve" smooth="yes"/>
      <point x="1198.0" y="93.33329772949219"/>
      <point x="1193.1700439453125" y="111.0"/>
      <point x="1183.5" y="121.0" type="curve" smooth="yes"/>
      <point x="1173.8299560546875" y="131.0"/>
      <point x="1157.6700439453125" y="136.0"/>
      <point x="1135.0" y="136.0" type="curve" smooth="yes"/>
      <point x="1103.68" y="136.0" type="line" smooth="yes"/>
      <point x="1091.6596" y="136.0"/>
      <point x="1080.6972264717408" y="146.65529916757785"/>
      <point x="1080.355801003704" y="158.67084929271886" type="curve" smooth="yes"/>
      <point x="1055.5964805521257" y="1030.0084728771121" type="line" smooth="yes"/>
      <point x="1055.280345859499" y="1041.1339822522427"/>
      <point x="1064.87" y="1051.0"/>
      <point x="1076.0" y="1051.0" type="curve" smooth="yes"/>
      <point x="1105.0" y="1051.0" type="line" smooth="yes"/>
      <point x="1127.6700439453125" y="1051.0"/>
      <point x="1143.8299560546875" y="1056.0"/>
      <point x="1153.5" y="1066.0" type="curve" smooth="yes"/>
      <point x="1163.1700439453125" y="1076.0"/>
      <point x="1168.0" y="1093.6700439453125"/>
      <point x="1168.0" y="1119.0" type="curve" smooth="yes"/>
      <point x="1168.0" y="1144.3299560546875"/>
      <point x="1163.1700439453125" y="1162.0"/>
      <point x="1153.5" y="1172.0" type="curve" smooth="yes"/>
      <point x="1143.8299560546875" y="1182.0"/>
      <point x="1127.6700439453125" y="1187.0"/>
      <point x="1105.0" y="1187.0" type="curve" smooth="yes"/>
      <point x="894.0" y="1187.0" type="line" smooth="yes"/>
      <point x="861.3330078125" y="1187.0"/>
      <point x="841.6669921875" y="1176.0"/>
      <point x="835.0" y="1154.0" type="curve"/>
      <point x="630.3739192485499" y="590.120890598945" type="line" smooth="yes"/>
      <point x="621.6957420468184" y="566.2068185815042"/>
      <point x="606.2735120171443" y="566.1956359529688"/>
      <point x="597.5606638662646" y="590.0970977722742" type="curve" smooth="yes"/>
      <point x="392.0" y="1154.0" type="line" smooth="yes"/>
      <point x="384.6669921875" y="1176.0"/>
      <point x="365.3330078125" y="1187.0"/>
      <point x="334.0" y="1187.0" type="curve" smooth="yes"/>
      <point x="123.0" y="1187.0" type="line" smooth="yes"/>
      <point x="100.33300018310547" y="1187.0"/>
      <point x="84.16670227050781" y="1182.0"/>
      <point x="74.5" y="1172.0" type="curve" smooth="yes"/>
      <point x="64.83329772949219" y="1162.0"/>
      <point x="60.0" y="1144.3299560546875"/>
      <point x="60.0" y="1119.0" type="curve" smooth="yes"/>
      <point x="60.0" y="1093.6700439453125"/>
      <point x="64.83329772949219" y="1076.0"/>
      <point x="74.5" y="1066.0" type="curve" smooth="yes"/>
      <point x="84.16670227050781" y="1056.0"/>
      <point x="100.33300018310547" y="1051.0"/>
      <point x="123.0" y="1051.0" type="curve" smooth="yes"/>
    </contour>
  </outline>
</glyph>
<glyph name="uni041F" format="2">
  <advance width="1228"/>
  <unicode hex="041F"/>
  <outline>
    <contour>
      <point x="403.64" y="136.0" type="line" smooth="yes"/>
      <point x="383.1608" y="136.0"/>
      <point x="365.0" y="154.1608"/>
      <point x="365.0" y="174.64" type="curve" smooth="yes"/>
      <point x="365.0" y="1003.0" type="line" smooth="yes"/>
      <point x="365.0" y="1028.44"/>
      <point x="387.56" y="1051.0"/>
      <point x="413.0" y="1051.0" type="curve" smooth="yes"/>
      <point x="815.0" y="1051.0" type="line" smooth="yes"/>
      <point x="840.44" y="1051.0"/>
      <point x="863.0" y="1028.44"/>
      <point x="863.0" y="1003.0" type="curve" smooth="yes"/>
      <point x="863.0" y="174.64" type="line" smooth="yes"/>
      <point x="863.0" y="154.1608"/>
      <point x="844.8392" y="136.0"/>
      <point x="824.36" y="136.0" type="curve" smooth="yes"/>
      <point x="771.0" y="136.0" type="line" smooth="yes"/>
      <point x="748.3330078125" y="136.0"/>
      <point x="732.1669921875" y="131.0"/>
      <point x="722.5" y="121.0" type="curve" smooth="yes"/>
      <point x="712.8330078125" y="111.0"/>
      <point x="708.0" y="93.33329772949219"/>
      <point x="708.0" y="68.0" type="curve" smooth="yes"/>
      <point x="708.0" y="42.66669845581055"/>
      <point x="712.8330078125" y="25.0"/>
      <point x="722.5" y="15.0" type="curve" smooth="yes"/>
      <point x="732.1669921875" y="5.0"/>
      <point x="748.3330078125" y="0.0"/>
      <point x="771.0" y="0.0" type="curve" smooth="yes"/>
      <point x="1085.0" y="0.0" type="line" smooth="yes"/>
      <point x="1107.6700439453125" y="0.0"/>
      <point x="1123.8299560546875" y="5.0"/>
      <point x="1133.5" y="15.0" type="curve" smooth="yes"/>
      <point x="1143.1700439453125" y="25.0"/>
      <point x="1148.0" y="42.66669845581055"/>
      <point x="1148.0" y="68.0" type="curve" smooth="yes"/>
      <point x="1148.0" y="93.33329772949219"/>
      <point x="1143.1700439453125" y="111.0"/>
      <point x="1133.5" y="121.0" type="curve" smooth="yes"/>
      <point x="1123.8299560546875" y="131.0"/>
      <point x="1107.6700439453125" y="136.0"/>
      <point x="1085.0" y="136.0" type="curve" smooth="yes"/>
      <point x="1043.24" y="136.0" type="line" smooth="yes"/>
      <point x="1027.2128" y="136.0"/>
      <point x="1013.0" y="150.21280000000002"/>
      <point x="1013.0" y="166.24" type="curve" smooth="yes"/>
      <point x="1013.0" y="1020.76" type="line" smooth="yes"/>
      <point x="1013.0" y="1036.7872"/>
      <point x="1027.2128" y="1051.0"/>
      <point x="1043.24" y="1051.0" type="curve" smooth="yes"/>
      <point x="1085.0" y="1051.0" type="line" smooth="yes"/>
      <point x="1107.6700439453125" y="1051.0"/>
      <point x="1123.8299560546875" y="1056.0"/>
      <point x="1133.5" y="1066.0" type="curve" smooth="yes"/>
      <point x="1143.1700439453125" y="1076.0"/>
      <point x="1148.0" y="1093.6700439453125"/>
      <point x="1148.0" y="1119.0" type="curve" smooth="yes"/>
      <point x="1148.0" y="1144.3299560546875"/>
      <point x="1143.1700439453125" y="1162.0"/>
      <point x="1133.5" y="1172.0" type="curve" smooth="yes"/>
      <point x="1123.8299560546875" y="1182.0"/>
      <point x="1107.6700439453125" y="1187.0"/>
      <point x="1085.0" y="1187.0" type="curve" smooth="yes"/>
      <point x="143.0" y="1187.0" type="line" smooth="yes"/>
      <point x="120.33300018310547" y="1187.0"/>
      <point x="104.16699981689453" y="1182.0"/>
      <point x="94.5" y="1172.0" type="curve" smooth="yes"/>
      <point x="84.83329772949219" y="1162.0"/>
      <point x="80.0" y="1144.3299560546875"/>
      <point x="80.0" y="1119.0" type="curve" smooth="yes"/>
      <point x="80.0" y="1093.6700439453125"/>
      <point x="84.83329772949219" y="1076.0"/>
      <point x="94.5" y="1066.0" type="curve" smooth="yes"/>
      <point x="104.16699981689453" y="1056.0"/>
      <point x="120.33300018310547" y="1051.0"/>
      <point x="143.0" y="1051.0" type="curve" smooth="yes"/>
      <point x="184.76" y="1051.0" type="line" smooth="yes"/>
      <point x="200.78719999999998" y="1051.0"/>
      <point x="215.0" y="1036.7872"/>
      <point x="215.0" y="1020.76" type="curve" smooth="yes"/>
      <point x="215.0" y="166.24" type="line" smooth="yes"/>
      <point x="215.0" y="150.21280000000002"/>
      <point x="200.78719999999998" y="136.0"/>
      <point x="184.76" y="136.0" type="curve" smooth="yes"/>
      <point x="143.0" y="136.0" type="line" smooth="yes"/>
      <point x="120.33300018310547" y="136.0"/>
      <point x="104.16699981689453" y="131.0"/>
      <point x="94.5" y="121.0" type="curve" smooth="yes"/>
      <point x="84.83329772949219" y="111.0"/>
      <point x="80.0" y="93.33329772949219"/>
      <point x="80.0" y="68.0" type="curve" smooth="yes"/>
      <point x="80.0" y="42.66669845581055"/>
      <point x="84.83329772949219" y="25.0"/>
      <point x="94.5" y="15.0" type="curve" smooth="yes"/>
      <point x="104.16699981689453" y="5.0"/>
      <point x="120.33300018310547" y="0.0"/>
      <point x="143.0" y="0.0" type="curve" smooth="yes"/>
      <point x="457.0" y="0.0" type="line" smooth="yes"/>
      <point x="479.6669921875" y="0.0"/>
      <point x="495.8330078125" y="5.0"/>
      <point x="505.5" y="15.0" type="curve" smooth="yes"/>
      <point x="515.1669921875" y="25.0"/>
      <point x="520.0" y="42.66669845581055"/>
      <point x="520.0" y="68.0" type="curve" smooth="yes"/>
      <point x="520.0" y="93.33329772949219"/>
      <point x="515.1669921875" y="111.0"/>
      <point x="505.5" y="121.0" type="curve" smooth="yes"/>
      <point x="495.8330078125" y="131.0"/>
      <point x="479.6669921875" y="136.0"/>
      <point x="457.0" y="136.0" type="curve" smooth="yes"/>
    </contour>
  </outline>
</glyph>
<glyph name="uni0464" format="2">
  <advance width="1228"/>
  <unicode hex="0464"/>
  <outline>
    <contour>
      <point x="0.0" y="63.0" type="curve" smooth="yes"/>
      <point x="0.0" y="31.0"/>
      <point x="16.0" y="0.0"/>
      <point x="74.0" y="0.0" type="curve" smooth="yes"/>
      <point x="250.0" y="0.0" type="line" smooth="yes"/>
      <point x="311.0" y="0.0"/>
      <point x="322.0" y="37.0"/>
      <point x="322.0" y="63.0" type="curve" smooth="yes"/>
      <point x="322.0" y="117.0"/>
      <point x="279.0" y="127.0"/>
      <point x="238.0" y="127.0" type="curve" smooth="yes"/>
      <point x="231.0" y="127.0" type="line"/>
      <point x="231.0" y="515.0" type="line" smooth="yes"/>
      <point x="231.0" y="540.44"/>
      <point x="253.56" y="563.0"/>
      <point x="279.0" y="563.0" type="curve" smooth="yes"/>
      <point x="366.0" y="563.0" type="line" smooth="yes"/>
      <point x="391.44" y="563.0"/>
      <point x="415.70054764612007" y="540.5041839956122"/>
      <point x="417.6181864811065" y="515.1365616927917" type="curve" smooth="yes"/>
      <point x="449.0" y="100.0"/>
      <point x="608.0" y="-23.0"/>
      <point x="739.0" y="-23.0" type="curve" smooth="yes"/>
      <point x="961.0" y="-23.0"/>
      <point x="1016.0" y="233.0"/>
      <point x="1016.0" y="317.0" type="curve" smooth="yes"/>
      <point x="1016.0" y="367.0"/>
      <point x="997.0" y="389.0"/>
      <point x="944.0" y="389.0" type="curve" smooth="yes"/>
      <point x="940.0" y="389.0" type="line" smooth="yes"/>
      <point x="887.0" y="389.0"/>
      <point x="874.0" y="354.0"/>
      <point x="872.0" y="317.0" type="curve" smooth="yes"/>
      <point x="868.0" y="201.0"/>
      <point x="823.0" y="104.0"/>
      <point x="748.0" y="104.0" type="curve" smooth="yes"/>
      <point x="633.0" y="104.0"/>
      <point x="567.0" y="401.0"/>
      <point x="561.3674853909105" y="515.0584208340628" type="curve" smooth="yes"/>
      <point x="560.1127181337279" y="540.4674577920096"/>
      <point x="581.56" y="563.0"/>
      <point x="607.0" y="563.0" type="curve" smooth="yes"/>
      <point x="782.0" y="563.0" type="line" smooth="yes"/>
      <point x="807.0" y="563.0"/>
      <point x="860.0" y="563.0"/>
      <point x="860.0" y="625.0" type="curve" smooth="yes"/>
      <point x="860.0" y="647.0"/>
      <point x="850.0" y="688.0"/>
      <point x="788.0" y="688.0" type="curve" smooth="yes"/>
      <point x="605.0" y="688.0" type="line" smooth="yes"/>
      <point x="579.56" y="688.0"/>
      <point x="557.363823647244" y="710.5570661291248"/>
      <point x="557.7740928664765" y="735.993757721542" type="curve" smooth="yes"/>
      <point x="561.0" y="936.0"/>
      <point x="653.0" y="1147.0"/>
      <point x="748.0" y="1147.0" type="curve" smooth="yes"/>
      <point x="778.0" y="1147.0"/>
      <point x="807.0" y="1126.0"/>
      <point x="829.0" y="1085.0" type="curve" smooth="yes"/>
      <point x="905.0" y="944.0"/>
      <point x="829.0" y="846.0"/>
      <point x="948.0" y="846.0" type="curve" smooth="yes"/>
      <point x="1018.0" y="846.0"/>
      <point x="1018.0" y="897.0"/>
      <point x="1018.0" y="918.0" type="curve" smooth="yes"/>
      <point x="1018.0" y="1196.0" type="line" smooth="yes"/>
      <point x="1018.0" y="1196.536376953125"/>
      <point x="1018.0079956054688" y="1197.1805419921875"/>
      <point x="1018.0172119140625" y="1197.921875" type="curve" smooth="yes"/>
      <point x="1018.2137451171875" y="1213.767822265625"/>
      <point x="1018.9608154296875" y="1274.0"/>
      <point x="954.0" y="1274.0" type="curve" smooth="yes"/>
      <point x="915.0" y="1274.0"/>
      <point x="899.0" y="1241.0"/>
      <point x="892.04" y="1228.24" type="curve" smooth="yes"/>
      <point x="889.3688" y="1223.3428"/>
      <point x="883.0553663120802" y="1221.9851281962638"/>
      <point x="878.607162366128" y="1225.351336587795" type="curve" smooth="yes"/>
      <point x="850.0" y="1247.0"/>
      <point x="801.0" y="1274.0"/>
      <point x="739.0" y="1274.0" type="curve" smooth="yes"/>
      <point x="608.0" y="1274.0"/>
      <point x="444.0" y="1141.0"/>
      <point x="417.1718600283547" y="735.8950864281559" type="curve" smooth="yes"/>
      <point x="415.4907742133267" y="710.5106906212333"/>
      <point x="391.44" y="688.0"/>
      <point x="366.0" y="688.0" type="curve" smooth="yes"/>
      <point x="279.0" y="688.0" type="line" smooth="yes"/>
      <point x="253.56" y="688.0"/>
      <point x="231.0" y="710.56"/>
      <point x="231.0" y="736.0" type="curve" smooth="yes"/>
      <point x="231.0" y="1116.86" type="line" smooth="yes"/>
      <point x="231.0" y="1120.6442"/>
      <point x="234.3558" y="1124.0"/>
      <point x="238.14" y="1124.0" type="curve" smooth="yes"/>
      <point x="248.0" y="1124.0" type="line" smooth="yes"/>
      <point x="307.0" y="1124.0"/>
      <point x="322.0" y="1159.0"/>
      <point x="322.0" y="1190.0" type="curve" smooth="yes"/>
      <point x="322.0" y="1221.0"/>
      <point x="303.0" y="1251.0"/>
      <point x="250.0" y="1251.0" type="curve" smooth="yes"/>
      <point x="76.0" y="1251.0" type="line" smooth="yes"/>
      <point x="8.0" y="1251.0"/>
      <point x="0.0" y="1210.0"/>
      <point x="0.0" y="1188.0" type="curve" smooth="yes"/>
      <point x="0.0" y="1163.0"/>
      <point x="10.0" y="1124.0"/>
      <point x="76.0" y="1124.0" type="curve" smooth="yes"/>
      <point x="82.96" y="1124.0" type="line" smooth="yes"/>
      <point x="85.63119999999999" y="1124.0"/>
      <point x="88.0" y="1121.6312"/>
      <point x="88.0" y="1118.96" type="curve" smooth="yes"/>
      <point x="88.0" y="132.04" type="line" smooth="yes"/>
      <point x="88.0" y="129.3688"/>
      <point x="85.63119999999999" y="127.0"/>
      <point x="82.96" y="127.0" type="curve" smooth="yes"/>
      <point x="76.0" y="127.0" type="line" smooth="yes"/>
      <point x="10.0" y="127.0"/>
      <point x="0.0" y="88.0"/>
    </contour>
  </outline>
</glyph>
<glyph name="uni0468" format="2">
  <advance width="1228"/>
  <unicode hex="0468"/>
  <outline>
    <contour>
      <point x="0.0" y="63.0" type="curve" smooth="yes"/>
      <point x="0.0" y="12.0"/>
      <point x="35.0" y="0.0"/>
      <point x="76.0" y="0.0" type="curve" smooth="yes"/>
      <point x="231.0" y="0.0" type="line" smooth="yes"/>
      <point x="291.0" y="0.0"/>
      <point x="301.0" y="39.0"/>
      <point x="301.0" y="63.0" type="curve" smooth="yes"/>
      <point x="301.0" y="115.0"/>
      <point x="266.0" y="127.0"/>
      <point x="241.06" y="127.0" type="curve" smooth="yes"/>
      <point x="231.4882" y="127.0"/>
      <point x="223.0" y="135.4882"/>
      <point x="223.0" y="145.06" type="curve" smooth="yes"/>
      <point x="223.0" y="380.0" type="line" smooth="yes"/>
      <point x="223.0" y="405.44"/>
      <point x="245.56" y="428.0"/>
      <point x="271.0" y="428.0" type="curve" smooth="yes"/>
      <point x="427.0" y="428.0" type="line" smooth="yes"/>
      <point x="452.44" y="428.0"/>
      <point x="471.3751584170366" y="405.73311599036765"/>
      <point x="467.28757110007786" y="380.6236510433355" type="curve" smooth="yes"/>
      <point x="430.3189601839564" y="153.53075541573213" type="line" smooth="yes"/>
      <point x="428.0299112864595" y="139.4694550453941"/>
      <point x="413.3664" y="127.0"/>
      <point x="399.12" y="127.0" type="curve" smooth="yes"/>
      <point x="362.0" y="127.0"/>
      <point x="352.0" y="86.0"/>
      <point x="352.0" y="61.0" type="curve" smooth="yes"/>
      <point x="352.0" y="31.0"/>
      <point x="375.0" y="0.0"/>
      <point x="426.0" y="0.0" type="curve" smooth="yes"/>
      <point x="502.0" y="0.0" type="line" smooth="yes"/>
      <point x="537.0" y="0.0"/>
      <point x="582.0" y="6.0"/>
      <point x="582.0" y="61.0" type="curve" smooth="yes"/>
      <point x="582.0" y="86.0"/>
      <point x="571.0" y="100.0"/>
      <point x="571.0" y="111.0" type="curve" smooth="yes"/>
      <point x="571.0" y="127.0"/>
      <point x="618.0" y="428.0"/>
      <point x="618.0" y="428.0" type="curve"/>
      <point x="627.0" y="428.0" type="line"/>
      <point x="627.0" y="137.0" type="line" smooth="yes"/>
      <point x="627.0" y="104.0"/>
      <point x="606.0" y="94.0"/>
      <point x="606.0" y="66.0" type="curve" smooth="yes"/>
      <point x="606.0" y="33.0"/>
      <point x="621.0" y="0.0"/>
      <point x="680.0" y="0.0" type="curve" smooth="yes"/>
      <point x="715.0" y="0.0" type="line" smooth="yes"/>
      <point x="772.0" y="0.0"/>
      <point x="784.0" y="41.0"/>
      <point x="784.0" y="61.0" type="curve" smooth="yes"/>
      <point x="784.0" y="88.0"/>
      <point x="764.0" y="113.0"/>
      <point x="762.0" y="133.0" type="curve"/>
      <point x="762.0" y="423.8" type="line" smooth="yes"/>
      <point x="762.0" y="426.026"/>
      <point x="763.974" y="428.0"/>
      <point x="766.2" y="428.0" type="curve" smooth="yes"/>
      <point x="767.8" y="428.0" type="line" smooth="yes"/>
      <point x="770.026" y="428.0"/>
      <point x="772.2279986940366" y="426.0392112312853"/>
      <point x="772.4851036043332" y="423.8281090027347" type="curve" smooth="yes"/>
      <point x="782.0" y="342.0"/>
      <point x="819.0" y="141.0"/>
      <point x="819.0" y="119.0" type="curve" smooth="yes"/>
      <point x="819.0" y="94.0"/>
      <point x="809.0" y="80.0"/>
      <point x="809.0" y="61.0" type="curve" smooth="yes"/>
      <point x="809.0" y="45.0"/>
      <point x="815.0" y="0.0"/>
      <point x="885.0" y="0.0" type="curve" smooth="yes"/>
      <point x="965.0" y="0.0" type="line" smooth="yes"/>
      <point x="1022.0" y="0.0"/>
      <point x="1038.0" y="33.0"/>
      <point x="1038.0" y="63.0" type="curve" smooth="yes"/>
      <point x="1038.0" y="92.0"/>
      <point x="1022.0" y="127.0"/>
      <point x="967.0" y="127.0" type="curve" smooth="yes"/>
      <point x="965.0" y="127.0" type="line"/>
      <point x="795.0" y="1182.0" type="line" smooth="yes"/>
      <point x="786.0" y="1239.0"/>
      <point x="782.0" y="1276.0"/>
      <point x="702.0" y="1276.0" type="curve" smooth="yes"/>
      <point x="686.0" y="1276.0" type="line" smooth="yes"/>
      <point x="643.0" y="1276.0"/>
      <point x="608.0" y="1270.0"/>
      <point x="598.0" y="1196.0" type="curve" smooth="yes"/>
      <point x="506.0" y="623.0" type="line" smooth="yes"/>
      <point x="502.0" y="600.0"/>
      <point x="498.0" y="578.0"/>
      <point x="496.84" y="563.5" type="curve" smooth="yes"/>
      <point x="496.3948" y="557.935"/>
      <point x="491.0492331866669" y="553.0"/>
      <point x="485.46645358865305" y="553.0" type="curve" smooth="yes"/>
      <point x="271.0" y="553.0" type="line" smooth="yes"/>
      <point x="245.56" y="553.0"/>
      <point x="223.0" y="575.56"/>
      <point x="223.0" y="601.0" type="curve" smooth="yes"/>
      <point x="223.0" y="1124.0" type="line"/>
      <point x="229.0" y="1124.0" type="line" smooth="yes"/>
      <point x="250.0" y="1124.0"/>
      <point x="301.0" y="1128.0"/>
      <point x="301.0" y="1190.0" type="curve" smooth="yes"/>
      <point x="301.0" y="1221.0"/>
      <point x="283.0" y="1251.0"/>
      <point x="231.0" y="1251.0" type="curve" smooth="yes"/>
      <point x="74.0" y="1251.0" type="line" smooth="yes"/>
      <point x="51.0" y="1251.0"/>
      <point x="0.0" y="1247.0"/>
      <point x="0.0" y="1188.0" type="curve" smooth="yes"/>
      <point x="0.0" y="1137.0"/>
      <point x="35.0" y="1124.0"/>
      <point x="61.1" y="1124.0" type="curve" smooth="yes"/>
      <point x="71.117" y="1124.0"/>
      <point x="80.0" y="1115.117"/>
      <point x="80.0" y="1105.1" type="curve" smooth="yes"/>
      <point x="80.0" y="127.0" type="line"/>
      <point x="72.0" y="127.0" type="line" smooth="yes"/>
      <point x="51.0" y="127.0"/>
      <point x="0.0" y="121.0"/>
    </contour>
    <contour>
      <point x="685.0" y="553.0" type="line" smooth="yes"/>
      <point x="659.56" y="553.0"/>
      <point x="640.1035424559569" y="575.34550568289"/>
      <point x="643.603281821185" y="600.543629112532" type="curve" smooth="yes"/>
      <point x="662.0" y="733.0"/>
      <point x="688.0" y="911.0"/>
      <point x="696.0" y="1108.0" type="curve"/>
      <point x="696.0" y="932.0"/>
      <point x="743.0" y="639.0"/>
      <point x="749.38" y="589.12" type="curve" smooth="yes"/>
      <point x="751.8286" y="569.9764"/>
      <point x="736.8852947755446" y="553.0"/>
      <point x="717.5857335649886" y="553.0" type="curve" smooth="yes"/>
    </contour>
  </outline>
</glyph>
<glyph name="uni048E" format="2">
  <advance width="1228"/>
  <unicode hex="048E"/>
  <outline>
    <contour>
      <point x="51.0" y="63.0" type="curve" smooth="yes"/>
      <point x="51.0" y="10.0"/>
      <point x="90.0" y="0.0"/>
      <point x="127.0" y="0.0" type="curve" smooth="yes"/>
      <point x="410.0" y="0.0" type="line" smooth="yes"/>
      <point x="475.0" y="0.0"/>
      <point x="485.0" y="37.0"/>
      <point x="485.0" y="61.0" type="curve" smooth="yes"/>
      <point x="485.0" y="121.0"/>
      <point x="440.0" y="127.0"/>
      <point x="408.0" y="127.0" type="curve" smooth="yes"/>
      <point x="368.56" y="127.0" type="line" smooth="yes"/>
      <point x="353.4232" y="127.0"/>
      <point x="340.0" y="140.4232"/>
      <point x="340.0" y="155.56" type="curve" smooth="yes"/>
      <point x="340.0" y="452.0" type="line" smooth="yes"/>
      <point x="340.0" y="477.44"/>
      <point x="362.56" y="500.0"/>
      <point x="388.0" y="500.0" type="curve" smooth="yes"/>
      <point x="610.0" y="500.0" type="line" smooth="yes"/>
      <point x="674.0" y="500.0"/>
      <point x="692.0" y="512.0"/>
      <point x="707.0" y="512.0" type="curve" smooth="yes"/>
      <point x="743.0" y="512.0"/>
      <point x="856.0" y="385.0"/>
      <point x="911.0" y="385.0" type="curve" smooth="yes"/>
      <point x="946.0" y="385.0"/>
      <point x="975.0" y="420.0"/>
      <point x="975.0" y="449.0" type="curve" smooth="yes"/>
      <point x="975.0" y="475.0"/>
      <point x="956.0" y="500.0"/>
      <point x="840.0" y="580.0" type="curve"/>
      <point x="840.0" y="582.0" type="line"/>
      <point x="934.0" y="651.0"/>
      <point x="983.0" y="764.0"/>
      <point x="983.0" y="874.0" type="curve" smooth="yes"/>
      <point x="983.0" y="1053.0"/>
      <point x="850.0" y="1251.0"/>
      <point x="586.0" y="1251.0" type="curve" smooth="yes"/>
      <point x="125.0" y="1251.0" type="line" smooth="yes"/>
      <point x="66.0" y="1251.0"/>
      <point x="51.0" y="1217.0"/>
      <point x="51.0" y="1188.0" type="curve" smooth="yes"/>
      <point x="51.0" y="1130.0"/>
      <point x="94.0" y="1124.0"/>
      <point x="133.0" y="1124.0" type="curve" smooth="yes"/>
      <point x="170.12" y="1124.0" type="line" smooth="yes"/>
      <point x="184.3664" y="1124.0"/>
      <point x="197.0" y="1111.3663999999999"/>
      <point x="197.0" y="1097.12" type="curve" smooth="yes"/>
      <point x="197.0" y="158.07999999999998" type="line" smooth="yes"/>
      <point x="197.0" y="141.6076"/>
      <point x="182.3924" y="127.0"/>
      <point x="165.92000000000002" y="127.0" type="curve" smooth="yes"/>
      <point x="123.0" y="127.0" type="line" smooth="yes"/>
      <point x="104.0" y="127.0"/>
      <point x="51.0" y="121.0"/>
    </contour>
    <contour>
      <point x="388.0" y="625.0" type="line" smooth="yes"/>
      <point x="362.56" y="625.0"/>
      <point x="340.0" y="647.56"/>
      <point x="340.0" y="673.0" type="curve" smooth="yes"/>
      <point x="340.0" y="1076.0" type="line" smooth="yes"/>
      <point x="340.0" y="1101.44"/>
      <point x="362.56" y="1124.0"/>
      <point x="388.0" y="1124.0" type="curve" smooth="yes"/>
      <point x="551.0" y="1124.0" type="line" smooth="yes"/>
      <point x="764.0" y="1124.0"/>
      <point x="840.0" y="977.0"/>
      <point x="840.0" y="877.0" type="curve" smooth="yes"/>
      <point x="840.0" y="795.0"/>
      <point x="799.0" y="725.0"/>
      <point x="723.0" y="670.0" type="curve"/>
      <point x="721.0" y="670.0" type="line"/>
      <point x="643.0" y="727.0"/>
      <point x="629.0" y="741.0"/>
      <point x="606.0" y="741.0" type="curve" smooth="yes"/>
      <point x="578.0" y="741.0"/>
      <point x="543.0" y="715.0"/>
      <point x="543.0" y="678.0" type="curve" smooth="yes"/>
      <point x="543.0" y="662.0"/>
      <point x="551.0" y="643.0"/>
      <point x="561.44" y="632.56" type="curve" smooth="yes"/>
      <point x="565.4468" y="628.5532"/>
      <point x="563.9750163701759" y="625.0"/>
      <point x="558.3085454684594" y="625.0" type="curve" smooth="yes"/>
    </contour>
  </outline>
</glyph>
<glyph name="uni0496" format="2">
  <advance width="1228"/>
  <unicode hex="0496"/>
  <outline>
    <contour>
      <point x="0.0" y="63.0" type="curve" smooth="yes"/>
      <point x="0.0" y="37.0"/>
      <point x="14.0" y="0.0"/>
      <point x="68.0" y="0.0" type="curve" smooth="yes"/>
      <point x="172.0" y="0.0" type="line" smooth="yes"/>
      <point x="199.0" y="0.0"/>
      <point x="248.0" y="4.0"/>
      <point x="248.0" y="63.0" type="curve" smooth="yes"/>
      <point x="248.0" y="100.0"/>
      <point x="221.0" y="121.0"/>
      <point x="205.92" y="124.48" type="curve" smooth="yes"/>
      <point x="200.1324" y="125.8156"/>
      <point x="196.86207320954486" y="131.92717124548105"/>
      <point x="198.96185789264862" y="137.4833430754916" type="curve" smooth="yes"/>
      <point x="361.6446713643841" y="567.9530349023872" type="line" smooth="yes"/>
      <point x="367.66299554126056" y="583.877926404122"/>
      <point x="379.909" y="584.5768"/>
      <point x="387.7" y="569.44" type="curve" smooth="yes"/>
      <point x="408.0" y="530.0"/>
      <point x="446.0" y="469.0"/>
      <point x="477.0" y="399.0" type="curve"/>
      <point x="479.0" y="365.0" type="line"/>
      <point x="479.0" y="127.0" type="line"/>
      <point x="471.0" y="127.0" type="line" smooth="yes"/>
      <point x="449.0" y="127.0"/>
      <point x="397.0" y="123.0"/>
      <point x="397.0" y="61.0" type="curve" smooth="yes"/>
      <point x="397.0" y="4.0"/>
      <point x="444.0" y="0.0"/>
      <point x="475.0" y="0.0" type="curve" smooth="yes"/>
      <point x="604.0" y="0.0" type="line" smooth="yes"/>
      <point x="629.0" y="0.0"/>
      <point x="678.0" y="4.0"/>
      <point x="678.0" y="63.0" type="curve" smooth="yes"/>
      <point x="678.0" y="125.0"/>
      <point x="627.0" y="127.0"/>
      <point x="609.02" y="127.0" type="curve" smooth="yes"/>
      <point x="602.1194" y="127.0"/>
      <point x="596.0" y="133.1194"/>
      <point x="596.0" y="140.02" type="curve" smooth="yes"/>
      <point x="596.0" y="365.0" type="line"/>
      <point x="598.0" y="401.0" type="line"/>
      <point x="610.0" y="430.0" type="line"/>
      <point x="677.3333721992599" y="555.6889614386184" type="line" smooth="yes"/>
      <point x="689.3466849336521" y="578.1138118761506"/>
      <point x="708.0144951578278" y="576.9115797802407"/>
      <point x="717.0521173570805" y="553.1310208090227" type="curve" smooth="yes"/>
      <point x="874.2230763647456" y="139.56944710728948" type="line" smooth="yes"/>
      <point x="876.7548458914304" y="132.90764014042605"/>
      <point x="872.8806" y="125.4208"/>
      <point x="865.98" y="123.64" type="curve" smooth="yes"/>
      <point x="848.0" y="119.0"/>
      <point x="825.0" y="98.0"/>
      <point x="825.0" y="63.0" type="curve" smooth="yes"/>
      <point x="825.0" y="12.0"/>
      <point x="862.0" y="0.0"/>
      <point x="903.0" y="0.0" type="curve" smooth="yes"/>
      <point x="934.9" y="0.0" type="line" smooth="yes"/>
      <point x="947.143" y="0.0"/>
      <point x="958.0" y="-10.856999999999998"/>
      <point x="958.0" y="-23.099999999999998" type="curve" smooth="yes"/>
      <point x="958.0" y="-268.0" type="line" smooth="yes"/>
      <point x="958.0" y="-330.0"/>
      <point x="995.0" y="-340.0"/>
      <point x="1018.0" y="-340.0" type="curve" smooth="yes"/>
      <point x="1067.0" y="-340.0"/>
      <point x="1075.0" y="-297.0"/>
      <point x="1075.0" y="-262.0" type="curve" smooth="yes"/>
      <point x="1075.0" y="47.0" type="line" smooth="yes"/>
      <point x="1075.0" y="47.74131393432617"/>
      <point x="1075.0013427734375" y="48.495697021484375"/>
      <point x="1075.002685546875" y="49.26203155517578" type="curve" smooth="yes"/>
      <point x="1075.05322265625" y="78.47441864013672"/>
      <point x="1075.1339111328125" y="125.0511245727539"/>
      <point x="1033.8762426757812" y="126.18147232055664" type="curve" smooth="yes"/>
      <point x="1018.0418340576172" y="126.61529199066162"/>
      <point x="999.0155223140445" y="140.1330151203872"/>
      <point x="993.3947283277541" y="154.94258536252593" type="curve" smooth="yes"/>
      <point x="791.0323324432854" y="688.1235066929088" type="line" smooth="yes"/>
      <point x="782.0051962483442" y="711.9080481456672"/>
      <point x="784.6349536194382" y="752.8960137090925"/>
      <point x="796.6275608924217" y="775.331944061899" type="curve" smooth="yes"/>
      <point x="976.0703094766958" y="1111.0358421310434" type="line" smooth="yes"/>
      <point x="979.743045454047" y="1117.9068458015904"/>
      <point x="989.909" y="1124.0"/>
      <point x="997.7" y="1124.0" type="curve" smooth="yes"/>
      <point x="1018.0" y="1124.0"/>
      <point x="1061.0" y="1130.0"/>
      <point x="1061.0" y="1190.0" type="curve" smooth="yes"/>
      <point x="1061.0" y="1221.0"/>
      <point x="1040.0" y="1251.0"/>
      <point x="993.0" y="1251.0" type="curve" smooth="yes"/>
      <point x="870.0" y="1251.0" type="line" smooth="yes"/>
      <point x="807.0" y="1251.0"/>
      <point x="797.0" y="1212.0"/>
      <point x="797.0" y="1188.0" type="curve" smooth="yes"/>
      <point x="797.0" y="1159.0"/>
      <point x="815.0" y="1130.0"/>
      <point x="836.46" y="1126.52" type="curve" smooth="yes"/>
      <point x="844.6962" y="1125.1844"/>
      <point x="848.489583278521" y="1117.4865314738183"/>
      <point x="844.5310282521723" y="1110.1415563272728" type="curve" smooth="yes"/>
      <point x="618.7727040167496" y="691.2540406560782" type="line" smooth="yes"/>
      <point x="606.7031708878723" y="668.8593991083568"/>
      <point x="596.0" y="671.56"/>
      <point x="596.0" y="697.0" type="curve" smooth="yes"/>
      <point x="596.0" y="1124.0" type="line"/>
      <point x="604.0" y="1124.0" type="line" smooth="yes"/>
      <point x="629.0" y="1124.0"/>
      <point x="678.0" y="1128.0"/>
      <point x="678.0" y="1192.0" type="curve" smooth="yes"/>
      <point x="678.0" y="1221.0"/>
      <point x="659.0" y="1251.0"/>
      <point x="604.0" y="1251.0" type="curve" smooth="yes"/>
      <point x="469.0" y="1251.0" type="line" smooth="yes"/>
      <point x="408.0" y="1251.0"/>
      <point x="397.0" y="1210.0"/>
      <point x="397.0" y="1186.0" type="curve" smooth="yes"/>
      <point x="397.0" y="1126.0"/>
      <point x="449.0" y="1124.0"/>
      <point x="466.4" y="1124.0" type="curve" smooth="yes"/>
      <point x="473.078" y="1124.0"/>
      <point x="479.0" y="1118.078"/>
      <point x="479.0" y="1111.4" type="curve" smooth="yes"/>
      <point x="479.0" y="695.0" type="line" smooth="yes"/>
      <point x="479.0" y="669.56"/>
      <point x="468.3316542275533" y="666.8781286463168"/>
      <point x="456.30139197351764" y="689.2938907368441" type="curve" smooth="yes"/>
      <point x="226.46862378616092" y="1117.5369783359424" type="line" smooth="yes"/>
      <point x="224.63025317949564" y="1120.962379817893"/>
      <point x="226.3558" y="1124.7896"/>
      <point x="230.14" y="1125.68" type="curve" smooth="yes"/>
      <point x="240.0" y="1128.0"/>
      <point x="276.0" y="1139.0"/>
      <point x="276.0" y="1188.0" type="curve" smooth="yes"/>
      <point x="276.0" y="1221.0"/>
      <point x="260.0" y="1251.0"/>
      <point x="205.0" y="1251.0" type="curve" smooth="yes"/>
      <point x="82.0" y="1251.0" type="line" smooth="yes"/>
      <point x="39.0" y="1251.0"/>
      <point x="12.0" y="1227.0"/>
      <point x="12.0" y="1186.0" type="curve" smooth="yes"/>
      <point x="12.0" y="1149.0"/>
      <point x="41.0" y="1124.0"/>
      <point x="82.0" y="1124.0" type="curve" smooth="yes"/>
      <point x="87.8" y="1124.0" type="line" smooth="yes"/>
      <point x="90.026" y="1124.0"/>
      <point x="92.93055844170084" y="1122.2590988004545"/>
      <point x="93.9799115780869" y="1120.295954894584" type="curve" smooth="yes"/>
      <point x="278.37243910757826" y="775.331944061899" type="line" smooth="yes"/>
      <point x="290.3650463805618" y="752.8960137090925"/>
      <point x="293.02525154246734" y="711.8965171822497"/>
      <point x="284.032450090356" y="688.0989727281909" type="curve" smooth="yes"/>
      <point x="72.0" y="127.0" type="line"/>
      <point x="70.0" y="127.0" type="line" smooth="yes"/>
      <point x="25.0" y="127.0"/>
      <point x="0.0" y="102.0"/>
    </contour>
  </outline>
</glyph>
<glyph name="uni049D" format="2">
  <advance width="1228"/>
  <unicode hex="049D"/>
  <outline>
    <contour>
      <point x="25.0" y="63.0" type="curve" smooth="yes"/>
      <point x="25.0" y="10.0"/>
      <point x="61.0" y="0.0"/>
      <point x="102.0" y="0.0" type="curve" smooth="yes"/>
      <point x="369.0" y="0.0" type="line" smooth="yes"/>
      <point x="403.0" y="0.0"/>
      <point x="442.0" y="10.0"/>
      <point x="442.0" y="63.0" type="curve" smooth="yes"/>
      <point x="442.0" y="119.0"/>
      <point x="403.0" y="127.0"/>
      <point x="362.0" y="127.0" type="curve" smooth="yes"/>
      <point x="320.82" y="127.0" type="line" smooth="yes"/>
      <point x="305.0154" y="127.0"/>
      <point x="291.0" y="141.0154"/>
      <point x="291.0" y="156.82" type="curve" smooth="yes"/>
      <point x="291.0" y="427.0" type="line" smooth="yes"/>
      <point x="291.0" y="452.44"/>
      <point x="313.56" y="475.0"/>
      <point x="339.0" y="475.0" type="curve" smooth="yes"/>
      <point x="379.56" y="475.0" type="line" smooth="yes"/>
      <point x="397.8132" y="475.0"/>
      <point x="414.0" y="458.8132"/>
      <point x="414.0" y="440.56" type="curve" smooth="yes"/>
      <point x="414.0" y="393.0" type="line" smooth="yes"/>
      <point x="414.0" y="365.0"/>
      <point x="414.0" y="311.0"/>
      <point x="475.0" y="311.0" type="curve" smooth="yes"/>
      <point x="498.0" y="311.0"/>
      <point x="520.0" y="322.0"/>
      <point x="532.0" y="346.0" type="curve" smooth="yes"/>
      <point x="537.7489013671875" y="357.49774169921875"/>
      <point x="537.4274291992188" y="372.3678894042969"/>
      <point x="537.1288452148438" y="386.17901611328125" type="curve" smooth="yes"/>
      <point x="537.0639038085938" y="389.1847229003906"/>
      <point x="537.0" y="392.1402893066406"/>
      <point x="537.0" y="395.0" type="curve" smooth="yes"/>
      <point x="537.0" y="459.04" type="line" smooth="yes"/>
      <point x="537.0" y="467.4988"/>
      <point x="544.5012" y="475.0"/>
      <point x="552.96" y="475.0" type="curve" smooth="yes"/>
      <point x="559.04" y="475.0" type="line" smooth="yes"/>
      <point x="567.4988" y="475.0"/>
      <point x="578.9821938195543" y="468.64310344401423"/>
      <point x="583.4727528075623" y="461.4746881787537" type="curve" smooth="yes"/>
      <point x="786.0880174464623" y="138.03380701206933" type="line" smooth="yes"/>
      <point x="789.7513681998373" y="132.18588929567258"/>
      <point x="786.8806" y="127.0"/>
      <point x="779.98" y="127.0" type="curve" smooth="yes"/>
      <point x="762.0" y="127.0" type="line" smooth="yes"/>
      <point x="702.0" y="127.0"/>
      <point x="688.0" y="92.0"/>
      <point x="688.0" y="59.0" type="curve" smooth="yes"/>
      <point x="688.0" y="31.0"/>
      <point x="709.0" y="0.0"/>
      <point x="760.0" y="0.0" type="curve" smooth="yes"/>
      <point x="975.0" y="0.0" type="line" smooth="yes"/>
      <point x="1032.0" y="0.0"/>
      <point x="1047.0" y="33.0"/>
      <point x="1047.0" y="63.0" type="curve" smooth="yes"/>
      <point x="1047.0" y="86.0"/>
      <point x="1036.0" y="127.0"/>
      <point x="973.0" y="127.0" type="curve" smooth="yes"/>
      <point x="957.34" y="127.0" type="line" smooth="yes"/>
      <point x="951.3298" y="127.0"/>
      <point x="943.1771942286925" y="131.52089986810958"/>
      <point x="939.9940302738139" y="136.61893588959487" type="curve" smooth="yes"/>
      <point x="690.0" y="537.0" type="line"/>
      <point x="690.0" y="539.0" type="line"/>
      <point x="860.823578866381" y="737.2284310909341" type="line" smooth="yes"/>
      <point x="869.3970820671991" y="747.177362612739"/>
      <point x="888.6466" y="756.0"/>
      <point x="901.78" y="756.0" type="curve" smooth="yes"/>
      <point x="936.0" y="756.0" type="line" smooth="yes"/>
      <point x="954.0" y="756.0"/>
      <point x="1008.0" y="758.0"/>
      <point x="1008.0" y="817.0" type="curve" smooth="yes"/>
      <point x="1008.0" y="868.0"/>
      <point x="973.0" y="881.0"/>
      <point x="936.0" y="881.0" type="curve" smooth="yes"/>
      <point x="696.0" y="881.0" type="line" smooth="yes"/>
      <point x="631.0" y="881.0"/>
      <point x="621.0" y="844.0"/>
      <point x="621.0" y="819.0" type="curve" smooth="yes"/>
      <point x="621.0" y="791.0"/>
      <point x="633.0" y="756.0"/>
      <point x="694.0" y="756.0" type="curve" smooth="yes"/>
      <point x="711.98" y="756.0" type="line" smooth="yes"/>
      <point x="718.8806" y="756.0"/>
      <point x="720.9205545630359" y="751.4387302988276"/>
      <point x="716.3203288575234" y="746.2951708485693" type="curve" smooth="yes"/>
      <point x="598.0" y="614.0"/>
      <point x="606.0" y="600.0"/>
      <point x="565.0" y="598.0" type="curve"/>
      <point x="548.76" y="598.0" type="line" smooth="yes"/>
      <point x="542.5272" y="598.0"/>
      <point x="537.0" y="603.5272"/>
      <point x="537.0" y="609.76" type="curve" smooth="yes"/>
      <point x="537.0" y="670.0" type="line" smooth="yes"/>
      <point x="537.0" y="670.8812255859375"/>
      <point x="537.0095825195312" y="671.8679809570312"/>
      <point x="537.0200805664062" y="672.9476928710938" type="curve" smooth="yes"/>
      <point x="537.223876953125" y="693.9221801757812"/>
      <point x="537.768798828125" y="750.0"/>
      <point x="475.0" y="750.0" type="curve" smooth="yes"/>
      <point x="418.0" y="750.0"/>
      <point x="414.0" y="705.0"/>
      <point x="414.0" y="672.0" type="curve" smooth="yes"/>
      <point x="414.0" y="629.08" type="line" smooth="yes"/>
      <point x="414.0" y="612.6076"/>
      <point x="399.3924" y="598.0"/>
      <point x="382.92" y="598.0" type="curve" smooth="yes"/>
      <point x="339.0" y="598.0" type="line" smooth="yes"/>
      <point x="313.56" y="598.0"/>
      <point x="291.0" y="620.56"/>
      <point x="291.0" y="646.0" type="curve" smooth="yes"/>
      <point x="291.0" y="722.4" type="line" smooth="yes"/>
      <point x="291.0" y="740.208"/>
      <point x="306.79200000000003" y="756.0"/>
      <point x="324.6" y="756.0" type="curve" smooth="yes"/>
      <point x="371.0" y="756.0" type="line" smooth="yes"/>
      <point x="391.0" y="756.0"/>
      <point x="442.0" y="760.0"/>
      <point x="442.0" y="817.0" type="curve" smooth="yes"/>
      <point x="442.0" y="868.0"/>
      <point x="408.0" y="881.0"/>
      <point x="369.0" y="881.0" type="curve" smooth="yes"/>
      <point x="96.0" y="881.0" type="line" smooth="yes"/>
      <point x="76.0" y="881.0"/>
      <point x="25.0" y="877.0"/>
      <point x="25.0" y="819.0" type="curve" smooth="yes"/>
      <point x="25.0" y="764.0"/>
      <point x="61.0" y="756.0"/>
      <point x="104.0" y="756.0" type="curve" smooth="yes"/>
      <point x="145.76" y="756.0" type="line" smooth="yes"/>
      <point x="161.78719999999998" y="756.0"/>
      <point x="176.0" y="741.7872"/>
      <point x="176.0" y="725.76" type="curve" smooth="yes"/>
      <point x="176.0" y="160.6" type="line" smooth="yes"/>
      <point x="176.0" y="142.792"/>
      <point x="160.208" y="127.0"/>
      <point x="142.4" y="127.0" type="curve" smooth="yes"/>
      <point x="96.0" y="127.0" type="line" smooth="yes"/>
      <point x="76.0" y="127.0"/>
      <point x="25.0" y="123.0"/>
    </contour>
  </outline>
</glyph>
<glyph name="uni04A0" format="2">
  <advance width="1228"/>
  <unicode hex="04A0"/>
  <outline>
    <contour>
      <point x="41.0" y="1001.0" type="line" smooth="yes"/>
      <point x="41.0" y="946.0"/>
      <point x="76.0" y="932.0"/>
      <point x="106.0" y="932.0" type="curve" smooth="yes"/>
      <point x="117.0" y="932.0" type="line" smooth="yes"/>
      <point x="170.0" y="932.0"/>
      <point x="184.0" y="965.0"/>
      <point x="184.0" y="1006.0" type="curve" smooth="yes"/>
      <point x="184.0" y="1076.0" type="line" smooth="yes"/>
      <point x="184.0" y="1101.44"/>
      <point x="206.56" y="1124.0"/>
      <point x="232.0" y="1124.0" type="curve" smooth="yes"/>
      <point x="304.0" y="1124.0" type="line" smooth="yes"/>
      <point x="329.44" y="1124.0"/>
      <point x="352.0" y="1101.44"/>
      <point x="352.0" y="1076.0" type="curve" smooth="yes"/>
      <point x="352.0" y="138.76" type="line" smooth="yes"/>
      <point x="352.0" y="132.5272"/>
      <point x="346.4728" y="127.0"/>
      <point x="340.24" y="127.0" type="curve" smooth="yes"/>
      <point x="324.0" y="127.0" type="line" smooth="yes"/>
      <point x="262.0" y="127.0"/>
      <point x="250.0" y="88.0"/>
      <point x="250.0" y="63.0" type="curve" smooth="yes"/>
      <point x="250.0" y="37.0"/>
      <point x="262.0" y="2.0"/>
      <point x="322.0" y="0.0" type="curve" smooth="yes"/>
      <point x="498.0" y="0.0" type="line" smooth="yes"/>
      <point x="559.0" y="0.0"/>
      <point x="571.0" y="39.0"/>
      <point x="571.0" y="61.0" type="curve" smooth="yes"/>
      <point x="571.0" y="92.0"/>
      <point x="557.0" y="127.0"/>
      <point x="498.0" y="127.0" type="curve" smooth="yes"/>
      <point x="481.18" y="127.0" type="line" smooth="yes"/>
      <point x="474.7246" y="127.0"/>
      <point x="469.0" y="132.7246"/>
      <point x="469.0" y="139.18" type="curve" smooth="yes"/>
      <point x="469.0" y="365.0" type="line"/>
      <point x="470.16" y="384.72" type="line" smooth="yes"/>
      <point x="470.6052" y="392.2884"/>
      <point x="474.0835488749849" y="404.97437594528327"/>
      <point x="477.56074228720195" y="411.71143818145373" type="curve" smooth="yes"/>
      <point x="487.0" y="430.0" type="line"/>
      <point x="576.3599484808666" y="571.4218315088497" type="line" smooth="yes"/>
      <point x="589.9491757860073" y="592.9282608091594"/>
      <point x="611.0715084335587" y="591.3442178860283"/>
      <point x="621.3010817735292" y="568.0515274170815" type="curve" smooth="yes"/>
      <point x="805.7113543964891" y="148.15020243052953" type="line" smooth="yes"/>
      <point x="810.6343365663499" y="136.94059514234888"/>
      <point x="804.143" y="127.0"/>
      <point x="791.9" y="127.0" type="curve" smooth="yes"/>
      <point x="760.0" y="127.0"/>
      <point x="748.0" y="86.0"/>
      <point x="748.0" y="61.0" type="curve" smooth="yes"/>
      <point x="748.0" y="31.0"/>
      <point x="766.0" y="2.0"/>
      <point x="817.0" y="0.0" type="curve" smooth="yes"/>
      <point x="950.0" y="0.0" type="line" smooth="yes"/>
      <point x="1016.0" y="0.0"/>
      <point x="1026.0" y="37.0"/>
      <point x="1026.0" y="61.0" type="curve" smooth="yes"/>
      <point x="1026.0" y="117.0"/>
      <point x="989.0" y="127.0"/>
      <point x="946.0" y="127.0" type="curve" smooth="yes"/>
      <point x="940.0" y="127.0" type="line"/>
      <point x="932.0" y="147.0"/>
      <point x="922.0" y="168.0"/>
      <point x="913.0" y="188.0" type="curve" smooth="yes"/>
      <point x="686.0" y="711.0" type="line"/>
      <point x="684.0" y="715.0"/>
      <point x="682.0" y="721.0"/>
      <point x="682.0" y="727.0" type="curve" smooth="yes"/>
      <point x="682.0" y="772.0"/>
      <point x="750.0" y="836.0"/>
      <point x="915.0372383699183" y="1118.9209800627173" type="curve" smooth="yes"/>
      <point x="916.6075020338616" y="1121.6128606294772"/>
      <point x="920.7636" y="1124.0"/>
      <point x="923.88" y="1124.0" type="curve" smooth="yes"/>
      <point x="932.0" y="1124.0" type="line" smooth="yes"/>
      <point x="965.0" y="1124.0"/>
      <point x="1012.0" y="1128.0"/>
      <point x="1012.0" y="1188.0" type="curve" smooth="yes"/>
      <point x="1012.0" y="1239.0"/>
      <point x="975.0" y="1251.0"/>
      <point x="932.0" y="1251.0" type="curve" smooth="yes"/>
      <point x="782.0" y="1251.0" type="line" smooth="yes"/>
      <point x="725.0" y="1251.0"/>
      <point x="711.0" y="1214.0"/>
      <point x="711.0" y="1186.0" type="curve" smooth="yes"/>
      <point x="711.0" y="1155.0"/>
      <point x="733.0" y="1124.0"/>
      <point x="760.26" y="1124.0" type="curve" smooth="yes"/>
      <point x="770.7222" y="1124.0"/>
      <point x="775.1209086277802" y="1116.108736462294"/>
      <point x="769.6189545271918" y="1107.2100775793488" type="curve" smooth="yes"/>
      <point x="494.24266376366745" y="661.8265590775715" type="line" smooth="yes"/>
      <point x="480.8640519689237" y="640.1884827664586"/>
      <point x="469.0" y="643.56"/>
      <point x="469.0" y="669.0" type="curve" smooth="yes"/>
      <point x="469.0" y="1111.82" type="line" smooth="yes"/>
      <point x="469.0" y="1118.2754"/>
      <point x="474.7246" y="1124.0"/>
      <point x="481.18" y="1124.0" type="curve" smooth="yes"/>
      <point x="498.0" y="1124.0" type="line" smooth="yes"/>
      <point x="559.0" y="1124.0"/>
      <point x="571.0" y="1163.0"/>
      <point x="571.0" y="1188.0" type="curve" smooth="yes"/>
      <point x="571.0" y="1221.0"/>
      <point x="553.0" y="1251.0"/>
      <point x="496.0" y="1251.0" type="curve" smooth="yes"/>
      <point x="117.0" y="1251.0" type="line" smooth="yes"/>
      <point x="88.0" y="1251.0"/>
      <point x="41.0" y="1251.0"/>
      <point x="41.0" y="1176.0" type="curve" smooth="yes"/>
    </contour>
  </outline>
</glyph>
<glyph name="uni04A1" format="2">
  <advance width="1228"/>
  <unicode hex="04A1"/>
  <outline>
    <contour>
      <point x="39.0" y="692.0" type="line" smooth="yes"/>
      <point x="39.0" y="668.0"/>
      <point x="41.0" y="616.0"/>
      <point x="106.0" y="616.0" type="curve" smooth="yes"/>
      <point x="109.0" y="616.0" type="line" smooth="yes"/>
      <point x="182.68565368652344" y="616.0"/>
      <point x="182.19427490234375" y="672.7774658203125"/>
      <point x="182.0154571533203" y="693.4395751953125" type="curve" smooth="yes"/>
      <point x="182.00741577148438" y="694.368896484375"/>
      <point x="182.0" y="695.2252197265625"/>
      <point x="182.0" y="696.0" type="curve" smooth="yes"/>
      <point x="182.0" y="730.8" type="line" smooth="yes"/>
      <point x="182.0" y="744.156"/>
      <point x="193.844" y="756.0"/>
      <point x="207.2" y="756.0" type="curve" smooth="yes"/>
      <point x="296.0" y="756.0" type="line" smooth="yes"/>
      <point x="321.44" y="756.0"/>
      <point x="344.0" y="733.44"/>
      <point x="344.0" y="708.0" type="curve" smooth="yes"/>
      <point x="344.0" y="154.3" type="line" smooth="yes"/>
      <point x="344.0" y="139.83100000000002"/>
      <point x="331.169" y="127.0"/>
      <point x="316.7" y="127.0" type="curve" smooth="yes"/>
      <point x="279.0" y="127.0" type="line" smooth="yes"/>
      <point x="244.0" y="127.0"/>
      <point x="199.0" y="121.0"/>
      <point x="199.0" y="63.0" type="curve" smooth="yes"/>
      <point x="199.0" y="37.0"/>
      <point x="211.0" y="0.0"/>
      <point x="272.0" y="0.0" type="curve" smooth="yes"/>
      <point x="528.0" y="0.0" type="line" smooth="yes"/>
      <point x="565.0" y="0.0"/>
      <point x="604.0" y="10.0"/>
      <point x="604.0" y="63.0" type="curve" smooth="yes"/>
      <point x="604.0" y="117.0"/>
      <point x="565.0" y="127.0"/>
      <point x="524.0" y="127.0" type="curve" smooth="yes"/>
      <point x="486.3" y="127.0" type="line" smooth="yes"/>
      <point x="471.831" y="127.0"/>
      <point x="459.0" y="139.83100000000002"/>
      <point x="459.0" y="154.3" type="curve" smooth="yes"/>
      <point x="459.0" y="264.0" type="line" smooth="yes"/>
      <point x="459.0" y="291.0"/>
      <point x="459.0" y="301.0"/>
      <point x="554.3209564904575" y="397.79880077713136" type="curve" smooth="yes"/>
      <point x="572.1708495505151" y="415.92543636525176"/>
      <point x="600.2840317084213" y="413.0776279238965"/>
      <point x="614.1362376774921" y="391.7396338806309" type="curve" smooth="yes"/>
      <point x="786.0" y="127.0" type="line"/>
      <point x="778.0" y="127.0" type="line" smooth="yes"/>
      <point x="748.0" y="127.0"/>
      <point x="698.0" y="123.0"/>
      <point x="698.0" y="63.0" type="curve" smooth="yes"/>
      <point x="698.0" y="39.0"/>
      <point x="709.0" y="0.0"/>
      <point x="772.0" y="0.0" type="curve" smooth="yes"/>
      <point x="973.0" y="0.0" type="line" smooth="yes"/>
      <point x="1030.0" y="0.0"/>
      <point x="1047.0" y="31.0"/>
      <point x="1047.0" y="63.0" type="curve" smooth="yes"/>
      <point x="1047.0" y="86.0"/>
      <point x="1036.0" y="127.0"/>
      <point x="975.0" y="127.0" type="curve" smooth="yes"/>
      <point x="954.0" y="127.0" type="line" smooth="yes"/>
      <point x="932.0" y="127.0"/>
      <point x="926.0" y="129.0"/>
      <point x="918.0" y="141.0" type="curve"/>
      <point x="915.0" y="143.0"/>
      <point x="678.0" y="508.0"/>
      <point x="670.0" y="520.0" type="curve"/>
      <point x="670.0" y="522.0" type="line"/>
      <point x="852.0" y="721.0" type="line" smooth="yes"/>
      <point x="885.0" y="756.0"/>
      <point x="881.0" y="756.0"/>
      <point x="922.0" y="756.0" type="curve" smooth="yes"/>
      <point x="932.0" y="756.0" type="line" smooth="yes"/>
      <point x="961.0" y="756.0"/>
      <point x="1012.0" y="760.0"/>
      <point x="1012.0" y="819.0" type="curve" smooth="yes"/>
      <point x="1012.0" y="844.0"/>
      <point x="999.0" y="881.0"/>
      <point x="938.0" y="881.0" type="curve" smooth="yes"/>
      <point x="725.0" y="881.0" type="line" smooth="yes"/>
      <point x="666.0" y="881.0"/>
      <point x="651.0" y="850.0"/>
      <point x="651.0" y="819.0" type="curve" smooth="yes"/>
      <point x="651.0" y="797.0"/>
      <point x="659.0" y="756.0"/>
      <point x="721.0" y="756.0" type="curve" smooth="yes"/>
      <point x="725.0" y="756.0" type="line"/>
      <point x="491.3851319739339" y="500.4288473850179" type="line" smooth="yes"/>
      <point x="474.22101202774894" y="481.6515582709584"/>
      <point x="459.0" y="487.56"/>
      <point x="459.0" y="513.0" type="curve" smooth="yes"/>
      <point x="459.0" y="726.18" type="line" smooth="yes"/>
      <point x="459.0" y="741.9846"/>
      <point x="473.0154" y="756.0"/>
      <point x="488.82" y="756.0" type="curve" smooth="yes"/>
      <point x="530.0" y="756.0" type="line" smooth="yes"/>
      <point x="551.0" y="756.0"/>
      <point x="604.0" y="758.0"/>
      <point x="604.0" y="819.0" type="curve" smooth="yes"/>
      <point x="604.0" y="842.0"/>
      <point x="594.0" y="881.0"/>
      <point x="532.0" y="881.0" type="curve" smooth="yes"/>
      <point x="111.0" y="881.0" type="line" smooth="yes"/>
      <point x="39.0" y="881.0"/>
      <point x="39.0" y="836.0"/>
      <point x="39.0" y="795.0" type="curve" smooth="yes"/>
    </contour>
  </outline>
</glyph>
<glyph name="uni04A9" format="2">
  <advance width="1228"/>
  <unicode hex="04A9"/>
  <outline>
    <contour>
      <point x="115.0" y="438.0" type="curve" smooth="yes"/>
      <point x="115.0" y="125.0"/>
      <point x="248.0" y="-6.0"/>
      <point x="480.00489720962355" y="-9.314355674423194" type="curve" smooth="yes"/>
      <point x="505.44230168852306" y="-9.6777471669789"/>
      <point x="538.0459073799906" y="-30.199835269443426"/>
      <point x="549.3742710212565" y="-52.97837291370942" type="curve" smooth="yes"/>
      <point x="621.0" y="-197.0"/>
      <point x="817.0" y="-215.0"/>
      <point x="897.0" y="-215.0" type="curve" smooth="yes"/>
      <point x="952.0" y="-215.0"/>
      <point x="965.0" y="-176.0"/>
      <point x="965.0" y="-152.0" type="curve" smooth="yes"/>
      <point x="965.0" y="-121.0"/>
      <point x="946.0" y="-98.0"/>
      <point x="920.0" y="-92.0" type="curve" smooth="yes"/>
      <point x="913.553955078125" y="-90.43731689453125"/>
      <point x="903.9791259765625" y="-89.79037475585938"/>
      <point x="892.0729370117188" y="-88.98591613769531" type="curve" smooth="yes"/>
      <point x="843.0267944335938" y="-85.67202758789062"/>
      <point x="754.4198608398438" y="-79.68513488769531"/>
      <point x="712.4163415527344" y="-31.14775665283203" type="curve" smooth="yes"/>
      <point x="696.2956805297852" y="-12.519445626831054"/>
      <point x="703.3123845266331" y="8.80008660509754"/>
      <point x="727.3454989928364" y="14.21295022361179" type="curve" smooth="yes"/>
      <point x="793.0" y="29.0"/>
      <point x="956.0" y="106.0"/>
      <point x="956.0" y="430.0" type="curve" smooth="yes"/>
      <point x="956.0" y="555.0"/>
      <point x="905.0" y="639.0"/>
      <point x="719.0" y="639.0" type="curve" smooth="yes"/>
      <point x="510.0" y="639.0"/>
      <point x="469.0" y="496.0"/>
      <point x="469.0" y="317.0" type="curve" smooth="yes"/>
      <point x="469.0" y="219.0"/>
      <point x="477.0" y="158.0"/>
      <point x="481.64" y="135.38" type="curve" smooth="yes"/>
      <point x="483.4208" y="126.6986"/>
      <point x="477.2134590535416" y="120.0639993839881"/>
      <point x="468.43289160328004" y="121.26382847657042" type="curve" smooth="yes"/>
      <point x="324.0" y="141.0"/>
      <point x="258.0" y="250.0"/>
      <point x="258.0" y="457.0" type="curve" smooth="yes"/>
      <point x="258.0" y="618.0"/>
      <point x="303.0" y="772.0"/>
      <point x="535.0" y="772.0" type="curve" smooth="yes"/>
      <point x="659.0" y="772.0"/>
      <point x="682.0" y="735.0"/>
      <point x="721.0" y="735.0" type="curve" smooth="yes"/>
      <point x="760.0" y="735.0"/>
      <point x="791.0" y="772.0"/>
      <point x="791.0" y="801.0" type="curve" smooth="yes"/>
      <point x="791.0" y="879.0"/>
      <point x="625.0" y="899.0"/>
      <point x="537.0" y="899.0" type="curve" smooth="yes"/>
      <point x="199.0" y="899.0"/>
      <point x="115.0" y="702.0"/>
    </contour>
    <contour>
      <point x="602.0" y="324.0" type="curve" smooth="yes"/>
      <point x="602.0" y="428.0"/>
      <point x="623.0" y="514.0"/>
      <point x="719.0" y="514.0" type="curve" smooth="yes"/>
      <point x="809.0" y="514.0"/>
      <point x="819.0" y="469.0"/>
      <point x="819.0" y="430.0" type="curve" smooth="yes"/>
      <point x="819.0" y="195.0"/>
      <point x="700.0" y="141.0"/>
      <point x="639.5722843971232" y="126.87404050841842" type="curve" smooth="yes"/>
      <point x="630.788973666648" y="124.82079903895665"/>
      <point x="620.8286" y="130.6986"/>
      <point x="618.38" y="139.38" type="curve" smooth="yes"/>
      <point x="612.0" y="162.0"/>
      <point x="602.0" y="205.0"/>
    </contour>
  </outline>
</glyph>
<glyph name="uni04B5" format="2">
  <advance width="1228"/>
  <unicode hex="04B5"/>
  <outline>
    <contour>
      <point x="8.0" y="700.0" type="line" smooth="yes"/>
      <point x="8.0" y="699.1671752929688"/>
      <point x="7.991436958312988" y="698.2315673828125"/>
      <point x="7.982036590576172" y="697.2045288085938" type="curve" smooth="yes"/>
      <point x="7.78826904296875" y="676.0338134765625"/>
      <point x="7.238801002502441" y="616.0"/>
      <point x="74.0" y="616.0" type="curve" smooth="yes"/>
      <point x="82.0" y="616.0" type="line" smooth="yes"/>
      <point x="152.46278381347656" y="616.0"/>
      <point x="152.2041778564453" y="663.1475830078125"/>
      <point x="152.01846313476562" y="697.0086059570312" type="curve" smooth="yes"/>
      <point x="152.00914001464844" y="698.7084350585938"/>
      <point x="152.0" y="700.3748168945312"/>
      <point x="152.0" y="702.0" type="curve" smooth="yes"/>
      <point x="152.0" y="733.32" type="line" smooth="yes"/>
      <point x="152.0" y="745.3404"/>
      <point x="162.6596" y="756.0"/>
      <point x="174.68" y="756.0" type="curve" smooth="yes"/>
      <point x="205.36" y="756.0" type="line" smooth="yes"/>
      <point x="225.8392" y="756.0"/>
      <point x="244.0" y="737.8392"/>
      <point x="244.0" y="717.36" type="curve" smooth="yes"/>
      <point x="244.0" y="155.56" type="line" smooth="yes"/>
      <point x="244.0" y="140.4232"/>
      <point x="230.5768" y="127.0"/>
      <point x="215.44" y="127.0" type="curve" smooth="yes"/>
      <point x="176.0" y="127.0" type="line" smooth="yes"/>
      <point x="156.0" y="127.0"/>
      <point x="100.0" y="125.0"/>
      <point x="100.0" y="63.0" type="curve" smooth="yes"/>
      <point x="100.0" y="12.0"/>
      <point x="137.0" y="0.0"/>
      <point x="180.0" y="0.0" type="curve" smooth="yes"/>
      <point x="904.0" y="0.0" type="line" smooth="yes"/>
      <point x="929.44" y="0.0"/>
      <point x="952.0" y="-22.56"/>
      <point x="952.0" y="-48.0" type="curve" smooth="yes"/>
      <point x="952.0" y="-201.0" type="line" smooth="yes"/>
      <point x="952.0" y="-215.0"/>
      <point x="952.0" y="-233.0"/>
      <point x="958.0" y="-248.0" type="curve"/>
      <point x="969.0" y="-270.0"/>
      <point x="989.0" y="-283.0"/>
      <point x="1012.0" y="-283.0" type="curve" smooth="yes"/>
      <point x="1030.0" y="-283.0"/>
      <point x="1069.0" y="-276.0"/>
      <point x="1069.0" y="-209.0" type="curve" smooth="yes"/>
      <point x="1069.0" y="51.0" type="line" smooth="yes"/>
      <point x="1069.0" y="111.0"/>
      <point x="1047.0" y="127.0"/>
      <point x="987.0" y="127.0" type="curve" smooth="yes"/>
      <point x="944.08" y="127.0" type="line" smooth="yes"/>
      <point x="927.6076" y="127.0"/>
      <point x="913.0" y="141.6076"/>
      <point x="913.0" y="158.07999999999998" type="curve" smooth="yes"/>
      <point x="913.0" y="726.6" type="line" smooth="yes"/>
      <point x="913.0" y="742.182"/>
      <point x="926.818" y="756.0"/>
      <point x="942.4" y="756.0" type="curve" smooth="yes"/>
      <point x="983.0" y="756.0" type="line" smooth="yes"/>
      <point x="1004.0" y="756.0"/>
      <point x="1055.0" y="760.0"/>
      <point x="1055.0" y="819.0" type="curve" smooth="yes"/>
      <point x="1055.0" y="844.0"/>
      <point x="1044.0" y="881.0"/>
      <point x="979.0" y="881.0" type="curve" smooth="yes"/>
      <point x="729.0" y="881.0" type="line" smooth="yes"/>
      <point x="668.0" y="881.0"/>
      <point x="655.0" y="842.0"/>
      <point x="655.0" y="817.0" type="curve" smooth="yes"/>
      <point x="655.0" y="756.0"/>
      <point x="713.0" y="756.0"/>
      <point x="733.0" y="756.0" type="curve" smooth="yes"/>
      <point x="770.12" y="756.0" type="line" smooth="yes"/>
      <point x="784.3664" y="756.0"/>
      <point x="797.0" y="743.3664"/>
      <point x="797.0" y="729.12" type="curve" smooth="yes"/>
      <point x="797.0" y="175.0" type="line" smooth="yes"/>
      <point x="797.0" y="149.56"/>
      <point x="774.44" y="127.0"/>
      <point x="749.0" y="127.0" type="curve" smooth="yes"/>
      <point x="406.0" y="127.0" type="line" smooth="yes"/>
      <point x="380.56" y="127.0"/>
      <point x="358.0" y="149.56"/>
      <point x="358.0" y="175.0" type="curve" smooth="yes"/>
      <point x="358.0" y="716.94" type="line" smooth="yes"/>
      <point x="358.0" y="737.6418"/>
      <point x="376.3582" y="756.0"/>
      <point x="397.06" y="756.0" type="curve" smooth="yes"/>
      <point x="425.8" y="756.0" type="line" smooth="yes"/>
      <point x="439.156" y="756.0"/>
      <point x="451.0" y="744.156"/>
      <point x="451.0" y="730.8" type="curve" smooth="yes"/>
      <point x="451.0" y="696.0" type="line" smooth="yes"/>
      <point x="451.0" y="695.34130859375"/>
      <point x="450.99871826171875" y="694.6646118164062"/>
      <point x="450.9974060058594" y="693.9712524414062" type="curve" smooth="yes"/>
      <point x="450.9468078613281" y="667.2984619140625"/>
      <point x="450.8494873046875" y="616.0"/>
      <point x="522.0" y="616.0" type="curve" smooth="yes"/>
      <point x="526.0" y="616.0" type="line" smooth="yes"/>
      <point x="582.0" y="616.0"/>
      <point x="594.0" y="653.0"/>
      <point x="594.0" y="692.0" type="curve" smooth="yes"/>
      <point x="594.0" y="801.0" type="line" smooth="yes"/>
      <point x="594.0" y="802.0859375"/>
      <point x="594.0081787109375" y="803.2373657226562"/>
      <point x="594.0167846679688" y="804.4461669921875" type="curve" smooth="yes"/>
      <point x="594.1981811523438" y="829.9530029296875"/>
      <point x="594.5612182617188" y="881.0"/>
      <point x="522.0" y="881.0" type="curve" smooth="yes"/>
      <point x="84.0" y="881.0" type="line" smooth="yes"/>
      <point x="33.0" y="881.0"/>
      <point x="8.0" y="866.0"/>
      <point x="8.0" y="805.0" type="curve" smooth="yes"/>
    </contour>
  </outline>
</glyph>
<glyph name="uni04B7" format="2">
  <advance width="1228"/>
  <unicode hex="04B7"/>
  <outline>
    <contour>
      <point x="35.0" y="819.0" type="curve" smooth="yes"/>
      <point x="35.0" y="766.0"/>
      <point x="74.0" y="756.0"/>
      <point x="113.0" y="756.0" type="curve" smooth="yes"/>
      <point x="168.68" y="756.0" type="line" smooth="yes"/>
      <point x="190.0496" y="756.0"/>
      <point x="209.0" y="737.0495999999999"/>
      <point x="209.0" y="715.68" type="curve" smooth="yes"/>
      <point x="209.0" y="625.0" type="line" smooth="yes"/>
      <point x="209.0" y="412.0"/>
      <point x="346.0" y="344.0"/>
      <point x="465.0" y="344.0" type="curve" smooth="yes"/>
      <point x="697.0" y="344.0" type="line" smooth="yes"/>
      <point x="722.44" y="344.0"/>
      <point x="745.0" y="321.44"/>
      <point x="745.0" y="296.0" type="curve" smooth="yes"/>
      <point x="745.0" y="168.16" type="line" smooth="yes"/>
      <point x="745.0" y="146.3452"/>
      <point x="725.6548" y="127.0"/>
      <point x="703.84" y="127.0" type="curve" smooth="yes"/>
      <point x="647.0" y="127.0" type="line" smooth="yes"/>
      <point x="621.0" y="127.0"/>
      <point x="571.0" y="123.0"/>
      <point x="571.0" y="63.0" type="curve" smooth="yes"/>
      <point x="571.0" y="6.0"/>
      <point x="616.0" y="0.0"/>
      <point x="651.0" y="0.0" type="curve" smooth="yes"/>
      <point x="888.0" y="0.0" type="line" smooth="yes"/>
      <point x="913.44" y="0.0"/>
      <point x="936.0" y="-22.56"/>
      <point x="936.0" y="-48.0" type="curve" smooth="yes"/>
      <point x="936.0" y="-201.0" type="line" smooth="yes"/>
      <point x="936.0" y="-201.5824737548828"/>
      <point x="935.998291015625" y="-202.20057678222656"/>
      <point x="935.9965209960938" y="-202.8517303466797" type="curve" smooth="yes"/>
      <point x="935.9369506835938" y="-224.55874633789062"/>
      <point x="935.7765502929688" y="-283.0"/>
      <point x="995.0" y="-283.0" type="curve" smooth="yes"/>
      <point x="1049.0" y="-283.0"/>
      <point x="1055.0" y="-231.0"/>
      <point x="1053.0" y="-195.0" type="curve"/>
      <point x="1053.0" y="49.0" type="line" smooth="yes"/>
      <point x="1053.0" y="121.0"/>
      <point x="1018.0" y="127.0"/>
      <point x="971.0" y="127.0" type="curve" smooth="yes"/>
      <point x="907.78" y="127.0" type="line" smooth="yes"/>
      <point x="883.5166" y="127.0"/>
      <point x="862.0" y="148.5166"/>
      <point x="862.0" y="172.78" type="curve" smooth="yes"/>
      <point x="862.0" y="714.42" type="line" smooth="yes"/>
      <point x="862.0" y="736.4574"/>
      <point x="881.5426" y="756.0"/>
      <point x="903.58" y="756.0" type="curve" smooth="yes"/>
      <point x="961.0" y="756.0" type="line" smooth="yes"/>
      <point x="987.0" y="756.0"/>
      <point x="1036.0" y="758.0"/>
      <point x="1036.0" y="819.0" type="curve" smooth="yes"/>
      <point x="1036.0" y="868.0"/>
      <point x="997.0" y="881.0"/>
      <point x="961.0" y="881.0" type="curve" smooth="yes"/>
      <point x="649.0" y="881.0" type="line" smooth="yes"/>
      <point x="621.0" y="881.0"/>
      <point x="571.0" y="879.0"/>
      <point x="571.0" y="817.0" type="curve" smooth="yes"/>
      <point x="571.0" y="762.0"/>
      <point x="614.0" y="756.0"/>
      <point x="651.0" y="756.0" type="curve" smooth="yes"/>
      <point x="705.52" y="756.0" type="line" smooth="yes"/>
      <point x="726.4444" y="756.0"/>
      <point x="745.0" y="737.4444"/>
      <point x="745.0" y="716.52" type="curve" smooth="yes"/>
      <point x="745.0" y="515.0" type="line" smooth="yes"/>
      <point x="745.0" y="489.56"/>
      <point x="722.44" y="467.0"/>
      <point x="697.0" y="467.0" type="curve" smooth="yes"/>
      <point x="455.0" y="467.0" type="line" smooth="yes"/>
      <point x="432.0" y="467.0"/>
      <point x="395.0" y="469.0"/>
      <point x="362.0" y="508.0" type="curve" smooth="yes"/>
      <point x="326.0" y="547.0"/>
      <point x="326.0" y="596.0"/>
      <point x="326.0" y="641.0" type="curve" smooth="yes"/>
      <point x="326.0" y="714.84" type="line" smooth="yes"/>
      <point x="326.0" y="736.6548"/>
      <point x="345.3452" y="756.0"/>
      <point x="367.15999999999997" y="756.0" type="curve" smooth="yes"/>
      <point x="424.0" y="756.0" type="line" smooth="yes"/>
      <point x="451.0" y="756.0"/>
      <point x="498.0" y="758.0"/>
      <point x="498.0" y="819.0" type="curve" smooth="yes"/>
      <point x="498.0" y="874.0"/>
      <point x="459.0" y="881.0"/>
      <point x="422.0" y="881.0" type="curve" smooth="yes"/>
      <point x="111.0" y="881.0" type="line" smooth="yes"/>
      <point x="49.0" y="881.0"/>
      <point x="35.0" y="850.0"/>
    </contour>
  </outline>
</glyph>
<glyph name="uni04B9" format="2">
  <advance width="1228"/>
  <unicode hex="04B9"/>
  <outline>
    <contour>
      <point x="35.0" y="819.0" type="curve" smooth="yes"/>
      <point x="35.0" y="766.0"/>
      <point x="74.0" y="756.0"/>
      <point x="113.0" y="756.0" type="curve" smooth="yes"/>
      <point x="168.68" y="756.0" type="line" smooth="yes"/>
      <point x="190.0496" y="756.0"/>
      <point x="209.0" y="737.0495999999999"/>
      <point x="209.0" y="715.68" type="curve" smooth="yes"/>
      <point x="209.0" y="629.0" type="line" smooth="yes"/>
      <point x="209.0" y="541.0"/>
      <point x="227.0" y="481.0"/>
      <point x="270.0" y="430.0" type="curve" smooth="yes"/>
      <point x="340.0" y="346.0"/>
      <point x="418.0" y="342.0"/>
      <point x="463.0" y="342.0" type="curve" smooth="yes"/>
      <point x="468.8" y="342.0" type="line" smooth="yes"/>
      <point x="471.026" y="342.0"/>
      <point x="473.0" y="340.026"/>
      <point x="473.0" y="337.8" type="curve" smooth="yes"/>
      <point x="473.0" y="266.0" type="line" smooth="yes"/>
      <point x="473.0" y="265.5644836425781"/>
      <point x="472.9822082519531" y="264.9333801269531"/>
      <point x="472.9595642089844" y="264.1292419433594" type="curve" smooth="yes"/>
      <point x="472.5660400390625" y="250.16226196289062"/>
      <point x="470.701904296875" y="184.0"/>
      <point x="535.0" y="184.0" type="curve" smooth="yes"/>
      <point x="594.0" y="184.0"/>
      <point x="598.0" y="233.0"/>
      <point x="598.0" y="268.0" type="curve" smooth="yes"/>
      <point x="598.0" y="310.92" type="line" smooth="yes"/>
      <point x="598.0" y="327.3924"/>
      <point x="612.6076" y="342.0"/>
      <point x="629.08" y="342.0" type="curve" smooth="yes"/>
      <point x="697.0" y="342.0" type="line" smooth="yes"/>
      <point x="722.44" y="342.0"/>
      <point x="745.0" y="319.44"/>
      <point x="745.0" y="294.0" type="curve" smooth="yes"/>
      <point x="745.0" y="168.16" type="line" smooth="yes"/>
      <point x="745.0" y="146.3452"/>
      <point x="725.6548" y="127.0"/>
      <point x="703.84" y="127.0" type="curve" smooth="yes"/>
      <point x="647.0" y="127.0" type="line" smooth="yes"/>
      <point x="623.0" y="127.0"/>
      <point x="571.0" y="123.0"/>
      <point x="571.0" y="63.0" type="curve" smooth="yes"/>
      <point x="571.0" y="41.0"/>
      <point x="580.0" y="0.0"/>
      <point x="647.0" y="0.0" type="curve" smooth="yes"/>
      <point x="961.0" y="0.0" type="line" smooth="yes"/>
      <point x="997.0" y="0.0"/>
      <point x="1036.0" y="10.0"/>
      <point x="1036.0" y="63.0" type="curve" smooth="yes"/>
      <point x="1036.0" y="119.0"/>
      <point x="995.0" y="127.0"/>
      <point x="956.0" y="127.0" type="curve" smooth="yes"/>
      <point x="901.48" y="127.0" type="line" smooth="yes"/>
      <point x="880.5556" y="127.0"/>
      <point x="862.0" y="145.5556"/>
      <point x="862.0" y="166.48" type="curve" smooth="yes"/>
      <point x="862.0" y="714.42" type="line" smooth="yes"/>
      <point x="862.0" y="736.4574"/>
      <point x="881.5426" y="756.0"/>
      <point x="903.58" y="756.0" type="curve" smooth="yes"/>
      <point x="961.0" y="756.0" type="line" smooth="yes"/>
      <point x="987.0" y="756.0"/>
      <point x="1036.0" y="758.0"/>
      <point x="1036.0" y="817.0" type="curve" smooth="yes"/>
      <point x="1036.0" y="872.0"/>
      <point x="995.0" y="881.0"/>
      <point x="961.0" y="881.0" type="curve" smooth="yes"/>
      <point x="647.0" y="881.0" type="line" smooth="yes"/>
      <point x="582.0" y="881.0"/>
      <point x="571.0" y="844.0"/>
      <point x="571.0" y="819.0" type="curve" smooth="yes"/>
      <point x="571.0" y="762.0"/>
      <point x="616.0" y="756.0"/>
      <point x="649.0" y="756.0" type="curve" smooth="yes"/>
      <point x="704.68" y="756.0" type="line" smooth="yes"/>
      <point x="726.0495999999999" y="756.0"/>
      <point x="745.0" y="737.0495999999999"/>
      <point x="745.0" y="715.68" type="curve" smooth="yes"/>
      <point x="745.0" y="515.0" type="line" smooth="yes"/>
      <point x="745.0" y="489.56"/>
      <point x="722.44" y="467.0"/>
      <point x="697.0" y="467.0" type="curve" smooth="yes"/>
      <point x="629.92" y="467.0" type="line" smooth="yes"/>
      <point x="613.0024" y="467.0"/>
      <point x="598.0" y="482.0024"/>
      <point x="598.0" y="498.92" type="curve" smooth="yes"/>
      <point x="598.0" y="543.0" type="line" smooth="yes"/>
      <point x="598.0" y="543.8888549804688"/>
      <point x="598.009765625" y="544.8898315429688"/>
      <point x="598.0204467773438" y="545.98974609375" type="curve" smooth="yes"/>
      <point x="598.226806640625" y="567.16455078125"/>
      <point x="598.7903442382812" y="625.0"/>
      <point x="537.0" y="625.0" type="curve" smooth="yes"/>
      <point x="472.80657958984375" y="625.0"/>
      <point x="472.94146728515625" y="568.23974609375"/>
      <point x="472.9969482421875" y="544.8900146484375" type="curve" smooth="yes"/>
      <point x="472.9985046386719" y="544.2328491210938"/>
      <point x="473.0" y="543.6021728515625"/>
      <point x="473.0" y="543.0" type="curve" smooth="yes"/>
      <point x="473.0" y="472.04" type="line" smooth="yes"/>
      <point x="473.0" y="469.3688"/>
      <point x="470.6312" y="467.0"/>
      <point x="467.96" y="467.0" type="curve" smooth="yes"/>
      <point x="461.0" y="467.0" type="line" smooth="yes"/>
      <point x="434.0" y="467.0"/>
      <point x="393.0" y="471.0"/>
      <point x="358.0" y="512.0" type="curve" smooth="yes"/>
      <point x="328.0" y="549.0"/>
      <point x="326.0" y="586.0"/>
      <point x="326.0" y="635.0" type="curve" smooth="yes"/>
      <point x="326.0" y="714.84" type="line" smooth="yes"/>
      <point x="326.0" y="736.6548"/>
      <point x="345.3452" y="756.0"/>
      <point x="367.15999999999997" y="756.0" type="curve" smooth="yes"/>
      <point x="424.0" y="756.0" type="line" smooth="yes"/>
      <point x="451.0" y="756.0"/>
      <point x="498.0" y="758.0"/>
      <point x="498.0" y="819.0" type="curve" smooth="yes"/>
      <point x="498.0" y="874.0"/>
      <point x="457.0" y="881.0"/>
      <point x="424.0" y="881.0" type="curve" smooth="yes"/>
      <point x="111.0" y="881.0" type="line" smooth="yes"/>
      <point x="49.0" y="881.0"/>
      <point x="35.0" y="850.0"/>
    </contour>
  </outline>
</glyph>
<glyph name="uni04F3" format="2">
  <advance width="1228"/>
  <unicode hex="04F3"/>
  <outline>
    <contour>
      <point x="1115.0" y="924.0" type="curve" smooth="yes"/>
      <point x="801.0" y="924.0" type="line" smooth="yes"/>
      <point x="778.3330078125" y="924.0"/>
      <point x="762.1669921875" y="919.0"/>
      <point x="752.5" y="909.0" type="curve" smooth="yes"/>
      <point x="742.8330078125" y="899.0"/>
      <point x="738.0" y="881.3330078125"/>
      <point x="738.0" y="856.0" type="curve" smooth="yes"/>
      <point x="738.0" y="830.6669921875"/>
      <point x="742.8330078125" y="813.0"/>
      <point x="752.5" y="803.0" type="curve" smooth="yes"/>
      <point x="762.1669921875" y="793.0"/>
      <point x="778.3330078125" y="788.0"/>
      <point x="801.0" y="788.0" type="curve" smooth="yes"/>
      <point x="852.62" y="788.0" type="line" smooth="yes"/>
      <point x="872.4314" y="788.0"/>
      <point x="882.4149425831964" y="772.1531514191687"/>
      <point x="873.8615799642478" y="754.2833008918484" type="curve" smooth="yes"/>
      <point x="641.7234928227958" y="269.2959218082203" type="line" smooth="yes"/>
      <point x="630.7400416267141" y="246.34908324986355"/>
      <point x="610.8821684245667" y="246.16390548011879"/>
      <point x="599.4726987756738" y="268.90192655344424" type="curve" smooth="yes"/>
      <point x="360.52730122432615" y="745.0980734465558" type="line" smooth="yes"/>
      <point x="349.1178315754333" y="767.8360945198812"/>
      <point x="361.56" y="788.0"/>
      <point x="387.0" y="788.0" type="curve" smooth="yes"/>
      <point x="467.0" y="788.0" type="line" smooth="yes"/>
      <point x="489.6669921875" y="788.0"/>
      <point x="505.8330078125" y="793.0"/>
      <point x="515.5" y="803.0" type="curve" smooth="yes"/>
      <point x="525.1669921875" y="813.0"/>
      <point x="530.0" y="830.6669921875"/>
      <point x="530.0" y="856.0" type="curve" smooth="yes"/>
      <point x="530.0" y="881.3330078125"/>
      <point x="525.1669921875" y="899.0"/>
      <point x="515.5" y="909.0" type="curve" smooth="yes"/>
      <point x="505.8330078125" y="919.0"/>
      <point x="489.6669921875" y="924.0"/>
      <point x="467.0" y="924.0" type="curve" smooth="yes"/>
      <point x="113.0" y="924.0" type="line" smooth="yes"/>
      <point x="90.33300018310547" y="924.0"/>
      <point x="74.16699981689453" y="919.0"/>
      <point x="64.5" y="909.0" type="curve" smooth="yes"/>
      <point x="54.83300018310547" y="899.0"/>
      <point x="50.0" y="881.3330078125"/>
      <point x="50.0" y="856.0" type="curve" smooth="yes"/>
      <point x="50.0" y="830.6669921875"/>
      <point x="54.83300018310547" y="813.0"/>
      <point x="64.5" y="803.0" type="curve" smooth="yes"/>
      <point x="74.16699981689453" y="793.0"/>
      <point x="90.33300018310547" y="788.0"/>
      <point x="113.0" y="788.0" type="curve" smooth="yes"/>
      <point x="149.54" y="788.0" type="line" smooth="yes"/>
      <point x="163.5638" y="788.0"/>
      <point x="181.64788561090785" y="776.9202681184922"/>
      <point x="188.01677789554864" y="764.4261023797707" type="curve" smooth="yes"/>
      <point x="527.6691261279672" y="98.11357224076394" type="line" smooth="yes"/>
      <point x="535.2644892801445" y="83.21337895315905"/>
      <point x="535.4200642578126" y="56.70846383423805"/>
      <point x="528.00013671875" y="41.720135817527776" type="curve" smooth="yes"/>
      <point x="508.6669921875" y="2.666990041732788"/>
      <point x="479.1669921875" y="-52.16699981689453"/>
      <point x="453.5" y="-94.5" type="curve" smooth="yes"/>
      <point x="427.8330078125" y="-136.83299255371094"/>
      <point x="401.6669921875" y="-170.0"/>
      <point x="375.0" y="-194.0" type="curve" smooth="yes"/>
      <point x="348.3330078125" y="-218.0"/>
      <point x="318.8330078125" y="-234.83299255371094"/>
      <point x="286.5" y="-244.5" type="curve" smooth="yes"/>
      <point x="254.16700744628906" y="-254.16700744628906"/>
      <point x="215.0" y="-260.3330078125"/>
      <point x="169.0" y="-263.0" type="curve" smooth="yes"/>
      <point x="151.0" y="-264.3330078125"/>
      <point x="137.16700744628906" y="-271.1669921875"/>
      <point x="127.5" y="-283.5" type="curve" smooth="yes"/>
      <point x="117.83300018310547" y="-295.8330078125"/>
      <point x="114.33300018310547" y="-317.0"/>
      <point x="117.0" y="-347.0" type="curve" smooth="yes"/>
      <point x="119.66699981689453" y="-373.6669921875"/>
      <point x="127.5" y="-391.6669921875"/>
      <point x="140.5" y="-401.0" type="curve" smooth="yes"/>
      <point x="153.5" y="-410.3330078125"/>
      <point x="169.66700744628906" y="-414.6669921875"/>
      <point x="189.0" y="-414.0" type="curve" smooth="yes"/>
      <point x="243.66700744628906" y="-412.0"/>
      <point x="292.1669921875" y="-404.1669921875"/>
      <point x="334.5" y="-390.5" type="curve" smooth="yes"/>
      <point x="376.8330078125" y="-376.8330078125"/>
      <point x="415.5" y="-355.6669921875"/>
      <point x="450.5" y="-327.0" type="curve" smooth="yes"/>
      <point x="485.5" y="-298.3330078125"/>
      <point x="518.5" y="-261.3330078125"/>
      <point x="549.5" y="-216.0" type="curve" smooth="yes"/>
      <point x="580.5" y="-170.66700744628906"/>
      <point x="612.0" y="-115.33300018310547"/>
      <point x="644.0" y="-50.0" type="curve" smooth="yes"/>
      <point x="1041.5784971787793" y="764.5984856621446" type="line" smooth="yes"/>
      <point x="1047.6318936740263" y="777.001288261208"/>
      <point x="1065.2388" y="788.0"/>
      <point x="1079.04" y="788.0" type="curve" smooth="yes"/>
      <point x="1115.0" y="788.0" type="line" smooth="yes"/>
      <point x="1137.6700439453125" y="788.0"/>
      <point x="1153.8299560546875" y="793.0"/>
      <point x="1163.5" y="803.0" type="curve" smooth="yes"/>
      <point x="1173.1700439453125" y="813.0"/>
      <point x="1178.0" y="830.6669921875"/>
      <point x="1178.0" y="856.0" type="curve" smooth="yes"/>
      <point x="1178.0" y="881.3330078125"/>
      <point x="1173.1700439453125" y="899.0"/>
      <point x="1163.5" y="909.0" type="curve" smooth="yes"/>
      <point x="1153.8299560546875" y="919.0"/>
      <point x="1137.6700439453125" y="924.0"/>
    </contour>
    <contour>
      <point x="192.0" y="1118.0" type="curve" smooth="yes"/>
      <point x="192.0" y="1106.0"/>
      <point x="206.0" y="1036.0"/>
      <point x="262.0" y="1036.0" type="curve" smooth="yes"/>
      <point x="274.0" y="1036.0"/>
      <point x="280.0" y="1036.0"/>
      <point x="567.0" y="1163.0" type="curve" smooth="yes"/>
      <point x="591.0" y="1174.0"/>
      <point x="628.0" y="1192.0"/>
      <point x="628.0" y="1237.0" type="curve" smooth="yes"/>
      <point x="628.0" y="1278.0"/>
      <point x="593.0" y="1309.0"/>
      <point x="559.0" y="1309.0" type="curve" smooth="yes"/>
      <point x="536.0" y="1309.0"/>
      <point x="536.0" y="1307.0"/>
      <point x="254.0" y="1184.0" type="curve" smooth="yes"/>
      <point x="231.0" y="1174.0"/>
      <point x="192.0" y="1161.0"/>
    </contour>
    <contour>
      <point x="602.0" y="1118.0" type="curve" smooth="yes"/>
      <point x="602.0" y="1106.0"/>
      <point x="614.0" y="1036.0"/>
      <point x="669.0" y="1036.0" type="curve" smooth="yes"/>
      <point x="684.0" y="1036.0"/>
      <point x="690.0" y="1036.0"/>
      <point x="974.0" y="1163.0" type="curve" smooth="yes"/>
      <point x="999.0" y="1174.0"/>
      <point x="1036.0" y="1192.0"/>
      <point x="1036.0" y="1237.0" type="curve" smooth="yes"/>
      <point x="1036.0" y="1278.0"/>
      <point x="1001.0" y="1309.0"/>
      <point x="966.0" y="1309.0" type="curve" smooth="yes"/>
      <point x="946.0" y="1309.0"/>
      <point x="944.0" y="1307.0"/>
      <point x="661.0" y="1184.0" type="curve" smooth="yes"/>
      <point x="647.0" y="1178.0"/>
      <point x="602.0" y="1161.0"/>
    </contour>
  </outline>
</glyph>
<glyph name="uni0604" format="2">
  <advance width="1228"/>
  <unicode hex="0604"/>
  <outline>
    <contour>
      <point x="43.0" y="373.0" type="line" smooth="yes"/>
      <point x="23.0" y="373.0"/>
      <point x="23.0" y="326.0"/>
      <point x="23.0" y="303.0" type="curve" smooth="yes"/>
      <point x="23.0" y="279.0"/>
      <point x="23.0" y="225.0"/>
      <point x="43.0" y="225.0" type="curve" smooth="yes"/>
      <point x="558.92" y="225.0" type="line" smooth="yes"/>
      <point x="575.3924" y="225.0"/>
      <point x="590.0" y="239.6076"/>
      <point x="590.0" y="256.08" type="curve" smooth="yes"/>
      <point x="590.0" y="299.0" type="line" smooth="yes"/>
      <point x="590.0" y="356.0"/>
      <point x="569.0" y="373.0"/>
      <point x="506.0" y="373.0" type="curve" smooth="yes"/>
      <point x="379.0" y="373.0"/>
      <point x="326.0" y="428.0"/>
      <point x="326.0" y="512.0" type="curve" smooth="yes"/>
      <point x="326.0" y="602.0"/>
      <point x="375.0" y="637.0"/>
      <point x="432.0" y="637.0" type="curve" smooth="yes"/>
      <point x="549.0" y="637.0"/>
      <point x="508.0" y="496.0"/>
      <point x="682.0" y="496.0" type="curve" smooth="yes"/>
      <point x="733.0" y="496.0"/>
      <point x="770.0" y="524.0"/>
      <point x="785.66" y="547.78" type="curve" smooth="yes"/>
      <point x="791.6702" y="556.9066"/>
      <point x="802.465189674685" y="556.997400833497"/>
      <point x="808.6280631376277" y="547.9731932627594" type="curve" smooth="yes"/>
      <point x="825.0" y="524.0"/>
      <point x="864.0" y="496.0"/>
      <point x="915.0" y="496.0" type="curve" smooth="yes"/>
      <point x="1053.0" y="496.0"/>
      <point x="1053.0" y="666.0"/>
      <point x="1053.0" y="752.0" type="curve" smooth="yes"/>
      <point x="1053.0" y="954.0" type="line" smooth="yes"/>
      <point x="1053.0" y="1018.0"/>
      <point x="1051.0" y="1038.0"/>
      <point x="993.0" y="1038.0" type="curve" smooth="yes"/>
      <point x="938.0" y="1038.0"/>
      <point x="938.0" y="1018.0"/>
      <point x="938.0" y="954.0" type="curve" smooth="yes"/>
      <point x="938.0" y="752.0" type="line" smooth="yes"/>
      <point x="938.0" y="707.0"/>
      <point x="936.0" y="637.0"/>
      <point x="915.0" y="637.0" type="curve" smooth="yes"/>
      <point x="866.0" y="637.0"/>
      <point x="852.0" y="707.0"/>
      <point x="852.0" y="752.0" type="curve" smooth="yes"/>
      <point x="852.0" y="870.0" type="line" smooth="yes"/>
      <point x="852.0" y="934.0"/>
      <point x="852.0" y="954.0"/>
      <point x="795.0" y="954.0" type="curve" smooth="yes"/>
      <point x="737.0" y="954.0"/>
      <point x="737.0" y="934.0"/>
      <point x="737.0" y="870.0" type="curve" smooth="yes"/>
      <point x="737.0" y="752.0" type="line" smooth="yes"/>
      <point x="737.0" y="707.0"/>
      <point x="729.0" y="637.0"/>
      <point x="682.0" y="637.0" type="curve" smooth="yes"/>
      <point x="565.0" y="637.0"/>
      <point x="606.0" y="778.0"/>
      <point x="432.0" y="778.0" type="curve" smooth="yes"/>
      <point x="279.0" y="778.0"/>
      <point x="201.0" y="641.0"/>
      <point x="201.0" y="512.0" type="curve" smooth="yes"/>
      <point x="201.0" y="453.0"/>
      <point x="209.0" y="412.0"/>
      <point x="220.6" y="389.38" type="curve" smooth="yes"/>
      <point x="225.052" y="380.6986"/>
      <point x="220.34811315607976" y="373.0"/>
      <point x="210.59173011931864" y="373.0" type="curve" smooth="yes"/>
    </contour>
  </outline>
</glyph>
<glyph name="uni0605" format="2">
  <advance width="1228"/>
  <unicode hex="0605"/>
  <outline>
    <contour>
      <point x="256.88408644400783" y="1634.0" type="curve" smooth="yes"/>
      <point x="166.8391453831041" y="1634.0"/>
      <point x="165.375" y="1477.0"/>
      <point x="165.375" y="1403.0" type="curve" smooth="yes"/>
      <point x="165.375" y="1356.0"/>
      <point x="172.6957269155206" y="1341.0"/>
      <point x="205.63899803536344" y="1341.0" type="curve" smooth="yes"/>
      <point x="237.11812377210214" y="1341.0"/>
      <point x="244.4388506876228" y="1356.0"/>
      <point x="244.4388506876228" y="1403.0" type="curve" smooth="yes"/>
      <point x="244.4388506876228" y="1458.0"/>
      <point x="244.4388506876228" y="1503.0"/>
      <point x="256.88408644400783" y="1503.0" type="curve" smooth="yes"/>
      <point x="272.98968565815323" y="1503.0"/>
      <point x="365.9629174852652" y="1384.0"/>
      <point x="559.2301080550099" y="1384.0" type="curve" smooth="yes"/>
      <point x="763.4783889980354" y="1384.0"/>
      <point x="910.625" y="1460.0"/>
      <point x="910.625" y="1567.0" type="curve" smooth="yes"/>
      <point x="910.625" y="1610.0"/>
      <point x="887.930746561886" y="1634.0"/>
      <point x="860.8440569744598" y="1634.0" type="curve" smooth="yes"/>
      <point x="799.3499508840864" y="1634.0"/>
      <point x="800.8140962671905" y="1511.0"/>
      <point x="559.2301080550099" y="1511.0" type="curve" smooth="yes"/>
      <point x="391.5854616895874" y="1511.0"/>
      <point x="318.3781925343811" y="1634.0"/>
    </contour>
  </outline>
</glyph>
<glyph name="uni0607" format="2">
  <advance width="1228"/>
  <unicode hex="0607"/>
  <outline>
    <contour>
      <point x="-74.0" y="1325.0" type="curve" smooth="yes"/>
      <point x="-74.0" y="1274.0"/>
      <point x="-35.0" y="1253.0"/>
      <point x="8.0" y="1253.0" type="curve" smooth="yes"/>
      <point x="176.0" y="1253.0" type="line" smooth="yes"/>
      <point x="188.0" y="1253.0"/>
      <point x="200.0" y="1251.0"/>
      <point x="206.0" y="1237.0" type="curve" smooth="yes"/>
      <point x="247.0" y="1137.0"/>
      <point x="282.0" y="1032.0"/>
      <point x="321.0" y="930.0" type="curve" smooth="yes"/>
      <point x="645.0" y="74.0" type="line" smooth="yes"/>
      <point x="661.0" y="31.0"/>
      <point x="679.0" y="-12.0"/>
      <point x="735.0" y="-12.0" type="curve" smooth="yes"/>
      <point x="782.0" y="-12.0"/>
      <point x="798.0" y="33.0"/>
      <point x="813.0" y="74.0" type="curve" smooth="yes"/>
      <point x="972.8578603193483" y="543.8852257871754" type="line" smooth="yes"/>
      <point x="975.5831943500937" y="551.8960561199724"/>
      <point x="984.1194" y="554.6572"/>
      <point x="991.02" y="549.76" type="curve" smooth="yes"/>
      <point x="1009.0" y="537.0"/>
      <point x="1044.0" y="485.0"/>
      <point x="1085.0" y="485.0" type="curve" smooth="yes"/>
      <point x="1116.0" y="485.0"/>
      <point x="1148.0" y="518.0"/>
      <point x="1148.0" y="549.0" type="curve" smooth="yes"/>
      <point x="1148.0" y="586.0"/>
      <point x="1069.0" y="655.0"/>
      <point x="1024.0" y="698.0" type="curve" smooth="yes"/>
      <point x="1001.0" y="721.0"/>
      <point x="972.0" y="750.0"/>
      <point x="935.0" y="750.0" type="curve" smooth="yes"/>
      <point x="895.0" y="750.0"/>
      <point x="882.0" y="715.0"/>
      <point x="872.0" y="682.0" type="curve" smooth="yes"/>
      <point x="742.7311134656977" y="309.34900295628717" type="line" smooth="yes"/>
      <point x="734.3936233288779" y="285.31403138945495"/>
      <point x="719.0152504061484" y="285.09970080175276"/>
      <point x="710.0111710769115" y="308.89298042926123" type="curve" smooth="yes"/>
      <point x="327.0" y="1321.0" type="line" smooth="yes"/>
      <point x="309.0" y="1370.0"/>
      <point x="288.0" y="1397.0"/>
      <point x="235.0" y="1397.0" type="curve" smooth="yes"/>
      <point x="14.0" y="1397.0" type="line" smooth="yes"/>
      <point x="-41.0" y="1397.0"/>
      <point x="-74.0" y="1370.0"/>
    </contour>
    <contour>
      <point x="561.0" y="971.0" type="curve" smooth="yes"/>
      <point x="561.0" y="901.0"/>
      <point x="594.0" y="862.0"/>
      <point x="690.0" y="862.0" type="curve" smooth="yes"/>
      <point x="827.0" y="862.0" type="line" smooth="yes"/>
      <point x="864.0" y="862.0"/>
      <point x="877.0" y="874.0"/>
      <point x="877.0" y="901.0" type="curve" smooth="yes"/>
      <point x="877.0" y="928.0"/>
      <point x="864.0" y="940.0"/>
      <point x="827.0" y="940.0" type="curve" smooth="yes"/>
      <point x="690.0" y="940.0" type="line" smooth="yes"/>
      <point x="662.0" y="940.0"/>
      <point x="647.0" y="944.0"/>
      <point x="647.0" y="971.0" type="curve" smooth="yes"/>
      <point x="647.0" y="1012.0"/>
      <point x="694.0" y="1077.0"/>
      <point x="754.0" y="1094.0" type="curve" smooth="yes"/>
      <point x="774.0" y="1100.0"/>
      <point x="827.0" y="1108.0"/>
      <point x="827.0" y="1130.0" type="curve" smooth="yes"/>
      <point x="827.0" y="1151.0"/>
      <point x="807.0" y="1171.0"/>
      <point x="793.0" y="1171.0" type="curve" smooth="yes"/>
      <point x="772.0" y="1171.0"/>
      <point x="756.0" y="1167.0"/>
      <point x="737.0" y="1161.0" type="curve" smooth="yes"/>
      <point x="717.0" y="1155.0"/>
      <point x="694.0" y="1149.0"/>
      <point x="674.0" y="1149.0" type="curve" smooth="yes"/>
      <point x="639.0" y="1149.0"/>
      <point x="616.0" y="1182.0"/>
      <point x="616.0" y="1227.0" type="curve" smooth="yes"/>
      <point x="616.0" y="1303.0"/>
      <point x="643.0" y="1319.0"/>
      <point x="664.0" y="1319.0" type="curve" smooth="yes"/>
      <point x="680.0" y="1319.0"/>
      <point x="686.0" y="1311.0"/>
      <point x="694.0" y="1305.0" type="curve"/>
      <point x="702.0" y="1296.0"/>
      <point x="711.0" y="1292.0"/>
      <point x="729.0" y="1292.0" type="curve" smooth="yes"/>
      <point x="758.0" y="1292.0"/>
      <point x="780.0" y="1319.0"/>
      <point x="780.0" y="1343.0" type="curve" smooth="yes"/>
      <point x="780.0" y="1376.0"/>
      <point x="743.0" y="1395.0"/>
      <point x="696.0" y="1395.0" type="curve" smooth="yes"/>
      <point x="612.0" y="1395.0"/>
      <point x="537.0" y="1325.0"/>
      <point x="537.0" y="1227.0" type="curve" smooth="yes"/>
      <point x="537.0" y="1161.0"/>
      <point x="578.0" y="1110.0"/>
      <point x="607.58" y="1096.66" type="curve" smooth="yes"/>
      <point x="618.9326" y="1091.5402000000001"/>
      <point x="621.0950330479956" y="1079.2878371199956"/>
      <point x="612.180921378714" y="1070.5911428085014" type="curve" smooth="yes"/>
      <point x="588.0" y="1047.0"/>
      <point x="561.0" y="1006.0"/>
    </contour>
  </outline>
</glyph>
<glyph name="uni0610" format="2">
  <unicode hex="0610"/>
  <outline>
    <contour>
      <point x="692.0" y="1608.0" type="curve" smooth="yes"/>
      <point x="575.0" y="1608.0"/>
      <point x="453.0" y="1513.0"/>
      <point x="410.8994332985166" y="1454.0592066179233" type="curve" smooth="yes"/>
      <point x="396.1127336503028" y="1433.357827110424"/>
      <point x="381.078799418079" y="1437.4780468084757"/>
      <point x="378.9123391874021" y="1462.8256315073952" type="curve" smooth="yes"/>
      <point x="373.0" y="1532.0"/>
      <point x="340.0" y="1573.0"/>
      <point x="299.0" y="1573.0" type="curve" smooth="yes"/>
      <point x="262.0" y="1573.0"/>
      <point x="236.0" y="1540.0"/>
      <point x="236.0" y="1501.0" type="curve" smooth="yes"/>
      <point x="236.0" y="1411.0"/>
      <point x="301.0" y="1446.0"/>
      <point x="301.0" y="1325.0" type="curve" smooth="yes"/>
      <point x="301.0" y="1190.0" type="line" smooth="yes"/>
      <point x="301.0" y="1104.0"/>
      <point x="250.0" y="1118.0"/>
      <point x="250.0" y="1044.0" type="curve" smooth="yes"/>
      <point x="250.0" y="1008.0"/>
      <point x="276.0" y="973.0"/>
      <point x="313.0" y="973.0" type="curve" smooth="yes"/>
      <point x="369.0" y="973.0"/>
      <point x="385.0" y="1022.0"/>
      <point x="386.70029097676" y="1173.3258969316419" type="curve" smooth="yes"/>
      <point x="386.8591367590772" y="1187.4631715578716"/>
      <point x="397.4622" y="1193.091"/>
      <point x="409.26" y="1185.3" type="curve" smooth="yes"/>
      <point x="440.0" y="1165.0"/>
      <point x="498.0" y="1151.0"/>
      <point x="569.0" y="1151.0" type="curve" smooth="yes"/>
      <point x="784.0" y="1151.0"/>
      <point x="840.0" y="1309.0"/>
      <point x="840.0" y="1464.0" type="curve" smooth="yes"/>
      <point x="840.0" y="1554.0"/>
      <point x="778.0" y="1608.0"/>
    </contour>
    <contour>
      <point x="674.0" y="1483.0" type="curve" smooth="yes"/>
      <point x="719.0" y="1483.0"/>
      <point x="735.0" y="1460.0"/>
      <point x="735.0" y="1423.0" type="curve" smooth="yes"/>
      <point x="735.0" y="1356.0"/>
      <point x="715.0" y="1268.0"/>
      <point x="565.0" y="1268.0" type="curve" smooth="yes"/>
      <point x="498.0" y="1268.0"/>
      <point x="446.0" y="1276.0"/>
      <point x="417.58" y="1289.92" type="curve" smooth="yes"/>
      <point x="406.6726" y="1295.2624"/>
      <point x="402.58696291725363" y="1309.208142585844"/>
      <point x="408.88715514309285" y="1319.5917927358382" type="curve" smooth="yes"/>
      <point x="451.0" y="1389.0"/>
      <point x="551.0" y="1483.0"/>
    </contour>
  </outline>
</glyph>
<glyph name="uni0614" format="2">
  <unicode hex="0614"/>
  <outline>
    <contour>
      <point x="661.8469895287958" y="1530.0" type="curve" smooth="yes"/>
      <point x="617.3660994764398" y="1530.0"/>
      <point x="617.3660994764398" y="1511.0"/>
      <point x="617.3660994764398" y="1456.0" type="curve" smooth="yes"/>
      <point x="617.3660994764398" y="1405.0" type="line" smooth="yes"/>
      <point x="617.3660994764398" y="1386.0"/>
      <point x="615.8053664921466" y="1358.0"/>
      <point x="594.7354712041885" y="1337.0" type="curve" smooth="yes"/>
      <point x="569.7637434554974" y="1313.0"/>
      <point x="495.62892670157066" y="1296.0"/>
      <point x="182.70196335078538" y="1296.0" type="curve" smooth="yes"/>
      <point x="167.875" y="1296.0"/>
      <point x="167.875" y="1257.0"/>
      <point x="167.875" y="1237.0" type="curve" smooth="yes"/>
      <point x="167.875" y="1212.0"/>
      <point x="167.875" y="1171.0"/>
      <point x="182.70196335078538" y="1171.0" type="curve" smooth="yes"/>
      <point x="240.17536726946605" y="1171.528564453125"/>
      <point x="289.0485218307735" y="1171.808837890625"/>
      <point x="330.858095067209" y="1172.048583984375" type="curve" smooth="yes"/>
      <point x="526.3408063159563" y="1173.16943359375"/>
      <point x="567.4079740034972" y="1173.4049072265625"/>
      <point x="611.123167539267" y="1194.0" type="curve" smooth="yes"/>
      <point x="646.2396596858639" y="1210.0"/>
      <point x="652.4825916230367" y="1221.0"/>
      <point x="657.913942408377" y="1231.44" type="curve" smooth="yes"/>
      <point x="659.9984573821989" y="1235.4468"/>
      <point x="664.203414900546" y="1235.9803606440503"/>
      <point x="666.8606605325197" y="1232.575235412873" type="curve" smooth="yes"/>
      <point x="684.4776178010471" y="1210.0"/>
      <point x="716.4726439790576" y="1192.0"/>
      <point x="780.4626963350786" y="1192.0" type="curve" smooth="yes"/>
      <point x="896.7373036649215" y="1192.0"/>
      <point x="913.125" y="1327.0"/>
      <point x="913.125" y="1395.0" type="curve" smooth="yes"/>
      <point x="913.125" y="1505.0" type="line" smooth="yes"/>
      <point x="913.125" y="1559.0"/>
      <point x="913.125" y="1577.0"/>
      <point x="868.644109947644" y="1577.0" type="curve" smooth="yes"/>
      <point x="828.0650523560209" y="1577.0"/>
      <point x="826.5043193717277" y="1559.0"/>
      <point x="826.5043193717277" y="1505.0" type="curve" smooth="yes"/>
      <point x="826.5043193717277" y="1395.0" type="line" smooth="yes"/>
      <point x="826.5043193717277" y="1366.0"/>
      <point x="824.9435863874346" y="1319.0"/>
      <point x="780.4626963350786" y="1319.0" type="curve" smooth="yes"/>
      <point x="713.3511780104711" y="1319.0"/>
      <point x="705.5475130890052" y="1374.0"/>
      <point x="705.5475130890052" y="1405.0" type="curve" smooth="yes"/>
      <point x="705.5475130890052" y="1456.0" type="line" smooth="yes"/>
      <point x="705.5475130890052" y="1511.0"/>
      <point x="705.5475130890052" y="1530.0"/>
    </contour>
  </outline>
</glyph>
<glyph name="uni0622" format="2">
  <advance width="1228"/>
  <unicode hex="0622"/>
  <unicode hex="FE81"/>
  <outline>
    <contour>
      <point x="625.0" y="1477.0" type="curve" smooth="yes"/>
      <point x="567.0" y="1477.0"/>
      <point x="553.0" y="1456.0"/>
      <point x="553.0" y="1393.0" type="curve" smooth="yes"/>
      <point x="553.0" y="309.0" type="line" smooth="yes"/>
      <point x="553.0" y="246.0"/>
      <point x="565.0" y="225.0"/>
      <point x="623.0" y="225.0" type="curve" smooth="yes"/>
      <point x="680.0" y="225.0"/>
      <point x="694.0" y="246.0"/>
      <point x="694.0" y="309.0" type="curve" smooth="yes"/>
      <point x="694.0" y="1393.0" type="line" smooth="yes"/>
      <point x="694.0" y="1456.0"/>
      <point x="682.0" y="1477.0"/>
    </contour>
    <contour>
      <point x="339.2168961864407" y="1635.0" type="curve" smooth="yes"/>
      <point x="327.375" y="1610.0"/>
      <point x="334.4801377118644" y="1581.0"/>
      <point x="358.9533898305085" y="1558.0" type="curve" smooth="yes"/>
      <point x="384.21610169491527" y="1534.0"/>
      <point x="407.11043432203394" y="1536.0"/>
      <point x="422.89962923728814" y="1560.0" type="curve" smooth="yes"/>
      <point x="459.2147775423729" y="1615.0"/>
      <point x="498.6877648305085" y="1644.0"/>
      <point x="545.2658898305085" y="1644.0" type="curve" smooth="yes"/>
      <point x="642.369438559322" y="1644.0"/>
      <point x="726.0521716101695" y="1496.0"/>
      <point x="854.7341101694915" y="1496.0" type="curve" smooth="yes"/>
      <point x="939.2063029661017" y="1496.0"/>
      <point x="1013.4155190677966" y="1565.0"/>
      <point x="1060.7831038135594" y="1663.0" type="curve" smooth="yes"/>
      <point x="1072.625" y="1688.0"/>
      <point x="1065.5198622881355" y="1717.0"/>
      <point x="1041.0466101694915" y="1740.0" type="curve" smooth="yes"/>
      <point x="1015.7838983050847" y="1764.0"/>
      <point x="992.8895656779661" y="1762.0"/>
      <point x="977.1003707627119" y="1738.0" type="curve" smooth="yes"/>
      <point x="940.7852224576271" y="1683.0"/>
      <point x="901.3122351694915" y="1654.0"/>
      <point x="854.7341101694915" y="1654.0" type="curve" smooth="yes"/>
      <point x="756.8411016949152" y="1654.0"/>
      <point x="673.9478283898305" y="1802.0"/>
      <point x="545.2658898305085" y="1802.0" type="curve" smooth="yes"/>
      <point x="460.7936970338983" y="1802.0"/>
      <point x="386.5844809322034" y="1733.0"/>
    </contour>
  </outline>
</glyph>
<glyph name="uni0626" format="2">
  <advance width="1228"/>
  <unicode hex="0626"/>
  <unicode hex="FE89"/>
  <outline>
    <contour>
      <point x="1036.0" y="279.0" type="curve" smooth="yes"/>
      <point x="1036.0" y="446.0"/>
      <point x="961.0" y="498.8964298917844"/>
      <point x="760.0" y="352.0051691863845" type="curve" smooth="yes"/>
      <point x="604.0" y="185.56095128236512"/>
      <point x="596.0" y="249.54335724127156"/>
      <point x="596.0" y="319.54335724127156" type="curve" smooth="yes"/>
      <point x="596.0" y="448.54335724127156"/>
      <point x="711.0" y="688.1802727748284"/>
      <point x="805.0" y="790.2351125411799" type="curve" smooth="yes"/>
      <point x="920.0" y="876.4515643545524"/>
      <point x="850.0" y="696.2448888122009"/>
      <point x="950.0" y="752.3156851858099" type="curve" smooth="yes"/>
      <point x="995.0" y="758.0"/>
      <point x="1036.0" y="791.0"/>
      <point x="1036.0" y="846.0" type="curve" smooth="yes"/>
      <point x="1036.0" y="956.0"/>
      <point x="928.0" y="1004.8854583739381"/>
      <point x="807.0" y="917.2117589887622" type="curve" smooth="yes"/>
      <point x="612.0" y="708.8315696679283"/>
      <point x="455.0" y="422.3867914816615"/>
      <point x="455.0" y="250.38679148166148" type="curve" smooth="yes"/>
      <point x="455.0" y="94.38679148166148"/>
      <point x="463.0" y="-14.878400585710153"/>
      <point x="760.0" y="227.00516918638448" type="curve" smooth="yes"/>
      <point x="852.0" y="316.8781187313597"/>
      <point x="895.0" y="320.31240479566605"/>
      <point x="895.0" y="249.31240479566608" type="curve" smooth="yes"/>
      <point x="1300.0101655728054" y="-139.6375952043339"/>
      <point x="1222.0101655728054" y="-341.0493989789875"/>
      <point x="492.0" y="-373.78015762403453" type="curve" smooth="yes"/>
      <point x="62.11039754437752" y="-583.75"/>
      <point x="11.11039754437752" y="-429.75"/>
      <point x="180.0" y="-113.94999999999999" type="curve" smooth="yes"/>
      <point x="44.79999999999998" y="-9.099999999999987"/>
      <point x="57.79999999999998" y="56.90000000000001"/>
      <point x="229.0" y="94.05000000000001" type="curve" smooth="yes"/>
      <point x="176.15" y="222.3"/>
      <point x="417.85" y="77.80000000000001"/>
      <point x="334.0" y="223.05" type="curve" smooth="yes"/>
      <point x="334.0" y="269.05"/>
      <point x="301.0" y="309.05"/>
      <point x="246.0" y="309.05" type="curve" smooth="yes"/>
      <point x="-184.95000000000005" y="443.6"/>
      <point x="-235.95000000000005" y="159.60000000000002"/>
      <point x="39.0" y="-113.94999999999999" type="curve" smooth="yes"/>
      <point x="-222.8396024556224" y="-664.4000000000001"/>
      <point x="-60.83960245562241" y="-818"/>
      <point x="492.0" y="-516.7801576240345" type="curve" smooth="yes"/>
      <point x="1375.2571024556223" y="-539.9309056068187"/>
      <point x="1553.2571024556223" y="-312.6"/>
    </contour>
    <contour>
      <point x="535.0" y="1381.8114635505601" type="curve" smooth="yes"/>
      <point x="412.0" y="1356.05"/>
      <point x="330.0" y="1229.05"/>
      <point x="330.0" y="1128.05" type="curve" smooth="yes"/>
      <point x="330.0" y="1046.05"/>
      <point x="381.0" y="979.05"/>
      <point x="428.56" y="964.55" type="curve" smooth="yes"/>
      <point x="446.8132" y="958.9981236269988"/>
      <point x="447.93327403438235" y="946.3772127135153"/>
      <point x="430.94313624336667" y="937.6572855789943" type="curve" smooth="yes"/>
      <point x="375.0" y="909.05"/>
      <point x="303.0" y="885.05"/>
      <point x="303.0" y="831.05" type="curve" smooth="yes"/>
      <point x="303.0" y="793.05"/>
      <point x="328.0" y="768.05"/>
      <point x="354.0" y="768.05" type="curve" smooth="yes"/>
      <point x="389.0" y="768.05"/>
      <point x="535.0" y="871.8114635505601"/>
      <point x="582.0" y="929.9156092659814" type="curve" smooth="yes"/>
      <point x="680.0" y="1081.5596326052273"/>
      <point x="770.0" y="1226.882427294474"/>
      <point x="770.0" y="1248.882427294474" type="curve" smooth="yes"/>
      <point x="770.0" y="1273.882427294474"/>
      <point x="741.0" y="1298.9464457781392"/>
      <point x="723.0" y="1278.713220527098" type="curve" smooth="yes"/>
      <point x="678.0" y="1228.3611066734504"/>
      <point x="651.0" y="1156.3806469176084"/>
      <point x="575.0" y="1086.4328876369857" type="curve" smooth="yes"/>
      <point x="506.0" y="1046.053699233044"/>
      <point x="444.0" y="1079.05"/>
      <point x="444.0" y="1128.05" type="curve" smooth="yes"/>
      <point x="444.0" y="1192.05"/>
      <point x="475.0" y="1231.995849082532"/>
      <point x="535.0" y="1254.8114635505601" type="curve" smooth="yes"/>
      <point x="600.0" y="1302.0195882590062"/>
      <point x="557.0" y="1210.4232128657206"/>
      <point x="633.0" y="1275.0068225633268" type="curve" smooth="yes"/>
      <point x="672.0" y="1315.8024120997952"/>
      <point x="705.0" y="1379.4246367566793"/>
      <point x="705.0" y="1424.4246367566793" type="curve" smooth="yes"/>
      <point x="705.0" y="1529.4246367566793"/>
      <point x="598.0" y="1427.2732158560711"/>
    </contour>
  </outline>
</glyph>
<glyph name="uni0628" format="2">
  <advance width="1478"/>
  <unicode hex="0628"/>
  <unicode hex="FE8F"/>
  <outline>
    <contour>
      <point x="229.0" y="815.25" type="curve" smooth="yes"/>
      <point x="119.0" y="815.25"/>
      <point x="57.0" y="649.25"/>
      <point x="57.0" y="471.25" type="curve" smooth="yes"/>
      <point x="57.0" y="327.25"/>
      <point x="78.0" y="157.25"/>
      <point x="219.0" y="157.25" type="curve" smooth="yes"/>
      <point x="1204.5" y="225.0" type="line" smooth="yes"/>
      <point x="1262.5" y="225.0"/>
      <point x="1276.5" y="246.0"/>
      <point x="1276.5" y="309.0" type="curve" smooth="yes"/>
      <point x="1276.5" y="799.0" type="line" smooth="yes"/>
      <point x="1276.5" y="862.0"/>
      <point x="1264.5" y="883.0"/>
      <point x="1206.5" y="883.0" type="curve" smooth="yes"/>
      <point x="1149.5" y="881.6545063729396"/>
      <point x="1135.5" y="859.8904460139852"/>
      <point x="1135.5" y="796.8904460139852" type="curve" smooth="yes"/>
      <point x="1135.5" y="414.89044601398524" type="line" smooth="yes"/>
      <point x="1135.5" y="389.45044601398524"/>
      <point x="1112.94" y="365.3150778360157"/>
      <point x="1087.5" y="363.05314661147514" type="curve" smooth="yes"/>
      <point x="234.90447410008736" y="301.25" type="line" smooth="yes"/>
      <point x="227.53510282704104" y="301.25"/>
      <point x="218.2364" y="307.172"/>
      <point x="215.12" y="313.85" type="curve" smooth="yes"/>
      <point x="207.0" y="331.25"/>
      <point x="199.0" y="366.25"/>
      <point x="199.0" y="471.25" type="curve" smooth="yes"/>
      <point x="199.0" y="671.25"/>
      <point x="317.0" y="628.25"/>
      <point x="317.0" y="729.25" type="curve" smooth="yes"/>
      <point x="317.0" y="774.25"/>
      <point x="285.0" y="815.25"/>
    </contour>
    <contour>
      <point x="737.5" y="-184.38915906190914" type="curve" smooth="yes"/>
      <point x="737.5" y="-225.38915906190914"/>
      <point x="836.5" y="-327.38915906190914"/>
      <point x="873.5" y="-327.38915906190914" type="curve" smooth="yes"/>
      <point x="905.5" y="-327.38915906190914"/>
      <point x="1008.5" y="-229.38915906190914"/>
      <point x="1008.5" y="-184.38915906190914" type="curve" smooth="yes"/>
      <point x="1008.5" y="-145.38915906190914"/>
      <point x="907.5" y="-38.389159061909126"/>
      <point x="873.5" y="-38.389159061909126" type="curve" smooth="yes"/>
      <point x="838.5" y="-38.389159061909126"/>
      <point x="737.5" y="-141.38915906190914"/>
    </contour>
  </outline>
</glyph>
<glyph name="uni062A" format="2">
  <advance width="1478"/>
  <unicode hex="062A"/>
  <unicode hex="FE95"/>
  <outline>
    <contour>
      <point x="229.0" y="815.25" type="curve" smooth="yes"/>
      <point x="119.0" y="815.25"/>
      <point x="57.0" y="649.25"/>
      <point x="57.0" y="471.25" type="curve" smooth="yes"/>
      <point x="57.0" y="327.25"/>
      <point x="78.0" y="157.25"/>
      <point x="219.0" y="157.25" type="curve" smooth="yes"/>
      <point x="1204.5" y="225.0" type="line" smooth="yes"/>
      <point x="1262.5" y="225.0"/>
      <point x="1276.5" y="246.0"/>
      <point x="1276.5" y="309.0" type="curve" smooth="yes"/>
      <point x="1276.5" y="799.0" type="line" smooth="yes"/>
      <point x="1276.5" y="862.0"/>
      <point x="1264.5" y="883.0"/>
      <point x="1206.5" y="883.0" type="curve" smooth="yes"/>
      <point x="1149.5" y="881.6545063729396"/>
      <point x="1135.5" y="859.8904460139852"/>
      <point x="1135.5" y="796.8904460139852" type="curve" smooth="yes"/>
      <point x="1135.5" y="414.89044601398524" type="line" smooth="yes"/>
      <point x="1135.5" y="389.45044601398524"/>
      <point x="1112.94" y="365.3150778360157"/>
      <point x="1087.5" y="363.05314661147514" type="curve" smooth="yes"/>
      <point x="234.90447410008736" y="301.25" type="line" smooth="yes"/>
      <point x="227.53510282704104" y="301.25"/>
      <point x="218.2364" y="307.172"/>
      <point x="215.12" y="313.85" type="curve" smooth="yes"/>
      <point x="207.0" y="331.25"/>
      <point x="199.0" y="366.25"/>
      <point x="199.0" y="471.25" type="curve" smooth="yes"/>
      <point x="199.0" y="671.25"/>
      <point x="317.0" y="628.25"/>
      <point x="317.0" y="729.25" type="curve" smooth="yes"/>
      <point x="317.0" y="774.25"/>
      <point x="285.0" y="815.25"/>
    </contour>
    <contour>
      <point x="268.0" y="1183.25" type="curve" smooth="yes"/>
      <point x="268.0" y="1142.25"/>
      <point x="367.0" y="1040.25"/>
      <point x="404.0" y="1040.25" type="curve" smooth="yes"/>
      <point x="436.0" y="1040.25"/>
      <point x="539.0" y="1138.25"/>
      <point x="539.0" y="1183.25" type="curve" smooth="yes"/>
      <point x="539.0" y="1222.25"/>
      <point x="438.0" y="1329.25"/>
      <point x="404.0" y="1329.25" type="curve" smooth="yes"/>
      <point x="369.0" y="1329.25"/>
      <point x="268.0" y="1226.25"/>
    </contour>
    <contour>
      <point x="840.5" y="1273.1895085852373" type="curve" smooth="yes"/>
      <point x="840.5" y="1232.1895085852373"/>
      <point x="939.5" y="1130.1895085852373"/>
      <point x="976.5" y="1130.1895085852373" type="curve" smooth="yes"/>
      <point x="1008.5" y="1130.1895085852373"/>
      <point x="1111.5" y="1228.1895085852373"/>
      <point x="1111.5" y="1273.1895085852373" type="curve" smooth="yes"/>
      <point x="1111.5" y="1312.1895085852373"/>
      <point x="1010.5" y="1419.1895085852373"/>
      <point x="976.5" y="1419.1895085852373" type="curve" smooth="yes"/>
      <point x="941.5" y="1419.1895085852373"/>
      <point x="840.5" y="1316.1895085852373"/>
    </contour>
  </outline>
</glyph>
<glyph name="uni062B" format="2">
  <advance width="1228"/>
  <unicode hex="062B"/>
  <unicode hex="FE99"/>
  <outline>
    <contour>
      <point x="229.0" y="815.25" type="curve" smooth="yes"/>
      <point x="119.0" y="815.25"/>
      <point x="57.0" y="649.25"/>
      <point x="57.0" y="471.25" type="curve" smooth="yes"/>
      <point x="57.0" y="327.25"/>
      <point x="78.0" y="157.25"/>
      <point x="219.0" y="157.25" type="curve" smooth="yes"/>
      <point x="954.0" y="225.0" type="line" smooth="yes"/>
      <point x="1012.0" y="225.0"/>
      <point x="1026.0" y="246.0"/>
      <point x="1026.0" y="309.0" type="curve" smooth="yes"/>
      <point x="1026.0" y="799.0" type="line" smooth="yes"/>
      <point x="1026.0" y="862.0"/>
      <point x="1014.0" y="883.0"/>
      <point x="956.0" y="883.0" type="curve" smooth="yes"/>
      <point x="899.0" y="880.5939373473468"/>
      <point x="885.0" y="858.2391635029684"/>
      <point x="885.0" y="795.2391635029684" type="curve" smooth="yes"/>
      <point x="885.0" y="413.23916350296844" type="line" smooth="yes"/>
      <point x="885.0" y="387.79916350296844"/>
      <point x="862.44" y="362.4726833871077"/>
      <point x="837.0" y="358.56511269626816" type="curve" smooth="yes"/>
      <point x="234.90447410008736" y="301.25" type="line" smooth="yes"/>
      <point x="227.53510282704104" y="301.25"/>
      <point x="218.2364" y="307.172"/>
      <point x="215.12" y="313.85" type="curve" smooth="yes"/>
      <point x="207.0" y="331.25"/>
      <point x="199.0" y="366.25"/>
      <point x="199.0" y="471.25" type="curve" smooth="yes"/>
      <point x="199.0" y="671.25"/>
      <point x="317.0" y="628.25"/>
      <point x="317.0" y="729.25" type="curve" smooth="yes"/>
      <point x="317.0" y="774.25"/>
      <point x="285.0" y="815.25"/>
    </contour>
    <contour>
      <point x="268.0" y="1183.25" type="curve" smooth="yes"/>
      <point x="268.0" y="1142.25"/>
      <point x="367.0" y="1040.25"/>
      <point x="404.0" y="1040.25" type="curve" smooth="yes"/>
      <point x="436.0" y="1040.25"/>
      <point x="539.0" y="1138.25"/>
      <point x="539.0" y="1183.25" type="curve" smooth="yes"/>
      <point x="539.0" y="1222.25"/>
      <point x="438.0" y="1329.25"/>
      <point x="404.0" y="1329.25" type="curve" smooth="yes"/>
      <point x="369.0" y="1329.25"/>
      <point x="268.0" y="1226.25"/>
    </contour>
    <contour>
      <point x="590.0" y="1259.9732033975492" type="curve" smooth="yes"/>
      <point x="590.0" y="1218.9732033975492"/>
      <point x="689.0" y="1116.9732033975492"/>
      <point x="726.0" y="1116.9732033975492" type="curve" smooth="yes"/>
      <point x="758.0" y="1116.9732033975492"/>
      <point x="861.0" y="1214.9732033975492"/>
      <point x="861.0" y="1259.9732033975492" type="curve" smooth="yes"/>
      <point x="861.0" y="1298.9732033975492"/>
      <point x="760.0" y="1405.9732033975492"/>
      <point x="726.0" y="1405.9732033975492" type="curve" smooth="yes"/>
      <point x="691.0" y="1405.9732033975492"/>
      <point x="590.0" y="1302.9732033975492"/>
    </contour>
    <contour>
      <point x="403.0" y="1501.5425924894146" type="curve" smooth="yes"/>
      <point x="403.0" y="1460.5425924894146"/>
      <point x="502.0" y="1358.5425924894146"/>
      <point x="539.0" y="1358.5425924894146" type="curve" smooth="yes"/>
      <point x="571.0" y="1358.5425924894146"/>
      <point x="674.0" y="1456.5425924894146"/>
      <point x="674.0" y="1501.5425924894146" type="curve" smooth="yes"/>
      <point x="674.0" y="1540.5425924894146"/>
      <point x="573.0" y="1647.5425924894146"/>
      <point x="539.0" y="1647.5425924894146" type="curve" smooth="yes"/>
      <point x="504.0" y="1647.5425924894146"/>
      <point x="403.0" y="1544.5425924894146"/>
    </contour>
  </outline>
</glyph>
<glyph name="uni0633" format="2">
  <advance width="1775"/>
  <unicode hex="0633"/>
  <unicode hex="FEB1"/>
  <outline>
    <contour>
      <point x="577.0228875819816" y="369.0" type="curve" smooth="yes"/>
      <point x="254.0" y="369.0"/>
      <point x="239.0" y="435.734388929657"/>
      <point x="239.0" y="480.734388929657" type="curve" smooth="yes"/>
      <point x="239.0" y="900.734388929657" type="line" smooth="yes"/>
      <point x="239.0" y="908.5310808241883"/>
      <point x="239.1632537841797" y="915.6825825210419"/>
      <point x="239.3125762939453" y="922.2237560887767" type="curve" smooth="yes"/>
      <point x="240.38894653320312" y="969.373342138703"/>
      <point x="240.74142456054688" y="984.8118332722305"/>
      <point x="174.0" y="972.6310146805056" type="curve" smooth="yes"/>
      <point x="106.76268768310547" y="943.9183280666708"/>
      <point x="107.38777923583984" y="928.9926954006698"/>
      <point x="109.29296875" y="883.4963317436424" type="curve" smooth="yes"/>
      <point x="109.56959533691406" y="876.8896525795402"/>
      <point x="109.87321472167969" y="869.6383156146783"/>
      <point x="110.0" y="861.5888583787415" type="curve" smooth="yes"/>
      <point x="110.0" y="185.5888583787415" type="line" smooth="yes"/>
      <point x="109.0" y="-70.92467525517523"/>
      <point x="95.0" y="-233.33624125834925"/>
      <point x="-78.0" y="-327.9073039441214" type="curve" smooth="yes"/>
      <point x="-202.0" y="-348.6"/>
      <point x="-315.0" y="-246.6"/>
      <point x="-316.0" y="11.400000000000006" type="curve" smooth="yes"/>
      <point x="-312.9185485839844" y="187.04251708984376"/>
      <point x="-248.68724060058594" y="227.85150756835938"/>
      <point x="-205.46627807617188" y="255.31168212890626" type="curve" smooth="yes"/>
      <point x="-178.55630493164062" y="272.40875854492185"/>
      <point x="-159.79095458984375" y="284.99695698382266"/>
      <point x="-169.0" y="320.547955310058" type="curve"/>
      <point x="-165.0" y="365.72725533883636"/>
      <point x="-198.0" y="406.4"/>
      <point x="-272.0" y="406.4" type="curve" smooth="yes"/>
      <point x="-469.0" y="406.4"/>
      <point x="-471.0" y="150.4"/>
      <point x="-471.0" y="11.400000000000006" type="curve" smooth="yes"/>
      <point x="-472.0" y="-301.6"/>
      <point x="-325.0" y="-492.6"/>
      <point x="-78.0" y="-471.9073039441214" type="curve" smooth="yes"/>
      <point x="253.088623046875" y="-330.0"/>
      <point x="253.0471954345703" y="-72.1288070678711"/>
      <point x="253.00108337402344" y="214.8184814453125" type="curve" smooth="yes"/>
      <point x="253.00054931640625" y="218.20838928222656"/>
      <point x="253.0" y="221.60235595703125"/>
      <point x="253.0" y="225.0" type="curve"/>
      <point x="577.0228875819816" y="225.0" type="line" smooth="yes"/>
      <point x="1005.4993959478061" y="225.0"/>
      <point x="1071.499395947806" y="268.0"/>
      <point x="1098.179395947806" y="292.94" type="curve" smooth="yes"/>
      <point x="1108.418995947806" y="302.5118"/>
      <point x="1127.0784640888876" y="303.0788474987211"/>
      <point x="1137.8803919926604" y="294.14648403983205" type="curve" smooth="yes"/>
      <point x="1169.499395947806" y="268.0"/>
      <point x="1206.499395947806" y="225.0"/>
      <point x="1328.499395947806" y="225.0" type="curve" smooth="yes"/>
      <point x="1534.499395947806" y="225.0"/>
      <point x="1560.499395947806" y="395.0"/>
      <point x="1560.499395947806" y="481.0" type="curve" smooth="yes"/>
      <point x="1560.499395947806" y="901.0" type="line" smooth="yes"/>
      <point x="1560.499395947806" y="910.4165649414062"/>
      <point x="1560.8024965337436" y="918.8806762695312"/>
      <point x="1561.0741640142123" y="926.4686279296875" type="curve" smooth="yes"/>
      <point x="1562.6491151860873" y="970.452392578125"/>
      <point x="1563.170050244681" y="985.0"/>
      <point x="1497.499395947806" y="985.0" type="curve" smooth="yes"/>
      <point x="1443.6836000493686" y="985.0"/>
      <point x="1444.3864809087436" y="971.7027587890625"/>
      <point x="1446.480108838431" y="932.0972900390625" type="curve" smooth="yes"/>
      <point x="1446.9541078618686" y="923.1304321289062"/>
      <point x="1447.499395947806" y="912.8150024414062"/>
      <point x="1447.499395947806" y="901.0" type="curve" smooth="yes"/>
      <point x="1447.499395947806" y="481.0" type="line" smooth="yes"/>
      <point x="1447.499395947806" y="436.0"/>
      <point x="1432.499395947806" y="369.0"/>
      <point x="1328.499395947806" y="369.0" type="curve" smooth="yes"/>
      <point x="1226.499395947806" y="369.0"/>
      <point x="1169.499395947806" y="422.0"/>
      <point x="1167.499395947806" y="481.0" type="curve" smooth="yes"/>
      <point x="1167.499395947806" y="799.0" type="line" smooth="yes"/>
      <point x="1167.499395947806" y="811.755859375"/>
      <point x="1168.2783266118686" y="822.7899169921875"/>
      <point x="1168.9480043462436" y="832.2764282226562" type="curve" smooth="yes"/>
      <point x="1171.5857606938998" y="869.6430053710938"/>
      <point x="1172.528692822806" y="883.0"/>
      <point x="1117.499395947806" y="883.0" type="curve" smooth="yes"/>
      <point x="1061.5222230962436" y="883.0"/>
      <point x="1062.458624463431" y="869.5709838867188"/>
      <point x="1065.080206494681" y="831.9740600585938" type="curve" smooth="yes"/>
      <point x="1065.7368837407748" y="822.5556030273438"/>
      <point x="1066.499395947806" y="811.6205444335938"/>
      <point x="1066.499395947806" y="799.0" type="curve" smooth="yes"/>
      <point x="1066.499395947806" y="481.0" type="line" smooth="yes"/>
      <point x="1064.499395947806" y="422.0"/>
      <point x="1007.4993959478061" y="369.0"/>
    </contour>
  </outline>
</glyph>
<glyph name="uni0635" format="2">
  <advance width="1228"/>
  <unicode hex="0635"/>
  <unicode hex="FEB9"/>
  <outline>
    <contour>
      <point x="-82.0" y="-329.91774664549547" type="curve" smooth="yes"/>
      <point x="-206.0" y="-348.6"/>
      <point x="-318.0" y="-246.6"/>
      <point x="-320.0" y="11.400000000000006" type="curve" smooth="yes"/>
      <point x="-316.30364990234375" y="186.9772705078125"/>
      <point x="-251.8823699951172" y="227.82117309570313"/>
      <point x="-208.571044921875" y="255.28107299804688" type="curve" smooth="yes"/>
      <point x="-181.57870483398438" y="272.3945373535156"/>
      <point x="-162.78546142578125" y="284.7501874003917"/>
      <point x="-172.0" y="320.4560466302959" type="curve"/>
      <point x="-169.0" y="365.54122401882"/>
      <point x="-202.0" y="406.4"/>
      <point x="-276.0" y="406.4" type="curve" smooth="yes"/>
      <point x="-473.0" y="406.4"/>
      <point x="-475.0" y="150.4"/>
      <point x="-474.0" y="11.400000000000006" type="curve" smooth="yes"/>
      <point x="-476.0" y="-301.6"/>
      <point x="-328.0" y="-492.6"/>
      <point x="-82.0" y="-473.91774664549547" type="curve" smooth="yes"/>
      <point x="253.0" y="-330.00770947118934"/>
      <point x="252.0" y="-66.0180009094044"/>
      <point x="262.8578066521851" y="177.04782582968133" type="curve" smooth="yes"/>
      <point x="263.993169126527" y="202.46247813995024"/>
      <point x="287.55685422829197" y="225.37673242970007"/>
      <point x="312.99330686870627" y="225.801558361064" type="curve" smooth="yes"/>
      <point x="744.0" y="233.0"/>
      <point x="1024.0" y="414.0"/>
      <point x="1020.0" y="721.0" type="curve" smooth="yes"/>
      <point x="1023.0" y="836.0"/>
      <point x="937.0" y="940.0"/>
      <point x="760.0" y="940.0" type="curve" smooth="yes"/>
      <point x="502.0" y="940.0"/>
      <point x="350.0" y="727.0"/>
      <point x="260.666311992536" y="636.2137316997317" type="curve" smooth="yes"/>
      <point x="242.82316663649192" y="617.767435836541"/>
      <point x="224.13652386654772" y="622.3523010989425"/>
      <point x="220.9074975883994" y="647.1412653370644" type="curve" smooth="yes"/>
      <point x="200.0" y="806.6076097051179"/>
      <point x="155.0" y="919.4748871344748"/>
      <point x="71.0" y="877.5101979594303" type="curve" smooth="yes"/>
      <point x="-3.0" y="834.3125447557196"/>
      <point x="-36.0" y="775.5774580566209"/>
      <point x="-32.0" y="732.617739382138" type="curve"/>
      <point x="-38.512081146240234" y="693.1360087877774"/>
      <point x="-22.119029998779297" y="684.1596857825016"/>
      <point x="1.5528568029403687" y="672.0388378061142" type="curve" smooth="yes"/>
      <point x="43.312259674072266" y="651.9764055168733"/>
      <point x="107.72356414794922" y="619.7713248817278"/>
      <point x="109.0" y="382.3765446071344" type="curve" smooth="yes"/>
      <point x="109.0" y="183.3765446071344" type="line" smooth="yes"/>
      <point x="109.0" y="-72.6234553928656"/>
      <point x="91.0" y="-237.22516128289732"/>
    </contour>
    <contour>
      <point x="317.0" y="373.0" type="curve" smooth="yes"/>
      <point x="291.56" y="373.0"/>
      <point x="272.68287243059683" y="395.25735947186797"/>
      <point x="276.8358987885039" y="420.3560839826978" type="curve" smooth="yes"/>
      <point x="292.0" y="512.0"/>
      <point x="512.0" y="797.0"/>
      <point x="719.0" y="797.0" type="curve" smooth="yes"/>
      <point x="816.0" y="797.0"/>
      <point x="861.0" y="739.0"/>
      <point x="862.0" y="678.0" type="curve" smooth="yes"/>
      <point x="857.0" y="506.0"/>
      <point x="628.0" y="373.0"/>
    </contour>
  </outline>
</glyph>
<glyph name="uni0636" format="2">
  <advance width="1228"/>
  <unicode hex="0636"/>
  <unicode hex="FEBD"/>
  <outline>
    <contour>
      <point x="-297.87661996824323" y="-449.8492021834084" type="curve" smooth="yes"/>
      <point x="-449.9" y="-484.1"/>
      <point x="-561.9" y="-382.1"/>
      <point x="-563.9" y="-124.10000000000002" type="curve" smooth="yes"/>
      <point x="-560.2036499023437" y="51.47727050781248"/>
      <point x="-495.78236999511716" y="92.3211730957031"/>
      <point x="-452.471044921875" y="119.78107299804685" type="curve" smooth="yes"/>
      <point x="-425.47870483398435" y="136.8945373535156"/>
      <point x="-406.0247280546859" y="149.61726149544467"/>
      <point x="-415.81593005455625" y="185.0027521555424" type="curve"/>
      <point x="-412.6881639717701" y="230.15891070116987"/>
      <point x="-445.9" y="270.9"/>
      <point x="-519.9" y="270.9" type="curve" smooth="yes"/>
      <point x="-716.9" y="270.9"/>
      <point x="-718.9" y="14.899999999999977"/>
      <point x="-717.9" y="-124.10000000000002" type="curve" smooth="yes"/>
      <point x="-719.9" y="-437.1"/>
      <point x="-571.9" y="-628.1"/>
      <point x="-297.87661996824323" y="-593.8492021834084" type="curve" smooth="yes"/>
      <point x="252.98843579321598" y="-330.0141340305138"/>
      <point x="251.9729986358934" y="-66.03300166724141"/>
      <point x="262.8578066521851" y="177.04782582968133" type="curve" smooth="yes"/>
      <point x="263.993169126527" y="202.46247813995024"/>
      <point x="287.55685422829197" y="225.37673242970007"/>
      <point x="312.99330686870627" y="225.801558361064" type="curve" smooth="yes"/>
      <point x="744.0" y="233.0"/>
      <point x="1024.0" y="414.0"/>
      <point x="1020.0" y="721.0" type="curve" smooth="yes"/>
      <point x="1023.0" y="836.0"/>
      <point x="937.0" y="940.0"/>
      <point x="760.0" y="940.0" type="curve" smooth="yes"/>
      <point x="502.0" y="940.0"/>
      <point x="350.0" y="727.0"/>
      <point x="260.666311992536" y="636.2137316997317" type="curve" smooth="yes"/>
      <point x="242.35363954299268" y="617.5065874512637"/>
      <point x="221.0986719506041" y="620.6646055900849"/>
      <point x="217.2017284357889" y="645.0825046967252" type="curve" smooth="yes"/>
      <point x="190.41141455767675" y="801.280617792716"/>
      <point x="124.21233070171215" y="902.3706264132037"/>
      <point x="-22.734703060854542" y="825.4353629256223" type="curve" smooth="yes"/>
      <point x="-161.5311828664206" y="746.239665385486"/>
      <point x="-221.1338129150686" y="672.7253397704717"/>
      <point x="-214.073390926793" y="631.4658555339197" type="curve"/>
      <point x="-225.5407339801992" y="589.2312016578002"/>
      <point x="-196.4199371160425" y="587.3258484951332"/>
      <point x="-153.10723975937267" y="586.1165619381625" type="curve" smooth="yes"/>
      <point x="-74.71986666975832" y="586.4030019925231"/>
      <point x="44.29778779866582" y="584.5347824654592"/>
      <point x="46.5648169107016" y="347.69033177974643" type="curve" smooth="yes"/>
      <point x="46.5648169107016" y="148.6903317797464" type="line" smooth="yes"/>
      <point x="46.5648169107016" y="-107.3096682202536"/>
      <point x="14.162258075654009" y="-279.9127956853118"/>
    </contour>
    <contour>
      <point x="317.0" y="373.0" type="curve" smooth="yes"/>
      <point x="291.56" y="373.0"/>
      <point x="272.68287243059683" y="395.25735947186797"/>
      <point x="276.8358987885039" y="420.3560839826978" type="curve" smooth="yes"/>
      <point x="292.0" y="512.0"/>
      <point x="512.0" y="797.0"/>
      <point x="719.0" y="797.0" type="curve" smooth="yes"/>
      <point x="816.0" y="797.0"/>
      <point x="861.0" y="739.0"/>
      <point x="862.0" y="678.0" type="curve" smooth="yes"/>
      <point x="857.0" y="506.0"/>
      <point x="628.0" y="373.0"/>
    </contour>
    <contour>
      <point x="538.0" y="1308.0" type="curve" smooth="yes"/>
      <point x="538.0" y="1267.0"/>
      <point x="637.0" y="1165.0"/>
      <point x="674.0" y="1165.0" type="curve" smooth="yes"/>
      <point x="706.0" y="1165.0"/>
      <point x="809.0" y="1263.0"/>
      <point x="809.0" y="1308.0" type="curve" smooth="yes"/>
      <point x="809.0" y="1347.0"/>
      <point x="708.0" y="1454.0"/>
      <point x="674.0" y="1454.0" type="curve" smooth="yes"/>
      <point x="639.0" y="1454.0"/>
      <point x="538.0" y="1351.0"/>
    </contour>
  </outline>
</glyph>
<glyph name="uni063C" format="2">
  <advance width="1228"/>
  <unicode hex="063C"/>
  <outline>
    <contour>
      <point x="229.0" y="463.3" type="curve" smooth="yes"/>
      <point x="119.0" y="463.3"/>
      <point x="57.0" y="295.3"/>
      <point x="57.0" y="222.3" type="curve" smooth="yes"/>
      <point x="-64.55000000000001" y="29.000000000000014"/>
      <point x="-43.55000000000001" y="-56.999999999999986"/>
      <point x="199.0" y="35.30000000000001" type="curve" smooth="yes"/>
      <point x="954.0" y="225.0" type="line" smooth="yes"/>
      <point x="1012.0" y="225.0"/>
      <point x="1026.0" y="246.0"/>
      <point x="1026.0" y="309.0" type="curve" smooth="yes"/>
      <point x="1026.0" y="367.0" type="line" smooth="yes"/>
      <point x="1026.0" y="440.0"/>
      <point x="1012.0" y="473.0"/>
      <point x="977.0" y="508.0" type="curve" smooth="yes"/>
      <point x="590.0" y="733.5225197009613" type="line" smooth="yes"/>
      <point x="561.0" y="752.0949502924899"/>
      <point x="545.0" y="769.6638257542977"/>
      <point x="545.0" y="794.6638257542977" type="curve" smooth="yes"/>
      <point x="545.0" y="823.6638257542977"/>
      <point x="565.0" y="859.3544691825741"/>
      <point x="612.0" y="923.2876432762123" type="curve" smooth="yes"/>
      <point x="989.0" y="1456.0" type="line" smooth="yes"/>
      <point x="1014.0" y="1481.0"/>
      <point x="1026.0" y="1499.0"/>
      <point x="1026.0" y="1518.0" type="curve" smooth="yes"/>
      <point x="1026.0" y="1544.0"/>
      <point x="977.0" y="1593.0"/>
      <point x="950.0" y="1592.9658238054776" type="curve" smooth="yes"/>
      <point x="932.0" y="1591.9679849467875"/>
      <point x="913.0" y="1577.4317480175873"/>
      <point x="889.0" y="1547.1170297213127" type="curve" smooth="yes"/>
      <point x="514.0" y="993.9817246274025" type="line" smooth="yes"/>
      <point x="426.0" y="904.3"/>
      <point x="383.0" y="844.3"/>
      <point x="383.0" y="787.3" type="curve" smooth="yes"/>
      <point x="383.0" y="734.3"/>
      <point x="420.0" y="682.3"/>
      <point x="489.0" y="611.3205275691903" type="curve" smooth="yes"/>
      <point x="862.0" y="404.4868676101353" type="line" smooth="yes"/>
      <point x="879.0" y="394.23577450855225"/>
      <point x="885.0" y="387.010288191976"/>
      <point x="885.0" y="369.610288191976" type="curve" smooth="yes"/>
      <point x="885.0" y="362.932288191976"/>
      <point x="879.078" y="355.2597138743931"/>
      <point x="872.4" y="353.1283391825109" type="curve" smooth="yes"/>
      <point x="226.5131884043993" y="177.3" type="line" smooth="yes"/>
      <point x="222.53119855006767" y="177.3"/>
      <point x="217.42079999999999" y="180.45840000000004"/>
      <point x="215.64" y="184.02000000000004" type="curve" smooth="yes"/>
      <point x="186.11800000000002" y="187.68400000000003"/>
      <point x="182.11800000000002" y="203.68400000000003"/>
      <point x="207.0" y="222.3" type="curve" smooth="yes"/>
      <point x="207.0" y="304.3"/>
      <point x="317.0" y="285.3"/>
      <point x="317.0" y="377.3" type="curve" smooth="yes"/>
      <point x="317.0" y="422.3"/>
      <point x="285.0" y="463.3"/>
    </contour>
    <contour>
      <point x="438.0" y="-640.7745224797746" type="curve" smooth="yes"/>
      <point x="345.05" y="-770.1745224797746"/>
      <point x="444.05" y="-818"/>
      <point x="574.0" y="-783.7745224797746" type="curve" smooth="yes"/>
      <point x="698.95" y="-818"/>
      <point x="801.95" y="-773.5245224797746"/>
      <point x="709.0" y="-640.7745224797746" type="curve" smooth="yes"/>
      <point x="803.9" y="-514.0245224797746"/>
      <point x="702.9" y="-407.02452247977465"/>
      <point x="574.0" y="-494.77452247977465" type="curve" smooth="yes"/>
      <point x="444.1" y="-406.37452247977467"/>
      <point x="343.1" y="-509.37452247977467"/>
    </contour>
    <contour>
      <point x="249.0" y="-380.7" type="curve" smooth="yes"/>
      <point x="156.04999999999995" y="-510.1"/>
      <point x="255.04999999999995" y="-612.1"/>
      <point x="385.0" y="-523.7" type="curve" smooth="yes"/>
      <point x="509.95000000000005" y="-611.45"/>
      <point x="612.95" y="-513.45"/>
      <point x="520.0" y="-380.7" type="curve" smooth="yes"/>
      <point x="614.9" y="-253.95"/>
      <point x="513.9" y="-146.95"/>
      <point x="385.0" y="-234.7" type="curve" smooth="yes"/>
      <point x="255.1" y="-146.29999999999998"/>
      <point x="154.1" y="-249.29999999999998"/>
    </contour>
    <contour>
      <point x="571.0" y="-249.40029102904273" type="curve" smooth="yes"/>
      <point x="478.05" y="-378.8002910290427"/>
      <point x="577.05" y="-480.8002910290427"/>
      <point x="707.0" y="-392.4002910290427" type="curve" smooth="yes"/>
      <point x="831.95" y="-480.1502910290427"/>
      <point x="934.95" y="-382.1502910290427"/>
      <point x="842.0" y="-249.40029102904273" type="curve" smooth="yes"/>
      <point x="936.9" y="-122.65029102904273"/>
      <point x="835.9" y="-15.650291029042734"/>
      <point x="707.0" y="-103.40029102904273" type="curve" smooth="yes"/>
      <point x="577.1" y="-15.000291029042728"/>
      <point x="476.1" y="-118.00029102904273"/>
    </contour>
  </outline>
</glyph>
<glyph name="uni0641" format="2">
  <advance width="1228"/>
  <unicode hex="0641"/>
  <unicode hex="FED1"/>
  <outline>
    <contour>
      <point x="229.0" y="815.25" type="curve" smooth="yes"/>
      <point x="119.0" y="815.25"/>
      <point x="57.0" y="649.25"/>
      <point x="57.0" y="471.25" type="curve" smooth="yes"/>
      <point x="57.0" y="327.25"/>
      <point x="78.0" y="157.25"/>
      <point x="219.0" y="157.25" type="curve" smooth="yes"/>
      <point x="954.0" y="225.0" type="line" smooth="yes"/>
      <point x="1012.0" y="225.0"/>
      <point x="1026.0" y="246.0"/>
      <point x="1026.0" y="309.0" type="curve" smooth="yes"/>
      <point x="1026.0" y="909.0" type="line" smooth="yes"/>
      <point x="1026.0" y="1030.0"/>
      <point x="995.0" y="1098.0"/>
      <point x="856.0" y="1090.5585022935022" type="curve" smooth="yes"/>
      <point x="618.0" y="1041.1441329142922"/>
      <point x="498.0" y="901.25"/>
      <point x="498.0" y="729.25" type="curve" smooth="yes"/>
      <point x="498.0" y="561.25"/>
      <point x="567.0" y="484.97881699704834"/>
      <point x="772.0" y="525.6551202767582" type="curve" smooth="yes"/>
      <point x="811.0" y="533.8294920400575"/>
      <point x="856.0" y="545.5585022935021"/>
      <point x="872.82" y="551.3119846030901" type="curve" smooth="yes"/>
      <point x="879.2754" y="553.4192483162184"/>
      <point x="885.0" y="549.3933232280378"/>
      <point x="885.0" y="542.8012054712012" type="curve" smooth="yes"/>
      <point x="885.0" y="413.23916350296844" type="line" smooth="yes"/>
      <point x="885.0" y="387.79916350296844"/>
      <point x="862.44" y="362.4726833871077"/>
      <point x="837.0" y="358.56511269626816" type="curve" smooth="yes"/>
      <point x="234.90447410008736" y="301.25" type="line" smooth="yes"/>
      <point x="227.53510282704104" y="301.25"/>
      <point x="218.2364" y="307.172"/>
      <point x="215.12" y="313.85" type="curve" smooth="yes"/>
      <point x="207.0" y="331.25"/>
      <point x="199.0" y="366.25"/>
      <point x="199.0" y="471.25" type="curve" smooth="yes"/>
      <point x="199.0" y="671.25"/>
      <point x="317.0" y="628.25"/>
      <point x="317.0" y="729.25" type="curve" smooth="yes"/>
      <point x="317.0" y="774.25"/>
      <point x="285.0" y="815.25"/>
    </contour>
    <contour>
      <point x="885.0" y="882.7311841168456" type="curve" smooth="yes"/>
      <point x="885.0" y="718.7311841168456" type="line"/>
      <point x="879.0" y="671.7311841168456"/>
      <point x="817.0" y="665.7311841168456"/>
      <point x="772.0" y="665.7311841168456" type="curve" smooth="yes"/>
      <point x="653.0" y="665.7311841168456"/>
      <point x="633.0" y="684.7311841168456"/>
      <point x="633.0" y="770.7311841168456" type="curve" smooth="yes"/>
      <point x="633.0" y="858.7311841168456"/>
      <point x="692.0" y="946.7311841168456"/>
      <point x="856.0" y="946.7311841168456" type="curve" smooth="yes"/>
      <point x="883.0" y="946.7311841168456"/>
      <point x="885.0" y="934.7311841168456"/>
    </contour>
    <contour>
      <point x="530.0" y="1418.3702680086897" type="curve" smooth="yes"/>
      <point x="530.0" y="1377.3702680086897"/>
      <point x="629.0" y="1275.3702680086897"/>
      <point x="666.0" y="1275.3702680086897" type="curve" smooth="yes"/>
      <point x="698.0" y="1275.3702680086897"/>
      <point x="801.0" y="1373.3702680086897"/>
      <point x="801.0" y="1418.3702680086897" type="curve" smooth="yes"/>
      <point x="801.0" y="1457.3702680086897"/>
      <point x="700.0" y="1564.3702680086897"/>
      <point x="666.0" y="1564.3702680086897" type="curve" smooth="yes"/>
      <point x="631.0" y="1564.3702680086897"/>
      <point x="530.0" y="1461.3702680086897"/>
    </contour>
  </outline>
</glyph>
<glyph name="uni0643" format="2">
  <advance width="1228"/>
  <unicode hex="0643"/>
  <unicode hex="FED9"/>
  <outline>
    <contour>
      <point x="885.0" y="413.43224578284855" type="line" smooth="yes"/>
      <point x="885.0" y="387.99224578284856"/>
      <point x="862.44" y="362.80310391480504"/>
      <point x="837.0" y="359.0822608527508" type="curve" smooth="yes"/>
      <point x="226.5131884043993" y="301.25" type="line" smooth="yes"/>
      <point x="222.53119855006767" y="301.25"/>
      <point x="217.42079999999999" y="304.40840000000003"/>
      <point x="215.64" y="307.97" type="curve" smooth="yes"/>
      <point x="211.0" y="317.25"/>
      <point x="207.0" y="333.25"/>
      <point x="207.0" y="346.25" type="curve" smooth="yes"/>
      <point x="207.0" y="428.25"/>
      <point x="317.0" y="413.25"/>
      <point x="317.0" y="505.25" type="curve" smooth="yes"/>
      <point x="317.0" y="550.25"/>
      <point x="285.0" y="591.25"/>
      <point x="229.0" y="591.25" type="curve" smooth="yes"/>
      <point x="119.0" y="591.25"/>
      <point x="57.0" y="424.25"/>
      <point x="57.0" y="350.25" type="curve" smooth="yes"/>
      <point x="57.0" y="243.25"/>
      <point x="78.0" y="157.25"/>
      <point x="199.0" y="157.25" type="curve" smooth="yes"/>
      <point x="954.0" y="225.0" type="line" smooth="yes"/>
      <point x="1012.0" y="225.0"/>
      <point x="1026.0" y="246.0"/>
      <point x="1026.0" y="309.0" type="curve" smooth="yes"/>
      <point x="1026.0" y="1509.0" type="line" smooth="yes"/>
      <point x="1026.0" y="1573.0"/>
      <point x="1014.0" y="1593.0"/>
      <point x="956.0" y="1593.0" type="curve" smooth="yes"/>
      <point x="899.0" y="1590.7182904584288"/>
      <point x="885.0" y="1569.4322457828487"/>
      <point x="885.0" y="1505.4322457828487" type="curve" smooth="yes"/>
    </contour>
    <contour>
      <point x="433.12" y="1101.25" type="curve" smooth="yes"/>
      <point x="413.9764" y="1101.25"/>
      <point x="397.0" y="1118.2264"/>
      <point x="397.0" y="1137.37" type="curve" smooth="yes"/>
      <point x="397.0" y="1187.25"/>
      <point x="448.0" y="1224.25"/>
      <point x="557.0" y="1228.034029970585" type="curve" smooth="yes"/>
      <point x="600.0" y="1233.7061828942828"/>
      <point x="614.0" y="1261.01666275098"/>
      <point x="614.0" y="1294.01666275098" type="curve" smooth="yes"/>
      <point x="614.0" y="1324.01666275098"/>
      <point x="600.0" y="1348.7061828942828"/>
      <point x="557.0" y="1343.034029970585" type="curve" smooth="yes"/>
      <point x="401.0" y="1339.25"/>
      <point x="282.0" y="1255.25"/>
      <point x="282.0" y="1101.25" type="curve" smooth="yes"/>
      <point x="282.0" y="1044.25" type="line" smooth="yes"/>
      <point x="282.0" y="1001.25"/>
      <point x="307.0" y="987.25"/>
      <point x="340.0" y="987.25" type="curve" smooth="yes"/>
      <point x="455.0" y="987.25"/>
      <point x="569.0" y="988.3831903329927"/>
      <point x="569.0" y="916.3831903329927" type="curve" smooth="yes"/>
      <point x="569.0" y="857.3831903329927"/>
      <point x="463.0" y="845.25"/>
      <point x="369.0" y="845.25" type="curve" smooth="yes"/>
      <point x="287.0" y="845.25" type="line" smooth="yes"/>
      <point x="244.0" y="845.25"/>
      <point x="229.0" y="821.25"/>
      <point x="229.0" y="788.25" type="curve" smooth="yes"/>
      <point x="229.0" y="757.25"/>
      <point x="244.0" y="731.25"/>
      <point x="287.0" y="731.25" type="curve" smooth="yes"/>
      <point x="323.0" y="731.25" type="line" smooth="yes"/>
      <point x="506.0" y="731.557755053129"/>
      <point x="684.0" y="763.030917558897"/>
      <point x="684.0" y="937.030917558897" type="curve" smooth="yes"/>
      <point x="684.0" y="1017.030917558897"/>
      <point x="676.0" y="1125.2773302573376"/>
    </contour>
  </outline>
</glyph>
<glyph name="uni0649" format="2">
  <advance width="1228"/>
  <unicode hex="0649"/>
  <unicode hex="FEEF"/>
  <outline>
    <contour>
      <point x="1036.0" y="279.0" type="curve" smooth="yes"/>
      <point x="1036.0" y="446.0"/>
      <point x="961.0" y="498.8964298917844"/>
      <point x="760.0" y="352.0051691863845" type="curve" smooth="yes"/>
      <point x="604.0" y="185.56095128236512"/>
      <point x="596.0" y="249.54335724127156"/>
      <point x="596.0" y="319.54335724127156" type="curve" smooth="yes"/>
      <point x="596.0" y="448.54335724127156"/>
      <point x="711.0" y="688.1802727748284"/>
      <point x="805.0" y="790.2351125411799" type="curve" smooth="yes"/>
      <point x="920.0" y="876.4515643545524"/>
      <point x="850.0" y="696.2448888122009"/>
      <point x="950.0" y="752.3156851858099" type="curve" smooth="yes"/>
      <point x="995.0" y="758.0"/>
      <point x="1036.0" y="791.0"/>
      <point x="1036.0" y="846.0" type="curve" smooth="yes"/>
      <point x="1036.0" y="956.0"/>
      <point x="928.0" y="1004.8854583739381"/>
      <point x="807.0" y="917.2117589887622" type="curve" smooth="yes"/>
      <point x="612.0" y="708.8315696679283"/>
      <point x="455.0" y="422.3867914816615"/>
      <point x="455.0" y="250.38679148166148" type="curve" smooth="yes"/>
      <point x="455.0" y="94.38679148166148"/>
      <point x="463.0" y="-14.878400585710153"/>
      <point x="760.0" y="227.00516918638448" type="curve" smooth="yes"/>
      <point x="852.0" y="316.8781187313597"/>
      <point x="895.0" y="320.31240479566605"/>
      <point x="895.0" y="249.31240479566608" type="curve" smooth="yes"/>
      <point x="1300.0101655728054" y="-139.6375952043339"/>
      <point x="1222.0101655728054" y="-341.0493989789875"/>
      <point x="492.0" y="-373.78015762403453" type="curve" smooth="yes"/>
      <point x="62.11039754437752" y="-583.75"/>
      <point x="11.11039754437752" y="-429.75"/>
      <point x="180.0" y="-113.94999999999999" type="curve" smooth="yes"/>
      <point x="44.79999999999998" y="-9.099999999999987"/>
      <point x="57.79999999999998" y="56.90000000000001"/>
      <point x="229.0" y="94.05000000000001" type="curve" smooth="yes"/>
      <point x="176.15" y="222.3"/>
      <point x="417.85" y="77.80000000000001"/>
      <point x="334.0" y="223.05" type="curve" smooth="yes"/>
      <point x="334.0" y="269.05"/>
      <point x="301.0" y="309.05"/>
      <point x="246.0" y="309.05" type="curve" smooth="yes"/>
      <point x="-184.95000000000005" y="443.6"/>
      <point x="-235.95000000000005" y="159.60000000000002"/>
      <point x="39.0" y="-113.94999999999999" type="curve" smooth="yes"/>
      <point x="-222.8396024556224" y="-664.4000000000001"/>
      <point x="-60.83960245562241" y="-818"/>
      <point x="492.0" y="-516.7801576240345" type="curve" smooth="yes"/>
      <point x="1375.2571024556223" y="-539.9309056068187"/>
      <point x="1553.2571024556223" y="-312.6"/>
    </contour>
  </outline>
</glyph>
<glyph name="uni064A" format="2">
  <advance width="1228"/>
  <unicode hex="064A"/>
  <unicode hex="FEF1"/>
  <outline>
    <contour>
      <point x="1036.0" y="279.0" type="curve" smooth="yes"/>
      <point x="1036.0" y="446.0"/>
      <point x="961.0" y="500.8152805287382"/>
      <point x="760.0" y="444.74277994136065" type="curve" smooth="yes"/>
      <point x="604.0" y="381.206368984234"/>
      <point x="596.0" y="449.5275571604294"/>
      <point x="596.0" y="519.5275571604294" type="curve" smooth="yes"/>
      <point x="596.0" y="648.5275571604294"/>
      <point x="711.0" y="814.8145843395451"/>
      <point x="805.0" y="853.7717696428986" type="curve" smooth="yes"/>
      <point x="920.0" y="886.6829994991293"/>
      <point x="850.0" y="734.426347682479"/>
      <point x="950.0" y="755.8301381292059" type="curve" smooth="yes"/>
      <point x="995.0" y="758.0"/>
      <point x="1036.0" y="791.0"/>
      <point x="1036.0" y="846.0" type="curve" smooth="yes"/>
      <point x="1036.0" y="956.0"/>
      <point x="928.0" y="1012.9938128415592"/>
      <point x="807.0" y="979.5263108495084" type="curve" smooth="yes"/>
      <point x="612.0" y="899.9817672736715"/>
      <point x="455.0" y="665.128562723627"/>
      <point x="455.0" y="493.128562723627" type="curve" smooth="yes"/>
      <point x="455.0" y="337.128562723627"/>
      <point x="463.0" y="227.40905945322172"/>
      <point x="760.0" y="319.74277994136065" type="curve" smooth="yes"/>
      <point x="852.0" y="354.04979719990826"/>
      <point x="895.0" y="338.66741498753"/>
      <point x="895.0" y="267.66741498753" type="curve" smooth="yes"/>
      <point x="1156.9048157168108" y="-121.28258501247001"/>
      <point x="1078.9048157168108" y="-284.72518729316226"/>
      <point x="492.0" y="-135.2630707306405" type="curve" smooth="yes"/>
      <point x="59.22900402508367" y="-340.79999999999995"/>
      <point x="8.229004025083668" y="-186.79999999999998"/>
      <point x="180.0" y="129.0" type="curve" smooth="yes"/>
      <point x="180.0" y="202.0"/>
      <point x="193.0" y="268.0"/>
      <point x="229.0" y="337.0" type="curve" smooth="yes"/>
      <point x="260.0" y="397.0"/>
      <point x="334.0" y="389.0"/>
      <point x="334.0" y="466.0" type="curve" smooth="yes"/>
      <point x="334.0" y="512.0"/>
      <point x="301.0" y="552.0"/>
      <point x="246.0" y="552.0" type="curve" smooth="yes"/>
      <point x="90.0" y="552.0"/>
      <point x="39.0" y="268.0"/>
      <point x="39.0" y="129.0" type="curve" smooth="yes"/>
      <point x="-225.72099597491632" y="-421.45000000000005"/>
      <point x="-63.72099597491632" y="-575.45"/>
      <point x="492.0" y="-278.2630707306405" type="curve" smooth="yes"/>
      <point x="1220.2209959749164" y="-505.72135345724087"/>
      <point x="1398.2209959749164" y="-312.6"/>
    </contour>
    <contour>
      <point x="206.0" y="-695.0" type="curve" smooth="yes"/>
      <point x="113.05" y="-818"/>
      <point x="212.05" y="-818"/>
      <point x="342.0" y="-838.0" type="curve" smooth="yes"/>
      <point x="466.95" y="-818"/>
      <point x="569.95" y="-818"/>
      <point x="477.0" y="-695.0" type="curve" smooth="yes"/>
      <point x="571.9" y="-568.25"/>
      <point x="470.9" y="-461.25"/>
      <point x="342.0" y="-549.0" type="curve" smooth="yes"/>
      <point x="212.1" y="-460.6"/>
      <point x="111.1" y="-563.6"/>
    </contour>
    <contour>
      <point x="528.0" y="-600.249975153994" type="curve" smooth="yes"/>
      <point x="435.05" y="-729.649975153994"/>
      <point x="534.05" y="-818"/>
      <point x="664.0" y="-743.249975153994" type="curve" smooth="yes"/>
      <point x="788.95" y="-818"/>
      <point x="891.95" y="-732.999975153994"/>
      <point x="799.0" y="-600.249975153994" type="curve" smooth="yes"/>
      <point x="893.9" y="-473.499975153994"/>
      <point x="792.9" y="-366.499975153994"/>
      <point x="664.0" y="-454.249975153994" type="curve" smooth="yes"/>
      <point x="534.1" y="-365.849975153994"/>
      <point x="433.1" y="-468.849975153994"/>
    </contour>
  </outline>
</glyph>
<glyph name="uni066E" format="2">
  <advance width="1228"/>
  <unicode hex="066E"/>
  <outline>
    <contour>
      <point x="229.0" y="815.25" type="curve" smooth="yes"/>
      <point x="119.0" y="815.25"/>
      <point x="57.0" y="649.25"/>
      <point x="57.0" y="471.25" type="curve" smooth="yes"/>
      <point x="57.0" y="327.25"/>
      <point x="78.0" y="157.25"/>
      <point x="219.0" y="157.25" type="curve" smooth="yes"/>
      <point x="954.0" y="225.0" type="line" smooth="yes"/>
      <point x="1012.0" y="225.0"/>
      <point x="1026.0" y="246.0"/>
      <point x="1026.0" y="309.0" type="curve" smooth="yes"/>
      <point x="1026.0" y="799.0" type="line" smooth="yes"/>
      <point x="1026.0" y="862.0"/>
      <point x="1014.0" y="883.0"/>
      <point x="956.0" y="883.0" type="curve" smooth="yes"/>
      <point x="899.0" y="880.5939373473468"/>
      <point x="885.0" y="858.2391635029684"/>
      <point x="885.0" y="795.2391635029684" type="curve" smooth="yes"/>
      <point x="885.0" y="413.23916350296844" type="line" smooth="yes"/>
      <point x="885.0" y="387.79916350296844"/>
      <point x="862.44" y="362.4726833871077"/>
      <point x="837.0" y="358.56511269626816" type="curve" smooth="yes"/>
      <point x="234.90447410008736" y="301.25" type="line" smooth="yes"/>
      <point x="227.53510282704104" y="301.25"/>
      <point x="218.2364" y="307.172"/>
      <point x="215.12" y="313.85" type="curve" smooth="yes"/>
      <point x="207.0" y="331.25"/>
      <point x="199.0" y="366.25"/>
      <point x="199.0" y="471.25" type="curve" smooth="yes"/>
      <point x="199.0" y="671.25"/>
      <point x="317.0" y="628.25"/>
      <point x="317.0" y="729.25" type="curve" smooth="yes"/>
      <point x="317.0" y="774.25"/>
      <point x="285.0" y="815.25"/>
    </contour>
  </outline>
</glyph>
<glyph name="uni0671" format="2">
  <advance width="1228"/>
  <unicode hex="0671"/>
  <unicode hex="FB50"/>
  <outline>
    <contour>
      <point x="437.85211058263974" y="1655.0" type="curve" smooth="yes"/>
      <point x="332.40056480380497" y="1655.0"/>
      <point x="250.875" y="1558.0"/>
      <point x="250.875" y="1528.0" type="curve" smooth="yes"/>
      <point x="250.875" y="1505.0"/>
      <point x="270.37024375743164" y="1458.0"/>
      <point x="290.7516349583829" y="1458.0" type="curve" smooth="yes"/>
      <point x="304.9299940546968" y="1458.0"/>
      <point x="312.01917360285375" y="1464.0"/>
      <point x="321.76679548156955" y="1472.0" type="curve"/>
      <point x="359.8711355529132" y="1513.0"/>
      <point x="391.7724435196195" y="1540.0"/>
      <point x="436.0798156956005" y="1540.0" type="curve" smooth="yes"/>
      <point x="474.1841557669441" y="1540.0"/>
      <point x="484.81792508917954" y="1517.0"/>
      <point x="500.7685790725327" y="1499.0" type="curve"/>
      <point x="546.8482461355529" y="1452.0"/>
      <point x="626.6015160523186" y="1399.0"/>
      <point x="704.5824910820452" y="1399.0" type="curve" smooth="yes"/>
      <point x="886.2427170035671" y="1399.0"/>
      <point x="996.125" y="1511.0"/>
      <point x="996.125" y="1657.0" type="curve" smooth="yes"/>
      <point x="996.125" y="1718.0"/>
      <point x="965.9959869203329" y="1816.0"/>
      <point x="888.0150118906065" y="1816.0" type="curve" smooth="yes"/>
      <point x="715.2162604042807" y="1816.0"/>
      <point x="628.3738109393579" y="1712.0"/>
      <point x="591.4131136560156" y="1584.3180972747505" type="curve" smooth="yes"/>
      <point x="587.9890341079825" y="1572.4895057191327"/>
      <point x="576.2063109393579" y="1566.935"/>
      <point x="566.3434898929845" y="1572.5" type="curve" smooth="yes"/>
      <point x="540.6452140309156" y="1587.0"/>
      <point x="531.7837395957193" y="1655.0"/>
    </contour>
    <contour>
      <point x="625.0" y="1319.0" type="curve" smooth="yes"/>
      <point x="567.0" y="1319.0"/>
      <point x="553.0" y="1298.0"/>
      <point x="553.0" y="1235.0" type="curve" smooth="yes"/>
      <point x="553.0" y="309.0" type="line" smooth="yes"/>
      <point x="553.0" y="246.0"/>
      <point x="565.0" y="225.0"/>
      <point x="623.0" y="225.0" type="curve" smooth="yes"/>
      <point x="680.0" y="225.0"/>
      <point x="694.0" y="246.0"/>
      <point x="694.0" y="309.0" type="curve" smooth="yes"/>
      <point x="694.0" y="1235.0" type="line" smooth="yes"/>
      <point x="694.0" y="1298.0"/>
      <point x="682.0" y="1319.0"/>
    </contour>
    <contour>
      <point x="679.24" y="1517.64" type="curve" smooth="yes"/>
      <point x="674.3428" y="1519.4208"/>
      <point x="671.1651635268735" y="1525.4717086707033"/>
      <point x="672.4790713337733" y="1530.514273767454" type="curve" smooth="yes"/>
      <point x="707.0" y="1663.0"/>
      <point x="776.0" y="1706.0"/>
      <point x="903.0" y="1706.0" type="curve" smooth="yes"/>
      <point x="942.0" y="1706.0"/>
      <point x="946.0" y="1653.0"/>
      <point x="946.0" y="1628.0" type="curve" smooth="yes"/>
      <point x="946.0" y="1558.0"/>
      <point x="850.0" y="1511.0"/>
      <point x="743.0" y="1511.0" type="curve" smooth="yes"/>
      <point x="721.0" y="1511.0"/>
      <point x="692.0" y="1513.0"/>
    </contour>
  </outline>
</glyph>
<glyph name="uni0679" format="2">
  <advance width="1228"/>
  <unicode hex="0679"/>
  <unicode hex="FB66"/>
  <outline>
    <contour>
      <point x="229.0" y="815.25" type="curve" smooth="yes"/>
      <point x="119.0" y="815.25"/>
      <point x="57.0" y="649.25"/>
      <point x="57.0" y="471.25" type="curve" smooth="yes"/>
      <point x="57.0" y="327.25"/>
      <point x="78.0" y="157.25"/>
      <point x="219.0" y="157.25" type="curve" smooth="yes"/>
      <point x="954.0" y="225.0" type="line" smooth="yes"/>
      <point x="1012.0" y="225.0"/>
      <point x="1026.0" y="246.0"/>
      <point x="1026.0" y="309.0" type="curve" smooth="yes"/>
      <point x="1026.0" y="799.0" type="line" smooth="yes"/>
      <point x="1026.0" y="862.0"/>
      <point x="1014.0" y="883.0"/>
      <point x="956.0" y="883.0" type="curve" smooth="yes"/>
      <point x="899.0" y="880.5939373473468"/>
      <point x="885.0" y="858.2391635029684"/>
      <point x="885.0" y="795.2391635029684" type="curve" smooth="yes"/>
      <point x="885.0" y="413.23916350296844" type="line" smooth="yes"/>
      <point x="885.0" y="387.79916350296844"/>
      <point x="862.44" y="362.4726833871077"/>
      <point x="837.0" y="358.56511269626816" type="curve" smooth="yes"/>
      <point x="234.90447410008736" y="301.25" type="line" smooth="yes"/>
      <point x="227.53510282704104" y="301.25"/>
      <point x="218.2364" y="307.172"/>
      <point x="215.12" y="313.85" type="curve" smooth="yes"/>
      <point x="207.0" y="331.25"/>
      <point x="199.0" y="366.25"/>
      <point x="199.0" y="471.25" type="curve" smooth="yes"/>
      <point x="199.0" y="671.25"/>
      <point x="317.0" y="628.25"/>
      <point x="317.0" y="729.25" type="curve" smooth="yes"/>
      <point x="317.0" y="774.25"/>
      <point x="285.0" y="815.25"/>
    </contour>
    <contour>
      <point x="230.0" y="1165.25" type="curve" smooth="yes"/>
      <point x="230.0" y="1087.25"/>
      <point x="346.0" y="1040.25"/>
      <point x="430.0" y="1040.25" type="curve" smooth="yes"/>
      <point x="531.0" y="1041.1071295627394" type="line" smooth="yes"/>
      <point x="775.0" y="1085.3187137791558"/>
      <point x="899.0" y="1230.5939373473468"/>
      <point x="899.0" y="1369.5939373473468" type="curve" smooth="yes"/>
      <point x="899.0" y="1430.5939373473468"/>
      <point x="865.0" y="1527.8212108120276"/>
      <point x="762.0" y="1508.4122213564199" type="curve" smooth="yes"/>
      <point x="668.0" y="1486.905824205259"/>
      <point x="600.0" y="1412.2404090551945"/>
      <point x="555.5387196517106" y="1332.1068229084567" type="curve" smooth="yes"/>
      <point x="542.533198236304" y="1309.202003260973"/>
      <point x="531.0" y="1311.6671295627393"/>
      <point x="531.0" y="1337.1071295627394" type="curve" smooth="yes"/>
      <point x="531.0" y="1649.1071295627394" type="line" smooth="yes"/>
      <point x="531.0" y="1694.1071295627394"/>
      <point x="521.0" y="1707.6639579216169"/>
      <point x="482.0" y="1707.25" type="curve" smooth="yes"/>
      <point x="441.0" y="1707.25"/>
      <point x="430.0" y="1693.25"/>
      <point x="430.0" y="1648.25" type="curve" smooth="yes"/>
      <point x="430.0" y="1175.43" type="line" smooth="yes"/>
      <point x="430.0" y="1157.8446000000001"/>
      <point x="414.4054" y="1142.25"/>
      <point x="396.82" y="1142.25" type="curve" smooth="yes"/>
      <point x="351.0" y="1142.25"/>
      <point x="361.0" y="1226.25"/>
      <point x="291.0" y="1226.25" type="curve" smooth="yes"/>
      <point x="258.0" y="1226.25"/>
      <point x="230.0" y="1204.25"/>
    </contour>
    <contour>
      <point x="579.0" y="1163.4426178120798" type="curve" smooth="yes"/>
      <point x="553.56" y="1163.4426178120798"/>
      <point x="539.9751638328942" y="1184.1404446103866"/>
      <point x="550.0960932614769" y="1207.4805471701795" type="curve" smooth="yes"/>
      <point x="580.0" y="1276.4426178120798"/>
      <point x="666.0" y="1374.4426178120798"/>
      <point x="744.0" y="1374.4426178120798" type="curve" smooth="yes"/>
      <point x="797.0" y="1374.4426178120798"/>
      <point x="801.0" y="1321.4426178120798"/>
      <point x="801.0" y="1296.4426178120798" type="curve" smooth="yes"/>
      <point x="801.0" y="1227.4426178120798"/>
      <point x="709.0" y="1163.4426178120798"/>
    </contour>
  </outline>
</glyph>
<glyph name="uni067A" format="2">
  <advance width="1478"/>
  <unicode hex="067A"/>
  <unicode hex="FB5E"/>
  <outline>
    <contour>
      <point x="229.0" y="815.25" type="curve" smooth="yes"/>
      <point x="119.0" y="815.25"/>
      <point x="57.0" y="649.25"/>
      <point x="57.0" y="471.25" type="curve" smooth="yes"/>
      <point x="57.0" y="327.25"/>
      <point x="78.0" y="157.25"/>
      <point x="219.0" y="157.25" type="curve" smooth="yes"/>
      <point x="1204.5" y="225.0" type="line" smooth="yes"/>
      <point x="1262.5" y="225.0"/>
      <point x="1276.5" y="246.0"/>
      <point x="1276.5" y="309.0" type="curve" smooth="yes"/>
      <point x="1276.5" y="799.0" type="line" smooth="yes"/>
      <point x="1276.5" y="862.0"/>
      <point x="1264.5" y="883.0"/>
      <point x="1206.5" y="883.0" type="curve" smooth="yes"/>
      <point x="1149.5" y="881.6545063729396"/>
      <point x="1135.5" y="859.8904460139852"/>
      <point x="1135.5" y="796.8904460139852" type="curve" smooth="yes"/>
      <point x="1135.5" y="414.89044601398524" type="line" smooth="yes"/>
      <point x="1135.5" y="389.45044601398524"/>
      <point x="1112.94" y="365.3150778360157"/>
      <point x="1087.5" y="363.05314661147514" type="curve" smooth="yes"/>
      <point x="234.90447410008736" y="301.25" type="line" smooth="yes"/>
      <point x="227.53510282704104" y="301.25"/>
      <point x="218.2364" y="307.172"/>
      <point x="215.12" y="313.85" type="curve" smooth="yes"/>
      <point x="207.0" y="331.25"/>
      <point x="199.0" y="366.25"/>
      <point x="199.0" y="471.25" type="curve" smooth="yes"/>
      <point x="199.0" y="671.25"/>
      <point x="317.0" y="628.25"/>
      <point x="317.0" y="729.25" type="curve" smooth="yes"/>
      <point x="317.0" y="774.25"/>
      <point x="285.0" y="815.25"/>
    </contour>
    <contour>
      <point x="725.5" y="1210.5493094283902" type="curve" smooth="yes"/>
      <point x="725.5" y="1169.5493094283902"/>
      <point x="824.5" y="1067.5493094283902"/>
      <point x="861.5" y="1067.5493094283902" type="curve" smooth="yes"/>
      <point x="893.5" y="1067.5493094283902"/>
      <point x="996.5" y="1165.5493094283902"/>
      <point x="996.5" y="1210.5493094283902" type="curve" smooth="yes"/>
      <point x="996.5" y="1249.5493094283902"/>
      <point x="895.5" y="1356.5493094283902"/>
      <point x="861.5" y="1356.5493094283902" type="curve" smooth="yes"/>
      <point x="826.5" y="1356.5493094283902"/>
      <point x="725.5" y="1253.5493094283902"/>
    </contour>
    <contour>
      <point x="696.5" y="1528.6856736389311" type="curve" smooth="yes"/>
      <point x="696.5" y="1487.6856736389311"/>
      <point x="795.5" y="1385.6856736389311"/>
      <point x="832.5" y="1385.6856736389311" type="curve" smooth="yes"/>
      <point x="864.5" y="1385.6856736389311"/>
      <point x="967.5" y="1483.6856736389311"/>
      <point x="967.5" y="1528.6856736389311" type="curve" smooth="yes"/>
      <point x="967.5" y="1567.6856736389311"/>
      <point x="866.5" y="1674.6856736389311"/>
      <point x="832.5" y="1674.6856736389311" type="curve" smooth="yes"/>
      <point x="797.5" y="1674.6856736389311"/>
      <point x="696.5" y="1571.6856736389311"/>
    </contour>
  </outline>
</glyph>
<glyph name="uni067B" format="2">
  <advance width="1478"/>
  <unicode hex="067B"/>
  <unicode hex="FB52"/>
  <outline>
    <contour>
      <point x="229.0" y="693.3" type="curve" smooth="yes"/>
      <point x="119.0" y="693.3"/>
      <point x="57.0" y="527.3"/>
      <point x="57.0" y="349.3" type="curve" smooth="yes"/>
      <point x="-147.1" y="100.0"/>
      <point x="-126.1" y="-70.0"/>
      <point x="219.0" y="35.30000000000001" type="curve" smooth="yes"/>
      <point x="1204.5" y="225.0" type="line" smooth="yes"/>
      <point x="1262.5" y="225.0"/>
      <point x="1276.5" y="246.0"/>
      <point x="1276.5" y="309.0" type="curve" smooth="yes"/>
      <point x="1276.5" y="799.0" type="line" smooth="yes"/>
      <point x="1276.5" y="862.0"/>
      <point x="1264.5" y="883.0"/>
      <point x="1206.5" y="883.0" type="curve" smooth="yes"/>
      <point x="1149.5" y="879.2326178442311"/>
      <point x="1135.5" y="856.0932488391586"/>
      <point x="1135.5" y="793.0932488391586" type="curve" smooth="yes"/>
      <point x="1135.5" y="411.0932488391586" type="line" smooth="yes"/>
      <point x="1135.5" y="385.6532488391586"/>
      <point x="1112.94" y="358.68221794084394"/>
      <point x="1087.5" y="352.3488105121304" type="curve" smooth="yes"/>
      <point x="234.90447410008736" y="179.3" type="line" smooth="yes"/>
      <point x="219.34510282704102" y="166.44009183494325"/>
      <point x="210.04639999999998" y="172.36209183494327"/>
      <point x="215.12" y="191.90000000000003" type="curve" smooth="yes"/>
      <point x="207.0" y="209.3"/>
      <point x="199.0" y="244.3"/>
      <point x="199.0" y="349.3" type="curve" smooth="yes"/>
      <point x="199.0" y="549.3"/>
      <point x="317.0" y="506.3"/>
      <point x="317.0" y="607.3" type="curve" smooth="yes"/>
      <point x="317.0" y="652.3"/>
      <point x="285.0" y="693.3"/>
    </contour>
    <contour>
      <point x="725.5" y="-582.2619336005077" type="curve" smooth="yes"/>
      <point x="632.55" y="-711.6619336005077"/>
      <point x="731.55" y="-813.6619336005077"/>
      <point x="861.5" y="-725.2619336005077" type="curve" smooth="yes"/>
      <point x="986.45" y="-813.0119336005077"/>
      <point x="1089.45" y="-715.0119336005077"/>
      <point x="996.5" y="-582.2619336005077" type="curve" smooth="yes"/>
      <point x="1091.4" y="-455.51193360050775"/>
      <point x="990.4" y="-348.51193360050775"/>
      <point x="861.5" y="-436.26193360050775" type="curve" smooth="yes"/>
      <point x="731.6" y="-347.86193360050777"/>
      <point x="630.6" y="-450.86193360050777"/>
    </contour>
    <contour>
      <point x="696.5" y="-272.88011381099295" type="curve" smooth="yes"/>
      <point x="603.55" y="-402.28011381099293"/>
      <point x="702.55" y="-504.28011381099293"/>
      <point x="832.5" y="-415.88011381099295" type="curve" smooth="yes"/>
      <point x="957.45" y="-503.63011381099295"/>
      <point x="1060.45" y="-405.63011381099295"/>
      <point x="967.5" y="-272.88011381099295" type="curve" smooth="yes"/>
      <point x="1062.4" y="-146.13011381099292"/>
      <point x="961.4" y="-39.130113810992924"/>
      <point x="832.5" y="-126.88011381099292" type="curve" smooth="yes"/>
      <point x="702.6" y="-38.48011381099292"/>
      <point x="601.6" y="-141.48011381099292"/>
    </contour>
  </outline>
</glyph>
